/* XPM */
static char * background_xpm[] = {
"64 64 133 2",
"  	c None",
". 	c #77A058",
"+ 	c #76A058",
"@ 	c #7BA359",
"# 	c #8DB05D",
"$ 	c #94B55F",
"% 	c #93B55E",
"& 	c #8AAE5C",
"* 	c #79A258",
"= 	c #93B55F",
"- 	c #92B45E",
"; 	c #83A95B",
"> 	c #84AA5B",
", 	c #86AB5B",
"' 	c #9DBD61",
") 	c #A5C363",
"! 	c #A4C263",
"~ 	c #A5C263",
"{ 	c #9BBB60",
"] 	c #89AD5C",
"^ 	c #85AB5B",
"/ 	c #8BAE5C",
"( 	c #9EBD61",
"_ 	c #A3C163",
": 	c #81A75A",
"< 	c #78A158",
"[ 	c #9CBC61",
"} 	c #A1BF62",
"| 	c #A0BF62",
"1 	c #A5C364",
"2 	c #A6C364",
"3 	c #A2C062",
"4 	c #7EA559",
"5 	c #9ABA60",
"6 	c #A3C263",
"7 	c #AFC968",
"8 	c #B2CB69",
"9 	c #A8C465",
"0 	c #B3CB6A",
"a 	c #ADC867",
"b 	c #ABC666",
"c 	c #B6CD6B",
"d 	c #B7CE6C",
"e 	c #AEC868",
"f 	c #9FBE62",
"g 	c #97B860",
"h 	c #96B75F",
"i 	c #88AC5C",
"j 	c #ACC767",
"k 	c #A6C464",
"l 	c #A8C565",
"m 	c #AEC968",
"n 	c #B9D06D",
"o 	c #BCD16E",
"p 	c #B0CA69",
"q 	c #A7C464",
"r 	c #AEC867",
"s 	c #A9C565",
"t 	c #AAC566",
"u 	c #BBD16E",
"v 	c #B8CF6C",
"w 	c #AAC666",
"x 	c #B5CD6B",
"y 	c #BFD470",
"z 	c #C1D470",
"A 	c #C0D470",
"B 	c #7AA258",
"C 	c #98B960",
"D 	c #B1CA69",
"E 	c #BAD06D",
"F 	c #BDD26F",
"G 	c #BCD26E",
"H 	c #BED36F",
"I 	c #BDD26E",
"J 	c #B3CC6A",
"K 	c #B9CF6D",
"L 	c #ABC766",
"M 	c #B4CC6A",
"N 	c #ADC767",
"O 	c #B2CB6A",
"P 	c #93B45E",
"Q 	c #BFD370",
"R 	c #BBD06D",
"S 	c #BFD36F",
"T 	c #B9CF6C",
"U 	c #ACC766",
"V 	c #B6CE6B",
"W 	c #7FA65A",
"X 	c #95B65F",
"Y 	c #B0C968",
"Z 	c #82A85A",
"` 	c #80A75A",
" .	c #83A95A",
"..	c #7CA459",
"+.	c #B2CA69",
"@.	c #8FB25D",
"#.	c #8BAF5C",
"$.	c #BED26F",
"%.	c #C1D570",
"&.	c #8FB15D",
"*.	c #90B25E",
"=.	c #C1D571",
"-.	c #B4CC6B",
";.	c #A1C062",
">.	c #9EBD62",
",.	c #84A95B",
"'.	c #A2C063",
").	c #B5CC6B",
"!.	c #8FB25E",
"~.	c #8CAF5D",
"{.	c #81A85A",
"].	c #98B860",
"^.	c #87AB5B",
"/.	c #8EB15D",
"(.	c #83A85A",
"_.	c #A2C163",
":.	c #91B35E",
"<.	c #97B85F",
"[.	c #79A158",
"}.	c #85AA5B",
"|.	c #87AC5B",
"1.	c #99B960",
"2.	c #7FA659",
"3.	c #99BA60",
"4.	c #7AA359",
"5.	c #B0CA68",
"6.	c #9BBB61",
"7.	c #9EBE61",
"8.	c #A2C162",
"9.	c #9CBB61",
"0.	c #9FBE61",
"a.	c #8BAF5D",
"b.	c #80A65A",
"                                                                                                                                ",
"                    . + @ # $ % % % % % % % % $ & * . + @ # $ % % % = - ; + * & $ % % % % % % % % $ # @ + .                     ",
"          @ > , , , , , & ' ) ! ! ! ! ! ! ! ! ~ { ] , ^ / ( ) ! ! ! ! _ % ^ ] { ! ! ! ! ! ! ! ! ! ) ' & , , , , : < .           ",
"          , [ } | | | | } _ ! ! ! ! ! ! 1 1 ! ! _ | | | } _ ! ! 2 ) ! ! 3 | | _ ~ 2 2 2 2 2 ) ! ! ! _ } | | | | $ 4 @           ",
"        ] 5 _ ) ~ ~ ~ ! ! ! ! ! ! ! 6 ! 7 8 2 6 ! ! ! ! ! ! 6 9 0 a ! ! ! ! ! ! b c d d d d e ! ! ! ! ~ ~ ~ ~ ) f g h &         ",
"      i 5 ! ! ! ! ! ! 9 j k l e 7 m e 7 n o p e 7 a q 9 r e s t u v j 1 w e e e x y z A A A 0 2 j s ! ! ! ! ! ! ! ! ! % B       ",
"      C 3 ! ! ! ! ! 2 D E r D F G F H H y A H I I o e p F H J j o A K L x H H G F A A A A A M N E O q q ) ) k ) ! ! ! P B       ",
"      , C ! ! ! ! 2 8 o Q R o F D d A A A A Q M M H u u A A I E S z S E F z Q M M S A A A A o E S o T d U b x b ! ! ! - *       ",
"      < - ! ! 6 q p o z A A z F J v A A A A Q x x S z A A A A A A E v S A A S x x Q A A A A A A A A z A V x H c b ! ! 5 &       ",
"    * W X ! ! 2 Y F A A A A A A Q y A A A A A y y A A A A A A A A M 7 F A A A y y A A A A A A A A A A A y y A y d s ) ! [ Z     ",
"  . ` h } ! 1 8 o A A A A A A A A A A A A A A A A A A A A A A A A I u Q A A A A A A A A A A A A A A A A A A A A H v w ! (  ..   ",
"  + Z ( ) ! ! a v Q A A A A A A A A A A A A A A A A A A A A A A A A A A A A A A A A A A A A E c H A A A A A A A z F j ! } %  .  ",
"  ..] f ! 1 s w +.H A A A A A A A A A A A A A A A A A A A A A A A A A A A A A A A A A A A A x 7 I A A A A H o H z F U 6 ! _ @.  ",
"  #.( _ ! w K o I A A A A A A A A A A A A A A A A A A A A A A A A A A A A A A A A A A A A A $.G Q A A A A K e K %.F j ! ! _ &.  ",
"  *.! ! 6 j F =.z A A A A A A $.-.T A A A A A A A A A A A A A A A A A A A A A A A A A A A A A A A A A A A o x o A S d a ;.P  .  ",
"  @.6 ! 6 U I G o y A A A A A I p c A A A A A A A A A A A A A A A A A A A A A A A A A A A A A A A A A A A A A A A Q u D >.Z .   ",
"  @.6 ! ! a o 0 D H A A A A A y F H A A A A A A A A A A A A A A A A A A A A A A A A A A A A A A A A A A A A A A A F Y q ( ,.<   ",
"  @._ ~ r v H n v Q A A A A A A A A A A A A A A A A A A A A A A A A A A A A A A A A A A A A A A A A A A A A A A A S v r '.g ,   ",
"  @._ ) ).A A A A A A A A A A A A A A A A A A A A A A A A A A A A A A A A A A A A A A A A A A A A A A A A A A A A A A -.) 6 !.  ",
"  @._ ) 0 S A A A A A A A A A A A A A A A A A A A A A A A A A A A A A A A A A A A A A A A A A A A A A A A A A A A A A M ) _ @.  ",
"  @._ ! s 0 H A A A A A A A A A A A A A A A A A A A A A A A A A A A A A A A A A A A A A A A A A A A A A A A A A A A A M ) _ @.  ",
"  @._ ! s J F E K Q A A A A A A A A A A A A A A A A A A A A A A A A A A A A A A A A A A A A A A A A A A A A A A A A A ).) _ @.  ",
"  @._ ) J Q S 8 D H A A A A A A A A A A A A A A A A A A A A A A A A A A A A A A A A A A A A A A A A y $.S A A A A A H O ) _ @.  ",
"  @._ ) -.A A u u y A A A A A A A A A A A A A A A A A A A A A A A A A A A A A A A A A A A A A A A A u Y v A A A A H 8 l ! 6 @.  ",
"  , h '.r v Q z A A A A S d n A A A A A A A A A A A A A A A A A A A A A A A A A A A A A A A A A A A o 0 E A A A o 0 9 ! ;.h ,   ",
"  < ,.( ) L E S A A A A F Y M y A A A A A A A A A A A A A A A A A A A A A A A A A A A A A A A A A A A y A A A A v w 1 ~ ( ,.<   ",
"  . Z ( ! 1 L v A A A A y o I A A A A A A A A A A A A A A A A A A A A A A A A A A A A A A A A A A A A A A A A A H v w ! ( Z .   ",
"  + Z ( ! 9 D u A A A A A A A A A A A A A A A A A A A A A A A A A A A A A A A A A A A A A A A A A A A A A A A A o O 9 ! ( Z +   ",
"  ..& f ! L I A H u H A A A A A A A A A A A A A A A A A A A A A A A A A A A A A A A A A A A A A A A A A A A A A c 2 ! ~ f & ..  ",
"  ~.f _ ! j F %.K r K A A A A A A A A A A A A A A A A A A A A A A A A A A A A A A A A A A A A A A A A A A A A A V 2 ! ! _ f ~.  ",
"  *.! ) a d S A o c o A A A A A A A A A A A A A A A A A A A A A A A A A A A A A A A A A A A A A A A A A A A A A o J l ! ! ! *.  ",
"  @._ ) -.A A A A A A A A A A A A A A A A A A A A A A A A A A A A A A A A A A A A A A A A A A A A A A A A $.E $.z F j 6 ! 6 @.  ",
"  @._ ) J Q A A A A A A A A A A A A A A A A A A A A A A A A A A A A A A A A A A A A A A A A A A A A A A A K a K %.F j 6 ! 6 @.  ",
"  *.! ~ w M H A A A A A A A A A A A A A A A A A A A A A A A A A A A A A A A A A A A A A A A A A A A A A A I d I z F j 6 ! 6 @.  ",
"  i 5 3 6 L F A A A A A A A A A A A A A A A A A A A A A A A A A A A A A A A A A A A A A A A A A A A A A A A A A z F j 6 ! 6 @.  ",
"  * ^ ( ! j F A A A A A A A A A A A A A A A A A A A A A A A A A A A A A A A A A A A A A A A A A A S H A A A A A A u b 6 ! 6 @.  ",
"  + {.( ! j F z A A A A A A A A A A A A A A A A A A A A A A A A A A A A A A A A A A A A A A A A y x O H A A A A n a 2 ! ! ! !.  ",
"  : *.| ! s M G A Q K n y A A A A A A A A A A A A A A A A A A A A A A A A A A A A A A A A A A A A V M H A A A A E 7 2 ! 3 ].^.  ",
"  /.3 ! ! ) w v A H D 8 S A A A A A A A A A A A A A A A A A A A A A A A A A A A A A A A A A A A A Q Q A A Q F Q A o e k ( > <   ",
"  !.! ! ! w d H A y u o A A A A A A A A A A A A A A A A A A A A A A A A A A A A A A A A A A A A A A A A A E 7 E z y u D >.Z .   ",
"  @._ ~ U c S A A A A A A A A A A A A A A A A A A A A A A A A A A A A A A A A A A A A A A A A A A A A A A u J u A A A x 3 - (.  ",
"  @._ ) D o y A A A A A A A A A A A A A A A A A A A A A A A A A A A A A A A A A A A A A A A A A A A A A A A y A A A A M ) _ &.  ",
"  @._ ! q p $.A A A A A A A A A A A A A A A A A A A A A A A A A A A A A A A A A A A A A A A A A A A A A A A A A A A A M ) _ @.  ",
"  @._ ~ j d S A A A A A A A A A A A A A A A A A A A A A A A A A A A A A A A A A A A A A A A A A A A A A A A A A A H c j ;.= ;   ",
"  !.6 ) D o y A A A A A A A A A A A A A A A A A A A A A A A A A A A A A A A A A A A A A A A A A A A A A A A A A z F j ! ( Z .   ",
"  /._.! 2 7 I A A A A A A A A A A A A A A A A A A A A A A A A A A A A A A A A A A A A A A A A A A A A Q A A A A A o L ! ( ,.<   ",
"  Z :.| ! q 7 E A A A A A A A A A A A A A A A A A A A A A A A A A A A A A A A A A A A A A A A A A A o 0 E A A A E 7 q ! 3 <.,   ",
"  + Z ( ~ 2 N K A A A F E H A A A A A A A A A A A A A A A A A A A A A A A A A A A A A A A A A A A A u Y T A A A K N 2 ! ! ! @.  ",
"  [.}.( ! w K S A A A d a E A A A A A A A A A A A A A A A A A A A A A A A A A A A A A A A A A A A A y H S A A A S K w 6 ! 6 @.  ",
"  |.1.3 ! q e E A A A o v F A A A A A A A A A A A A A A A A A A A A A A A A A A A A A A A A A A A A A A A A A A E e q ! ! ! *.  ",
"  *.! ! ! 2 r E A A A A A A A H K u A A A A A A A A A A A A A A A A A A A A A A A A A A A A A A A A A A A A A A E r 2 ! 3 1.i   ",
"  # } ! 6 b u A A A A A A A A G m x A A A A A H H A A A A A A A A A A A A Q H Q A A A A A A A A A A A A A A A A A u b ! ( }.*   ",
"  2.# | ! j F z A A A A A A A S E o A A A A S M J S A A A A A A A A A A A E p n A A A A A A A A A A A A A A A A z F j ! ( Z .   ",
"  + Z ( ! s J x v Q A A A A A A A A A A A A Q x x S A A A A A A A A A A A u O E A A A A A A A H d u A y K v Q A G M s ) ( (..   ",
"      ( ) ! 1 9 D H A A A F H A A A A A A A A y y A A A A F H A A A A A A A Q A A A A A A A A o e c A S 8 D H z d q ! _.3.      ",
"      ' ) ! ) 8 o y A A F D -.y A A A A A A A A A A A A F D x A A A A A A A A A A A A A A A A S u F A A o o y A c 1 ! <.;       ",
"      /.[ ! ) e v A %.o M O T A A A A A A A A z o c I %.S x v A A z F c u %.A v v A A A A A A z z A A A %.=.A v r ) ! - [.      ",
"      4.% ! ! ! j n o 0 s x u o Q $.G y A A A F M s x u o S A A A H c s O o E j N E Q A A A $.G y A S o u u n j ! ! ! P B       ",
"      * - _ ! ! 2 s t q ) l s a u ).7 G A A H 8 q ) 9 s N R A y S M l ) q t s 2 1 U E A y Q x 7 o A E j s t s 2 ! ! _ - B       ",
"        > X _.) ~ ! ! ! ~ ! 6 q 7 b q Y 8 8 D s ! ) ! ! 1 m 8 8 D w ! ~ ! ! ! ! ! ) e 8 8 +.b q 5.0 e 1 ! ! ! ~ ) _.X >         ",
"          Z <.6.{ { { { [ 3 | 6.6.| ! ! ! ~ ! 7.{ { { f ! ~ ! ! ! ~ 8.[ { { 9.;.! ! ! ! ! ! | 6.6.| ~ ! 0.{ { { 6.<.Z           ",
"                    W 4 ,.5 X ` W - 3 _._._ | # 4 W 2./.;._ _._._._ { > 4 4 Z ]._ _._._._.3 - W ` $ _ } /.2.                    ",
"                    . . B , ; < . Z #.#.#.a.& 2.. . . b.& a.#.#.#.~.|.B . . [.}.~.#.#.#.#.#.Z . <  .a.& W .                     ",
"                                                                                                                                "};
