/* XPM */
static char * collectible_xpm[] = {
"64 64 690 2",
"  	c None",
". 	c #77A058",
"+ 	c #76A058",
"@ 	c #7BA359",
"# 	c #8DB05D",
"$ 	c #94B55F",
"% 	c #93B55E",
"& 	c #8AAE5C",
"* 	c #79A258",
"= 	c #93B55F",
"- 	c #92B45E",
"; 	c #83A95B",
"> 	c #84AA5B",
", 	c #86AB5B",
"' 	c #9DBD61",
") 	c #A5C363",
"! 	c #A4C263",
"~ 	c #A5C263",
"{ 	c #9BBB60",
"] 	c #89AD5C",
"^ 	c #85AB5B",
"/ 	c #8BAE5C",
"( 	c #9EBD61",
"_ 	c #A3C163",
": 	c #81A75A",
"< 	c #78A158",
"[ 	c #9CBC61",
"} 	c #A1BF62",
"| 	c #A0BF62",
"1 	c #A5C364",
"2 	c #A6C364",
"3 	c #A2C062",
"4 	c #7EA559",
"5 	c #9ABA60",
"6 	c #A3C263",
"7 	c #AFC968",
"8 	c #B2CB69",
"9 	c #A8C465",
"0 	c #B3CB6A",
"a 	c #ADC867",
"b 	c #ABC666",
"c 	c #B6CD6B",
"d 	c #B7CE6C",
"e 	c #AEC868",
"f 	c #9FBE62",
"g 	c #97B860",
"h 	c #96B75F",
"i 	c #88AC5C",
"j 	c #ACC767",
"k 	c #A6C464",
"l 	c #A8C565",
"m 	c #AEC968",
"n 	c #B9D06D",
"o 	c #BCD16E",
"p 	c #B0CA69",
"q 	c #A7C464",
"r 	c #AEC867",
"s 	c #A9C565",
"t 	c #AAC566",
"u 	c #BBD16E",
"v 	c #B8CF6C",
"w 	c #AAC666",
"x 	c #B5CD6B",
"y 	c #BFD470",
"z 	c #C1D470",
"A 	c #C0D470",
"B 	c #7AA258",
"C 	c #98B960",
"D 	c #B1CA69",
"E 	c #BAD06D",
"F 	c #BDD26F",
"G 	c #BCD26E",
"H 	c #BED36F",
"I 	c #BDD26E",
"J 	c #B3CC6A",
"K 	c #B9CF6D",
"L 	c #ABC766",
"M 	c #B4CC6A",
"N 	c #ADC767",
"O 	c #B2CB6A",
"P 	c #93B45E",
"Q 	c #BFD370",
"R 	c #BBD06D",
"S 	c #BFD36F",
"T 	c #B9CF6C",
"U 	c #ACC766",
"V 	c #B6CE6B",
"W 	c #7FA65A",
"X 	c #95B65F",
"Y 	c #B0C968",
"Z 	c #E3DCCE",
"` 	c #82A85A",
" .	c #80A75A",
"..	c #D1C0B0",
"+.	c #D0C0B0",
"@.	c #83A95A",
"#.	c #BFA28C",
"$.	c #BEA08A",
"%.	c #BEA18B",
"&.	c #7CA459",
"*.	c #B2CA69",
"=.	c #BA9878",
"-.	c #B89675",
";.	c #B99777",
">.	c #8FB25D",
",.	c #8BAF5C",
"'.	c #D4C4AE",
").	c #CEBB9D",
"!.	c #C9B38E",
"~.	c #C7AF87",
"{.	c #C6AE85",
"].	c #C7AF86",
"^.	c #C7AF85",
"/.	c #C6AE84",
"(.	c #BED26F",
"_.	c #C1D570",
":.	c #8FB15D",
"<.	c #90B25E",
"[.	c #C1D571",
"}.	c #B4CC6B",
"|.	c #CDBAA3",
"1.	c #D0BEA0",
"2.	c #D5C5A0",
"3.	c #D9CBA1",
"4.	c #DACEA1",
"5.	c #DBCFA1",
"6.	c #DBCEA1",
"7.	c #DACEA0",
"8.	c #DBCEA0",
"9.	c #A1C062",
"0.	c #CFBC97",
"a.	c #DCD1A6",
"b.	c #E6E0B1",
"c.	c #EBE6B6",
"d.	c #EBE7B7",
"e.	c #EBE6B7",
"f.	c #EBE6B8",
"g.	c #EBE7B8",
"h.	c #E6E0B2",
"i.	c #9EBD62",
"j.	c #CFBDA7",
"k.	c #C7AF91",
"l.	c #C9B28D",
"m.	c #D5C59A",
"n.	c #E3DBAC",
"o.	c #EEEAB9",
"p.	c #F2F0BF",
"q.	c #F3F1C0",
"r.	c #F2EFC0",
"s.	c #F2EFC1",
"t.	c #F2EFC3",
"u.	c #F2F0C5",
"v.	c #F2F1C7",
"w.	c #F2F2C7",
"x.	c #F3F2C5",
"y.	c #F2F1C2",
"z.	c #EEEABA",
"A.	c #C6AF92",
"B.	c #CDBCA7",
"C.	c #84A95B",
"D.	c #D2C2AC",
"E.	c #D0BEA1",
"F.	c #D1BF9A",
"G.	c #D6C79C",
"H.	c #DFD5A6",
"I.	c #E9E4B3",
"J.	c #F1EEBD",
"K.	c #F4F2C1",
"L.	c #F5F1C2",
"M.	c #F4F0C2",
"N.	c #F4EFC5",
"O.	c #F4F0CA",
"P.	c #F4F2CF",
"Q.	c #F4F4D2",
"R.	c #F4F5D1",
"S.	c #F5F5CD",
"T.	c #F4F4C7",
"U.	c #F1EFBF",
"V.	c #D5C79C",
"W.	c #CFBE9A",
"X.	c #CCBCA2",
"Y.	c #CCBFAD",
"Z.	c #A2C063",
"`.	c #B5CC6B",
" +	c #CBB79A",
".+	c #D4C49F",
"++	c #DDD2A7",
"@+	c #E4DDAE",
"#+	c #EAE5B5",
"$+	c #EFECBA",
"%+	c #F4F0C1",
"&+	c #F4EEC1",
"*+	c #F4ECC2",
"=+	c #F4EBC6",
"-+	c #F4EDCD",
";+	c #F4F0D5",
">+	c #F4F3D9",
",+	c #F4F4D8",
"'+	c #F4F3C9",
")+	c #F2F1C1",
"!+	c #EAE5B4",
"~+	c #E4DCAE",
"{+	c #DBD1A7",
"]+	c #CEC0A0",
"^+	c #C2B19B",
"/+	c #8FB25E",
"(+	c #CBB690",
"_+	c #D9CCA1",
":+	c #EEEBBB",
"<+	c #F1F0C0",
"[+	c #F3F1C3",
"}+	c #F3EFC3",
"|+	c #F3ECC2",
"1+	c #F3E9C3",
"2+	c #F3E8C6",
"3+	c #F3EACE",
"4+	c #F3EED7",
"5+	c #F3F1DC",
"6+	c #F3F2DA",
"7+	c #F3F3D3",
"8+	c #F3F2CA",
"9+	c #F3F1C2",
"0+	c #F2F1BF",
"a+	c #F2F0BD",
"b+	c #EEEBBA",
"c+	c #E4DEB1",
"d+	c #D2C6A1",
"e+	c #BFAB8F",
"f+	c #D3C3AC",
"g+	c #CCB79A",
"h+	c #D3C398",
"i+	c #E0D7A8",
"j+	c #ECE8B7",
"k+	c #F4F4CA",
"l+	c #F3F2CB",
"m+	c #F3EFCA",
"n+	c #F3EBC7",
"o+	c #F3E8C4",
"p+	c #F3E7C6",
"q+	c #F3E8CC",
"r+	c #F3EBD4",
"s+	c #F3EED8",
"t+	c #F3F0D7",
"u+	c #F3F1D0",
"v+	c #F3F1C8",
"w+	c #F3F2C2",
"x+	c #F4F3C1",
"y+	c #F4F4C1",
"z+	c #E9E5B6",
"A+	c #DACFA5",
"B+	c #C8B492",
"C+	c #BBA189",
"D+	c #BDA594",
"E+	c #C7B7A9",
"F+	c #D0BEA8",
"G+	c #D1C0A2",
"H+	c #D4C5A0",
"I+	c #E9E3B2",
"J+	c #EFEDBB",
"K+	c #F3F2C4",
"L+	c #F4F4CB",
"M+	c #F4F4D1",
"N+	c #F3F2D4",
"O+	c #F3EFD2",
"P+	c #F3EBCC",
"Q+	c #F3E8C7",
"R+	c #F3E6C5",
"S+	c #F3E7C8",
"T+	c #F3E8CD",
"U+	c #F3EBD0",
"V+	c #F3EDCF",
"W+	c #F3EFCB",
"X+	c #F3F0C5",
"Y+	c #F3F2C0",
"Z+	c #EDE9B9",
"`+	c #E3D8AC",
" @	c #D6C49D",
".@	c #CCB393",
"+@	c #C6AC93",
"@@	c #C3AD9B",
"#@	c #C4B3A5",
"$@	c #C5AD8F",
"%@	c #D0BD99",
"&@	c #DCD1A7",
"*@	c #EFEDBC",
"=@	c #F2F0C0",
"-@	c #F3F2C7",
";@	c #F3F3D0",
">@	c #F3F4D8",
",@	c #F3F3DC",
"'@	c #F3F0DA",
")@	c #F3ECD2",
"!@	c #F3E9CA",
"~@	c #F3E7C7",
"{@	c #F3E8C8",
"]@	c #F3EAC7",
"^@	c #F3EDC5",
"/@	c #F3F0C2",
"(@	c #F3F1C1",
"_@	c #F3F3C0",
":@	c #F3F1BF",
"<@	c #F0EBBB",
"[@	c #EAE0B2",
"}@	c #E4D2A8",
"|@	c #DBC39E",
"1@	c #CFB495",
"2@	c #C0A48C",
"3@	c #B59A8B",
"4@	c #CAB5A3",
"5@	c #BEA17E",
"6@	c #CFBC92",
"7@	c #E1D8AA",
"8@	c #EDEABA",
"9@	c #F3F3C4",
"0@	c #F3F3CD",
"a@	c #F3F3D5",
"b@	c #F3F4DD",
"c@	c #F3F3E1",
"d@	c #F3F1DF",
"e@	c #F3EAD0",
"f@	c #F3E8CA",
"g@	c #F3E7C5",
"h@	c #F3E8C3",
"i@	c #F3EAC2",
"j@	c #F3EDC1",
"k@	c #F3EFC1",
"l@	c #F1ECBC",
"m@	c #EFE4B6",
"n@	c #EBDAAE",
"o@	c #E3CCA4",
"p@	c #D3B895",
"q@	c #BD9D83",
"r@	c #AB8878",
"s@	c #BEAEA5",
"t@	c #DCD2C4",
"u@	c #C8B2A1",
"v@	c #B8957C",
"w@	c #BB9B77",
"x@	c #CEBA8F",
"y@	c #E2D9AB",
"z@	c #EFEDBE",
"A@	c #F5F5CC",
"B@	c #F3F4D0",
"C@	c #F3F4DC",
"D@	c #F3F4E2",
"E@	c #F3F3E4",
"F@	c #F3F2E3",
"G@	c #F3F0DE",
"H@	c #F3EDD8",
"I@	c #F3EBC3",
"J@	c #F3ECC1",
"K@	c #F3EEC0",
"L@	c #F3F0C0",
"M@	c #F2EDBC",
"N@	c #F0E6B7",
"O@	c #EDDCB0",
"P@	c #E5CEA5",
"Q@	c #D4B895",
"R@	c #BC9A7F",
"S@	c #A68170",
"T@	c #A4867D",
"U@	c #BCABA3",
"V@	c #D6CFC5",
"W@	c #B9977D",
"X@	c #BC9D78",
"Y@	c #CEBB8F",
"Z@	c #F5F5D2",
"`@	c #F3F4E4",
" #	c #F3F4E6",
".#	c #F3F3E5",
"+#	c #F3F0DF",
"@#	c #F3EFDA",
"##	c #F3EFD3",
"$#	c #F3EECB",
"%#	c #F3EEC4",
"&#	c #F3EFC0",
"*#	c #F3F0BF",
"=#	c #EDDCAF",
"-#	c #D4B995",
";#	c #BD9B7F",
">#	c #A78271",
",#	c #A5877E",
"'#	c #DBD0C0",
")#	c #CAB5A2",
"!#	c #BEA084",
"~#	c #C2A681",
"{#	c #D2C094",
"]#	c #EFECBF",
"^#	c #F3F3CB",
"/#	c #F4F4D5",
"(#	c #F3F3E2",
"_#	c #F3F2DE",
":#	c #F3F2D6",
"<#	c #F3F1CD",
"[#	c #F3F1C5",
"}#	c #F1EDBC",
"|#	c #F0E5B6",
"1#	c #ECDBAF",
"2#	c #D6BA96",
"3#	c #C1A184",
"4#	c #AE8C78",
"5#	c #AC8F83",
"6#	c #BEACA2",
"7#	c #D4CBC0",
"8#	c #D7CAB6",
"9#	c #CEBBA2",
"0#	c #C8B190",
"a#	c #CDB990",
"b#	c #D9CC9F",
"c#	c #E7E0B1",
"d#	c #F0EDBF",
"e#	c #F4F2D3",
"f#	c #F3F1DA",
"g#	c #F3F4E5",
"h#	c #F3F4E3",
"i#	c #F3F4E0",
"j#	c #F3F3DB",
"k#	c #F3F2BF",
"l#	c #F3F3C1",
"m#	c #EFE5B6",
"n#	c #E5CFA6",
"o#	c #DABF9A",
"p#	c #CAAC8C",
"q#	c #BC9C83",
"r#	c #B89C89",
"s#	c #C1AD9E",
"t#	c #CEC2B5",
"u#	c #D2C1A7",
"v#	c #D2C2A1",
"w#	c #D5C79F",
"x#	c #DBCFA3",
"y#	c #E3DCAC",
"z#	c #F1EFC0",
"A#	c #F3F0C7",
"B#	c #F4EFCD",
"C#	c #F3EDD3",
"D#	c #F3EFDE",
"E#	c #F3F1E3",
"F#	c #F3F4DF",
"G#	c #F3F3D9",
"H#	c #F3F3C7",
"I#	c #F3F2C3",
"J#	c #E7D0A7",
"K#	c #DFC59F",
"L#	c #CDB090",
"M#	c #C7AC91",
"N#	c #C5AD99",
"O#	c #C5B3A3",
"P#	c #8CAF5D",
"Q#	c #CCB797",
"R#	c #D7C9A1",
"S#	c #E1D8AC",
"T#	c #E8E3B3",
"U#	c #EDE9B8",
"V#	c #F0EEBC",
"W#	c #F3EDC6",
"X#	c #F3EBCA",
"Y#	c #F3F3CA",
"Z#	c #F3F2C6",
"`#	c #F3F2C1",
" $	c #ECDAAE",
".$	c #E8D1A8",
"+$	c #E5CBA3",
"@$	c #E1C69F",
"#$	c #DCC19C",
"$$	c #D4BA98",
"%$	c #C8AE93",
"&$	c #BCA28F",
"*$	c #C6B08B",
"=$	c #E8E3B4",
"-$	c #F0EEBD",
";$	c #F3EAC4",
">$	c #F3EAC9",
",$	c #F2EEBD",
"'$	c #F0E9B9",
")$	c #EEE1B4",
"!$	c #EBD9AD",
"~$	c #E9D2A8",
"{$	c #E8CFA6",
"]$	c #E7CEA5",
"^$	c #DCC29D",
"/$	c #CBAE8F",
"($	c #B6967F",
"_$	c #E1DBCE",
":$	c #CDBEB0",
"<$	c #B89D8B",
"[$	c #B29277",
"}$	c #C2AB86",
"|$	c #D8CDA1",
"1$	c #EAE6B7",
"2$	c #F5F5C2",
"3$	c #F3EDC0",
"4$	c #F3EBC1",
"5$	c #F3ECC5",
"6$	c #F3EECC",
"7$	c #F3F0D3",
"8$	c #F2EFBD",
"9$	c #F1ECBB",
"0$	c #F0E8B8",
"a$	c #EEE3B5",
"b$	c #ECDCB0",
"c$	c #EAD6AB",
"d$	c #E9D1A8",
"e$	c #E9D0A7",
"f$	c #EAD1A7",
"g$	c #CCAE8D",
"h$	c #B49179",
"i$	c #A48073",
"j$	c #AD948C",
"k$	c #C7BBB1",
"l$	c #DFDACF",
"m$	c #E0DBCE",
"n$	c #CABCB0",
"o$	c #B4998C",
"p$	c #AD8E77",
"q$	c #BEA986",
"r$	c #D6CCA1",
"s$	c #F3EEC3",
"t$	c #F3EFC7",
"u$	c #F3F1CB",
"v$	c #F3F2CD",
"w$	c #F2F0BE",
"x$	c #EFE6B7",
"y$	c #EDE0B3",
"z$	c #EAD6AC",
"A$	c #E9D3A9",
"B$	c #E8D0A7",
"C$	c #B39179",
"D$	c #A48072",
"E$	c #C8BBB1",
"F$	c #B1988E",
"G$	c #AA8D7A",
"H$	c #BBA788",
"I$	c #D5CBA2",
"J$	c #F5F4C1",
"K$	c #F2EFBE",
"L$	c #EEE1B3",
"M$	c #EBD9AE",
"N$	c #E9D4AA",
"O$	c #DEC49E",
"P$	c #CBAE8D",
"Q$	c #B4927A",
"R$	c #A58275",
"S$	c #AE968D",
"T$	c #C7BBB2",
"U$	c #C7BAB1",
"V$	c #AF978E",
"W$	c #A78B7B",
"X$	c #BAA688",
"Y$	c #D4CAA2",
"Z$	c #E8E5B6",
"`$	c #F0E8B9",
" %	c #EDDFB2",
".%	c #E9D1A7",
"+%	c #CBAE8E",
"@%	c #AE968E",
"#%	c #B9A688",
"$%	c #EDDEB1",
"%%	c #EAD5AA",
"&%	c #E8CEA5",
"*%	c #81A85A",
"=%	c #E8CEA6",
"-%	c #AE978E",
";%	c #EFE5B7",
">%	c #ECDDB0",
",%	c #98B860",
"'%	c #87AB5B",
")%	c #8EB15D",
"!%	c #F1EBBA",
"~%	c #F0EABA",
"{%	c #EEE4B5",
"]%	c #EAD7AC",
"^%	c #83A85A",
"/%	c #A78A7A",
"(%	c #F5F4C2",
"_%	c #EFE7B8",
":%	c #EBD8AC",
"<%	c #DFC49E",
"[%	c #A58274",
"}%	c #DEDACF",
"|%	c #C6BAB1",
"1%	c #AD958C",
"2%	c #A68878",
"3%	c #B9A587",
"4%	c #EDE0B2",
"5%	c #EAD1A8",
"6%	c #B39178",
"7%	c #A37F72",
"8%	c #A78A79",
"9%	c #E9E5B7",
"0%	c #ECDDB1",
"a%	c #EBD8AD",
"b%	c #EAD4AA",
"c%	c #E7CEA6",
"d%	c #DFC59E",
"e%	c #A48174",
"f%	c #AE958D",
"g%	c #BCAA8E",
"h%	c #D2C8A2",
"i%	c #E5E0B3",
"j%	c #F1F0BE",
"k%	c #ECDEB1",
"l%	c #E8D0A6",
"m%	c #E7CDA5",
"n%	c #E3CAA2",
"o%	c #DBC19C",
"p%	c #CAAE8F",
"q%	c #B79882",
"r%	c #A2C163",
"s%	c #C2B29B",
"t%	c #CDC2A1",
"u%	c #D9D1A9",
"v%	c #E2DCB0",
"w%	c #EEECBC",
"x%	c #F4F2C0",
"y%	c #F0E7B8",
"z%	c #EAD3A9",
"A%	c #E9CFA6",
"B%	c #E4CAA2",
"C%	c #D8BD99",
"D%	c #D1B696",
"E%	c #C7AD93",
"F%	c #BEA693",
"G%	c #91B35E",
"H%	c #C9BDAC",
"I%	c #C7B9A1",
"J%	c #C8BA9B",
"K%	c #D0C49E",
"L%	c #DCD5AA",
"M%	c #F4F3C0",
"N%	c #F3EFBE",
"O%	c #F1EBBB",
"P%	c #F0E5B7",
"Q%	c #EEE0B3",
"R%	c #EBD6AB",
"S%	c #EAD2A8",
"T%	c #E9D0A6",
"U%	c #D3B793",
"V%	c #C8AA8B",
"W%	c #C2A68D",
"X%	c #C3AC99",
"Y%	c #C7B6A7",
"Z%	c #97B85F",
"`%	c #D1C7BA",
" &	c #C2B3A4",
".&	c #B9A590",
"+&	c #BFAD90",
"@&	c #F1EFBE",
"#&	c #EBDCB0",
"$&	c #E8D3A9",
"%&	c #E7CFA6",
"&&	c #B99A82",
"*&	c #B69A89",
"=&	c #C0ADA0",
"-&	c #D0C5B8",
";&	c #79A158",
">&	c #85AA5B",
",&	c #E8E3B5",
"'&	c #E6DDB1",
")&	c #E4D5AB",
"!&	c #E1CDA5",
"~&	c #DFC7A1",
"{&	c #87AC5B",
"]&	c #99B960",
"^&	c #D3C8A0",
"/&	c #D2C39D",
"(&	c #CDB492",
"_&	c #CCAF8E",
":&	c #CBAD8D",
"<&	c #BAA789",
"[&	c #B8A185",
"}&	c #B79C81",
"|&	c #B5967D",
"1&	c #B4927B",
"2&	c #B4917A",
"3&	c #A78979",
"4&	c #A68678",
"5&	c #A58476",
"6&	c #A58375",
"7&	c #7FA659",
"8&	c #99BA60",
"9&	c #7AA359",
"0&	c #B0CA68",
"a&	c #9BBB61",
"b&	c #9EBE61",
"c&	c #A2C162",
"d&	c #9CBB61",
"e&	c #9FBE61",
"f&	c #8BAF5D",
"g&	c #80A65A",
"                                                                                                                                ",
"                    . + @ # $ % % % % % % % % $ & * . + @ # $ % % % = - ; + * & $ % % % % % % % % $ # @ + .                     ",
"          @ > , , , , , & ' ) ! ! ! ! ! ! ! ! ~ { ] , ^ / ( ) ! ! ! ! _ % ^ ] { ! ! ! ! ! ! ! ! ! ) ' & , , , , : < .           ",
"          , [ } | | | | } _ ! ! ! ! ! ! 1 1 ! ! _ | | | } _ ! ! 2 ) ! ! 3 | | _ ~ 2 2 2 2 2 ) ! ! ! _ } | | | | $ 4 @           ",
"        ] 5 _ ) ~ ~ ~ ! ! ! ! ! ! ! 6 ! 7 8 2 6 ! ! ! ! ! ! 6 9 0 a ! ! ! ! ! ! b c d d d d e ! ! ! ! ~ ~ ~ ~ ) f g h &         ",
"      i 5 ! ! ! ! ! ! 9 j k l e 7 m e 7 n o p e 7 a q 9 r e s t u v j 1 w e e e x y z A A A 0 2 j s ! ! ! ! ! ! ! ! ! % B       ",
"      C 3 ! ! ! ! ! 2 D E r D F G F H H y A H I I o e p F H J j o A K L x H H G F A A A A A M N E O q q ) ) k ) ! ! ! P B       ",
"      , C ! ! ! ! 2 8 o Q R o F D d A A A A Q M M H u u A A I E S z S E F z Q M M S A A A A o E S o T d U b x b ! ! ! - *       ",
"      < - ! ! 6 q p o z A A z F J v A A A A Q x x S z A A A A A A E v S A A S x x Q A A A A A A A A z A V x H c b ! ! 5 &       ",
"    * W X ! ! 2 Y F A A A A A A Q y A A A A A y y A A A Z Z A A A M Z Z A A A y y A A A A A A A A A A A y y A y d s ) ! [ `     ",
"  .  .h } ! 1 8 o A A A A A A A A A A A A A A A A A A ..+.............+...A A A A A A A A A A A A A A A A A A A H v w ! ( @..   ",
"  + ` ( ) ! ! a v Q A A A A A A A A A A A A A A A A A #.$.%.#.#.#.#.%.$.#.A A A A A A A A A E c H A A A A A A A z F j ! } % @.  ",
"  &.] f ! 1 s w *.H A A A A A A A A A A A A A A A A A =.-.;.=.=.=.=.;.-.=.A A A A A A A A A x 7 I A A A A H o H z F U 6 ! _ >.  ",
"  ,.( _ ! w K o I A A A A A A A A A A A A A A A '.).!.~.{.].~.].].].^./.].!.).'.A A A A A A (.G Q A A A A K e K _.F j ! ! _ :.  ",
"  <.! ! 6 j F [.z A A A A A A (.}.T A A A A A |.1.2.3.4.5.6.4.4.7.7.8.6.4.3.2.1.|.A A A A A A A A A A A A o x o A S d a 9.P @.  ",
"  >.6 ! 6 U I G o y A A A A A I p c A A A A A A 0.a.b.c.d.c.c.e.e.f.f.g.c.h.a.0.A A A A A A A A A A A A A A A A A Q u D i.` .   ",
"  >.6 ! ! a o 0 D H A A A A A y F H A A A j.k.l.m.n.o.p.q.r.s.t.u.v.w.x.y.z.n.m.l.A.B.A A A A A A A A A A A A A A F Y q ( C.<   ",
"  >._ ~ r v H n v Q A A A A A A A A A A D.E.F.G.H.I.J.K.L.M.N.O.P.Q.R.S.T.U.I.H.V.W.X.Y.A A A A A A A A A A A A A S v r Z.g ,   ",
"  >._ ) `.A A A A A A A A A A A A A A A  +.+++@+#+$+p.%+&+*+=+-+;+>+,+Q.'+)+$+!+~+{+]+^+A A A A A A A A A A A A A A A }.) 6 /+  ",
"  >._ ) 0 S A A A A A A A A A A A A A A (+_+b.:+<+y.[+}+|+1+2+3+4+5+6+7+8+9+0+a+b+c+d+e+A A A A A A A A A A A A A A A M ) _ >.  ",
"  >._ ! s 0 H A A A A A A A A A A f+g+(+h+i+j+)+T.k+l+m+n+o+p+q+r+s+t+u+v+w+x+y+p.z+A+B+C+D+E+A A A A A A A A A A A A M ) _ >.  ",
"  >._ ! s J F E K Q A A A A A A F+G+H+_+i+I+J+K+L+M+N+O+P+Q+R+S+T+U+V+W+X+w+x+y+Y+Z+`+ @.@+@@@#@A A A A A A A A A A A `.) _ >.  ",
"  >._ ) J Q S 8 D H A A A A A A $@%@&@b.j+*@=@-@;@>@,@'@)@!@R+R+~@{@]@^@/@(@_@x+:@<@[@}@|@1@2@3@A A y (.S A A A A A H O ) _ >.  ",
"  >._ ) }.A A u u y A A A A 4@A 5@6@7@8@)+9@-@0@a@b@c@d@s+e@f@p+g@h@i@j@k@q._@_@:@l@m@n@o@p@q@r@A s@u Y v A A A A H 8 l ! 6 >.  ",
"  , h Z.r v Q z A A A A S t@u@v@w@x@y@z@T.A@B@a@C@D@E@F@G@H@)@P+]@I@J@K@L@q.Y+_@:@M@N@O@P@Q@R@S@T@U@V@0 E A A A o 0 9 ! 9.h ,   ",
"  < C.( ) L E S A A A A F t@u@W@X@Y@y@z@k+Z@>@b@D@`@ #.#F@+#@###$#%#&#*#q.Y+Y+_@:@M@N@=#P@-#;#>#,#U@V@y A A A A v w 1 ~ ( C.<   ",
"  . ` ( ! 1 L v A A A A y '#)#!#~#{#n.]#^#/#,@c@E@ # # #.#(#_#:#<#[#(@:@Y+Y+Y+_@:@}#|#1#P@2#3#4#5#6#7#A A A A A H v w ! ( ` .   ",
"  + ` ( ! 9 D u A A A A A 8#9#0#a#b#c#d#8+e#f#d@F@.# #g#h#i#j#7+^#K+Y+k#Y+Y+_@l#q.}#m#1#n#o#p#q#r#s#t#A A A A A o O 9 ! ( ` +   ",
"  &.& f ! L I A H u H A A u#v#w#x#y#d.z#A#B#C#s+D#E#.#h#F#G#7+0@H#I#Y+Y+Y+Y+_@l#Y+}#m#1#J#K#2#L#M#N#O#A A A A A c 2 ! ~ f & &.  ",
"  P#f _ ! j F _.K r K A A Q#R#S#T#U#V#=@}+W#X#U+H@+#(#i#G#;@Y#Z#I#`#Y+Y+Y+Y+Y+Y+:@l@m@ $.$+$@$#$$$%$&$A A A A A V 2 ! ! _ f P#  ",
"  <.! ) a d S A o c o A A *$_+=$-$k#Y+q.k@|+;$>$)@'@_#j#7+Y#I#`#Y+Y+Y+Y+Y+Y+:@p.,$'$)$!$~${$]$+$^$/$($A A A A A o J l ! ! ! <.  ",
"  >._ ) }.A A A A _$:$<$[$}$|$1$Y+2$x+q.&#3$4$5$6$7$:#7+0@Z#`#k#k#Y+Y+Y+Y+:@8$9$0$a$b$c$d$e$f${$K#g$h$i$j$k$l$(.z F j 6 ! 6 >.  ",
"  >._ ) J Q A A A m$n$o$p$q$r$1$Y+2$x+Y+L@&#K@s$t$u$v$^#-@I#Y+k#k#Y+Y+Y+Y+w$9$x$y$1#z$A$B$e$f${$K#g$C$D$j$k$l$K _.F j 6 ! 6 >.  ",
"  <.! ~ w M H A A l$E$F$G$H$I$z+0+J$x+Y+q.q.q.(@[+K+x.K+I#`#Y+Y+Y+Y+Y+_@Y+K$'$L$M$N$d$B${$e$e$]$O$P$Q$R$S$T$l$I z F j 6 ! 6 >.  ",
"  i 5 3 6 L F A A A U$V$W$X$Y$Z$0+J$x+Y+Y+Y+Y+Y+Y+Y+Y+Y+Y+Y+Y+Y+Y+Y+Y+l#Y+K$`$ %c$B${${${$e$.%]$O$+%Q$R$@%T$A A z F j 6 ! 6 >.  ",
"  * ^ ( ! j F A A A U$@%W$#%Y$Z$0+J$x+Y+Y+Y+Y+Y+Y+k#k#k#Y+Y+Y+Y+Y+Y+Y+l#Y+K$`$$%%%{$&%&%{$e$.%]$O$+%Q$R$@%T$A A A u b 6 ! 6 >.  ",
"  + *%( ! j F z A A U$@%W$#%Y$Z$0+J$x+Y+Y+Y+Y+Y+Y+Y+Y+Y+Y+Y+Y+Y+Y+Y+Y+_@Y+K$0$$%%%B$&%=%{$e$.%]$O$+%Q$R$@%T$A A n a 2 ! ! ! /+  ",
"  : <.| ! s M G A Q U$-%W$X$Y$Z$0+J$x+Y+Y+Y+Y+Y+Y+Y+Y+Y+Y+Y+Y+Y+Y+Y+Y+:@w$l@;%>%%%B$=%{${$e$.%]$O$+%Q$R$@%T$A A E 7 2 ! 3 ,%'%  ",
"  )%3 ! ! ) w v A H U$-%W$X$Y$Z$0+J$x+Y+Y+Y+Y+Y+Y+Y+Y+Y+Y+Y+Y+Y+Y+Y+p.,$!%x$y$M$A$B$=%{${$e$.%]$O$+%Q$R$@%T$F Q A o e k ( > <   ",
"  /+! ! ! w d H A y U$-%W$X$Y$Z$0+J$x+Y+Y+Y+Y+Y+Y+Y+Y+Y+Y+Y+Y+_@_@Y+8$~%{%$%M$%%~${${${${$e$.%]$O$+%Q$R$@%T$7 E z y u D i.` .   ",
"  >._ ~ U c S A A A U$-%W$X$Y$Z$0+J$x+Y+Y+Y+Y+Y+Y+Y+Y+Y+Y+Y+Y+Y+Y+p.9$m#>%]%A$d$B${${${${$e$.%]$O$+%Q$R$@%T$J u A A A x 3 - ^%  ",
"  >._ ) D o y A A l$U$@%/%#%Y$z+0+(%x+Y+Y+Y+Y+Y+Y+Y+Y+Y+Y+Y+q.:@K$9$_% %:%~${${${${${${${$e$f$]$<%g$Q$[%S$T$l$A A A A M ) _ :.  ",
"  >._ ! q p (.A A }%|%1%2%3%Y$1$Y+2$y+Y+Y+Y+Y+Y+Y+Y+Y+Y+_@Y+:@,$~%m#4%n@N$B$&%&%{${${${${$e$5%{$K#g$6%7%j$U$l$A A A A M ) _ >.  ",
"  >._ ~ j d S A A l$U$S$8%#%Y$9%0+(%x+Y+Y+Y+Y+Y+Y+Y+Y+Y+_@Y+K$~%{%0%a%b%d${${${${${${${${$e$f$c%d%g$Q$e%f%T$l$A A H c j 9.= ;   ",
"  /+6 ) D o y A A A A A A g%h%i%:+j%0+Y+Y+Y+Y+Y+Y+Y+Y+Y+:@w$l@x$k%]%~$B$l%{${${${${${${${$]$m%n%o%p%q%A A A A A z F j ! ( ` .   ",
"  )%r%! 2 7 I A A A A A A s%t%u%v%z+w%0+x+y+x+x+x+x+x%:@K$9$y%L$ $z%e$A%A%e$e$e$e$e$e$e$]$B%<%C%D%E%F%Q A A A A A o L ! ( C.<   ",
"  ` G%| ! q 7 E A A A A A H%I%J%K%L%z+j%(%2$(%J$(%(%M%N%O%P%Q%1#R%S%e$T%e$e$.%.%.%f$5%f$m%<%U%V%W%X%Y%0 E A A A E 7 q ! 3 Z%,   ",
"  + ` ( ~ 2 N K A A A F E `% &.&+&K%v%:+0+Y+0+0+0+0+@&~%a$#&c$$&B$%&]$]$]$]$]$]$]$]${$c%n%C%V%&&*&=&-&Y T A A A K N 2 ! ! ! >.  ",
"  ;&>&( ! w K S A A A d a E A A .&J%u%i%9%1$z+z+9%z+,&'&)&!&~&K#O$O$O$O$O$O$O$O$O$<%K#d%o%D%W%*&A A y H S A A A S K w 6 ! 6 >.  ",
"  {&]&3 ! q e E A A A o v F A A  &I%t%h%Y$Y$Y$Y$Y$Y$^&/&0.(&_&:&:&P$+%+%+%+%+%+%+%g$g$g$p%E%X%=&A A A A A A A A E e q ! ! ! <.  ",
"  <.! ! ! 2 r E A A A A A A A H `%H%s%g%#%3%#%X$<&X$3%[&}&|&1&2&Q$Q$Q$Q$Q$Q$Q$Q$Q$Q$6%Q$q%F%Y%-&A A A A A A A A E r 2 ! 3 ]&i   ",
"  # } ! 6 b u A A A A A A A A G m x A A 8%2%/%W$W$W$/%3&4&5&6&R$R$R$R$R$R$R$R$R$R$[%7%e%A A A A A A A A A A A A A u b ! ( >&*   ",
"  7&# | ! j F z A A A A A A A S E o A A S$1%@%-%-%-%-%@%@%@%@%@%@%@%@%@%@%@%@%@%@%S$j$f%A A A A A A A A A A A A z F j ! ( ` .   ",
"  + ` ( ! s J x v Q A A A A A A A A A A U$|%U$U$U$U$U$U$T$T$T$T$T$T$T$T$T$T$T$T$T$T$U$T$A A A H d u A y K v Q A G M s ) ( ^%.   ",
"      ( ) ! 1 9 D H A A A F H A A A A A l$}%l$y y A A A A F H A A A A A A A Q A A l$l$l$A A A o e c A S 8 D H z d q ! r%8&      ",
"      ' ) ! ) 8 o y A A F D }.y A A A A A A A A A A A A F D x A A A A A A A A A A A A A A A A S u F A A o o y A c 1 ! Z%;       ",
"      )%[ ! ) e v A _.o M O T A A A A A A A A z o c I _.S x v A A z F c u _.A v v A A A A A A z z A A A _.[.A v r ) ! - ;&      ",
"      9&% ! ! ! j n o 0 s x u o Q (.G y A A A F M s x u o S A A A H c s O o E j N E Q A A A (.G y A S o u u n j ! ! ! P B       ",
"      * - _ ! ! 2 s t q ) l s a u `.7 G A A H 8 q ) 9 s N R A y S M l ) q t s 2 1 U E A y Q x 7 o A E j s t s 2 ! ! _ - B       ",
"        > X r%) ~ ! ! ! ~ ! 6 q 7 b q Y 8 8 D s ! ) ! ! 1 m 8 8 D w ! ~ ! ! ! ! ! ) e 8 8 *.b q 0&0 e 1 ! ! ! ~ ) r%X >         ",
"          ` Z%a&{ { { { [ 3 | a&a&| ! ! ! ~ ! b&{ { { f ! ~ ! ! ! ~ c&[ { { d&9.! ! ! ! ! ! | a&a&| ~ ! e&{ { { a&Z%`           ",
"                    W 4 C.5 X  .W - 3 r%r%_ | # 4 W 7&)%9._ r%r%r%_ { > 4 4 ` ,%_ r%r%r%r%3 - W  .$ _ } )%7&                    ",
"                    . . B , ; < . ` ,.,.,.f&& 7&. . . g&& f&,.,.,.P#{&B . . ;&>&P#,.,.,.,.,.` . < @.f&& W .                     ",
"                                                                                                                                "};
