/* XPM */
static char * collectible2_xpm[] = {
"64 64 251 2",
"  	c None",
". 	c #77A058",
"+ 	c #76A058",
"@ 	c #7BA359",
"# 	c #8DB05D",
"$ 	c #94B55F",
"% 	c #93B55E",
"& 	c #8AAE5C",
"* 	c #79A258",
"= 	c #93B55F",
"- 	c #92B45E",
"; 	c #83A95B",
"> 	c #84AA5B",
", 	c #86AB5B",
"' 	c #9DBD61",
") 	c #A5C363",
"! 	c #A4C263",
"~ 	c #A5C263",
"{ 	c #9BBB60",
"] 	c #89AD5C",
"^ 	c #85AB5B",
"/ 	c #8BAE5C",
"( 	c #9EBD61",
"_ 	c #A3C163",
": 	c #81A75A",
"< 	c #78A158",
"[ 	c #9CBC61",
"} 	c #A1BF62",
"| 	c #A0BF62",
"1 	c #A5C364",
"2 	c #A6C364",
"3 	c #A2C062",
"4 	c #7EA559",
"5 	c #9ABA60",
"6 	c #A3C263",
"7 	c #AFC968",
"8 	c #B2CB69",
"9 	c #A8C465",
"0 	c #B3CB6A",
"a 	c #ADC867",
"b 	c #ABC666",
"c 	c #B6CD6B",
"d 	c #B7CE6C",
"e 	c #AEC868",
"f 	c #9FBE62",
"g 	c #97B860",
"h 	c #96B75F",
"i 	c #88AC5C",
"j 	c #ACC767",
"k 	c #A6C464",
"l 	c #A8C565",
"m 	c #AEC968",
"n 	c #B9D06D",
"o 	c #BCD16E",
"p 	c #B0CA69",
"q 	c #A7C464",
"r 	c #AEC867",
"s 	c #A9C565",
"t 	c #AAC566",
"u 	c #BBD16E",
"v 	c #B8CF6C",
"w 	c #AAC666",
"x 	c #B5CD6B",
"y 	c #BFD470",
"z 	c #C1D470",
"A 	c #C0D470",
"B 	c #7AA258",
"C 	c #98B960",
"D 	c #B1CA69",
"E 	c #BAD06D",
"F 	c #BDD26F",
"G 	c #BCD26E",
"H 	c #BED36F",
"I 	c #BDD26E",
"J 	c #B3CC6A",
"K 	c #B9CF6D",
"L 	c #ABC766",
"M 	c #B4CC6A",
"N 	c #ADC767",
"O 	c #B2CB6A",
"P 	c #93B45E",
"Q 	c #BFD370",
"R 	c #BBD06D",
"S 	c #BFD36F",
"T 	c #B9CF6C",
"U 	c #ACC766",
"V 	c #B6CE6B",
"W 	c #7FA65A",
"X 	c #95B65F",
"Y 	c #B0C968",
"Z 	c #82A85A",
"` 	c #80A75A",
" .	c #83A95A",
"..	c #7CA459",
"+.	c #B2CA69",
"@.	c #8FB25D",
"#.	c #8BAF5C",
"$.	c #BED26F",
"%.	c #C1D570",
"&.	c #8FB15D",
"*.	c #90B25E",
"=.	c #C1D571",
"-.	c #B4CC6B",
";.	c #A1C062",
">.	c #9EBD62",
",.	c #84A95B",
"'.	c #A2C063",
").	c #B5CC6B",
"!.	c #8FB25E",
"~.	c #BACA6B",
"{.	c #BBCB6C",
"].	c #967D4C",
"^.	c #957A4B",
"/.	c #9D8E52",
"(.	c #9D8E53",
"_.	c #B9C76A",
":.	c #B2C367",
"<.	c #B3C468",
"[.	c #9E864E",
"}.	c #9E844D",
"|.	c #A28A51",
"1.	c #A38A51",
"2.	c #9E854D",
"3.	c #A28951",
"4.	c #A29253",
"5.	c #B9C86B",
"6.	c #B6C569",
"7.	c #AFC266",
"8.	c #C0D370",
"9.	c #977F4D",
"0.	c #967B4B",
"a.	c #BEA854",
"b.	c #BFA954",
"c.	c #C0AA55",
"d.	c #D4C169",
"e.	c #D3C068",
"f.	c #C1AC56",
"g.	c #D1BE66",
"h.	c #B9A353",
"i.	c #9E9053",
"j.	c #B7C669",
"k.	c #B4C468",
"l.	c #B7C569",
"m.	c #B8C66A",
"n.	c #A58F53",
"o.	c #A48C52",
"p.	c #A58D52",
"q.	c #C3AD59",
"r.	c #C3AE59",
"s.	c #C4AE59",
"t.	c #C9B564",
"u.	c #C9B664",
"v.	c #CAB664",
"w.	c #CDB963",
"x.	c #CCB862",
"y.	c #BCA551",
"z.	c #BEA753",
"A.	c #CEB963",
"B.	c #C9B562",
"C.	c #BFA958",
"D.	c #A99957",
"E.	c #BAC96B",
"F.	c #8CAF5D",
"G.	c #97804D",
"H.	c #D2BF68",
"I.	c #D3BF68",
"J.	c #B09643",
"K.	c #AD9344",
"L.	c #A08750",
"M.	c #9F9354",
"N.	c #97814D",
"O.	c #967B4C",
"P.	c #98814E",
"Q.	c #9F9254",
"R.	c #CEBA64",
"S.	c #D0BC65",
"T.	c #A78F53",
"U.	c #A68E53",
"V.	c #A68E52",
"W.	c #AA9045",
"X.	c #AA9047",
"Y.	c #AD9756",
"Z.	c #C6B261",
"`.	c #9D9153",
" +	c #D4C069",
".+	c #957B4B",
"++	c #9E854F",
"@+	c #D1BD66",
"#+	c #B8A252",
"$+	c #9E9254",
"%+	c #81A85A",
"&+	c #BAA350",
"*+	c #BBA550",
"=+	c #CFBB64",
"-+	c #CDBA63",
";+	c #A1884D",
">+	c #A78F50",
",+	c #CFBC64",
"'+	c #CCB861",
")+	c #BBA450",
"!+	c #B59E4F",
"~+	c #AF9543",
"{+	c #BDA652",
"]+	c #AB9145",
"^+	c #98B860",
"/+	c #87AB5B",
"(+	c #8EB15D",
"_+	c #9E9153",
":+	c #A49D58",
"<+	c #A29957",
"[+	c #A99046",
"}+	c #A98F45",
"|+	c #BCA550",
"1+	c #BCA552",
"2+	c #A89149",
"3+	c #A09856",
"4+	c #9E9655",
"5+	c #A6A65C",
"6+	c #83A85A",
"7+	c #B19744",
"8+	c #B29946",
"9+	c #A49E59",
"0+	c #A39B58",
"a+	c #A88F46",
"b+	c #A98F46",
"c+	c #B49D51",
"d+	c #B49D52",
"e+	c #B39C50",
"f+	c #AA9147",
"g+	c #B29C53",
"h+	c #A9A85D",
"i+	c #A2C163",
"j+	c #91B35E",
"k+	c #97B85F",
"l+	c #79A158",
"m+	c #85AA5B",
"n+	c #A59F59",
"o+	c #A49D59",
"p+	c #87AC5B",
"q+	c #99B960",
"r+	c #7FA659",
"s+	c #99BA60",
"t+	c #7AA359",
"u+	c #B0CA68",
"v+	c #9BBB61",
"w+	c #9EBE61",
"x+	c #A2C162",
"y+	c #9CBB61",
"z+	c #9FBE61",
"A+	c #8BAF5D",
"B+	c #80A65A",
"                                                                                                                                ",
"                    . + @ # $ % % % % % % % % $ & * . + @ # $ % % % = - ; + * & $ % % % % % % % % $ # @ + .                     ",
"          @ > , , , , , & ' ) ! ! ! ! ! ! ! ! ~ { ] , ^ / ( ) ! ! ! ! _ % ^ ] { ! ! ! ! ! ! ! ! ! ) ' & , , , , : < .           ",
"          , [ } | | | | } _ ! ! ! ! ! ! 1 1 ! ! _ | | | } _ ! ! 2 ) ! ! 3 | | _ ~ 2 2 2 2 2 ) ! ! ! _ } | | | | $ 4 @           ",
"        ] 5 _ ) ~ ~ ~ ! ! ! ! ! ! ! 6 ! 7 8 2 6 ! ! ! ! ! ! 6 9 0 a ! ! ! ! ! ! b c d d d d e ! ! ! ! ~ ~ ~ ~ ) f g h &         ",
"      i 5 ! ! ! ! ! ! 9 j k l e 7 m e 7 n o p e 7 a q 9 r e s t u v j 1 w e e e x y z A A A 0 2 j s ! ! ! ! ! ! ! ! ! % B       ",
"      C 3 ! ! ! ! ! 2 D E r D F G F H H y A H I I o e p F H J j o A K L x H H G F A A A A A M N E O q q ) ) k ) ! ! ! P B       ",
"      , C ! ! ! ! 2 8 o Q R o F D d A A A A Q M M H u u A A I E S z S E F z Q M M S A A A A o E S o T d U b x b ! ! ! - *       ",
"      < - ! ! 6 q p o z A A z F J v A A A A Q x x S z A A A A A A E v S A A S x x Q A A A A A A A A z A V x H c b ! ! 5 &       ",
"    * W X ! ! 2 Y F A A A A A A Q y A A A A A y y A A A A A A A A M 7 F A A A y y A A A A A A A A A A A y y A y d s ) ! [ Z     ",
"  . ` h } ! 1 8 o A A A A A A A A A A A A A A A A A A A A A A A A I u Q A A A A A A A A A A A A A A A A A A A A H v w ! (  ..   ",
"  + Z ( ) ! ! a v Q A A A A A A A A A A A A A A A A A A A A A A A A A A A A A A A A A A A A E c H A A A A A A A z F j ! } %  .  ",
"  ..] f ! 1 s w +.H A A A A A A A A A A A A A A A A A A A A A A A A A A A A A A A A A A A A x 7 I A A A A H o H z F U 6 ! _ @.  ",
"  #.( _ ! w K o I A A A A A A A A A A A A A A A A A A A A A A A A A A A A A A A A A A A A A $.G Q A A A A K e K %.F j ! ! _ &.  ",
"  *.! ! 6 j F =.z A A A A A A $.-.T A A A A A A A A A A A A A A A A A A A A A A A A A A A A A A A A A A A o x o A S d a ;.P  .  ",
"  @.6 ! 6 U I G o y A A A A A I p c A A A A A A A A A A A A A A A A A A A A A A A A A A A A A A A A A A A A A A A Q u D >.Z .   ",
"  @.6 ! ! a o 0 D H A A A A A y F H A A A A A A A A A A A A A A A A A A A A A A A A A A A A A A A A A A A A A A A F Y q ( ,.<   ",
"  @._ ~ r v H n v Q A A A A A A A A A A A A A A A A A A A A A A A A A A A A A A A A A A A A A A A A A A A A A A A S v r '.g ,   ",
"  @._ ) ).A A A A A A A A A A A A A A A A A A A A A A A A A A A A A A A A A A A A A A A A A A A A A A A A A A A A A A -.) 6 !.  ",
"  @._ ) 0 S A A A A A A A A A A A A A A A A A A A A A A A A A A A A A A A A A A A A A A A A A A A A A A A A A A A A A M ) _ @.  ",
"  @._ ! s 0 H A A A A A A A A A ~.~.~.~.~.~.~.~.~.~.~.~.~.~.~.~.~.~.~.~.~.~.~.~.~.~.~.~.~.~.~.{.A A A A A A A A A A A M ) _ @.  ",
"  @._ ! s J F E K Q A A A A A Q ].^.^.^.^.^.^.^.^.^.^.^.^.^.^.^.^.^.^.^.^.^.^.^.^.^.^.^.^.^.^./.A A A A A A A A A A A ).) _ @.  ",
"  @._ ) J Q S 8 D H A A A A A Q ].^.^.^.^.^.^.^.^.^.^.^.^.^.^.^.^.^.^.^.^.^.^.^.^.^.^.^.^.^.^.(.A A y $.S A A A A A H O ) _ @.  ",
"  @._ ) -.A A u u y A A A A A Q ].^.^.^.^.^.^.^.^.^.^.^.^.^.^.^.^.^.^.^.^.^.^.^.^.^.^.^.^.^.^.(.A A u Y v A A A A H 8 l ! 6 @.  ",
"  , h '.r v Q z A A A A _.:.<._.[.}.}.}.|.1.1.1.1.1.1.|.}.}.}.}.}.}.}.2.1.1.1.1.1.1.1.3.}.}.}.4.5.5.6.7.E A A A o 0 9 ! ;.h ,   ",
"  < ,.( ) L E S A A A 8.9.^.^.0.a.b.b.c.d.d.d.d.d.d.d.e.b.b.b.b.b.b.b.f.d.d.d.d.d.d.d.g.b.b.b.h.^.^.^.i.A A A A v w 1 ~ ( ,.<   ",
"  . Z ( ! 1 L v A A A 8.9.^.^.0.a.b.b.c.d.d.d.d.d.d.d.e.b.b.b.b.b.b.b.f.d.d.d.d.d.d.d.g.b.b.b.h.^.^.^.i.A A A A H v w ! ( Z .   ",
"  + Z ( ! 9 D u A A A 8.9.^.^.0.a.b.b.c.d.d.d.d.d.d.d.e.b.b.b.b.b.b.b.f.d.d.d.d.d.d.d.g.b.b.b.h.^.^.^.i.A A A A o O 9 ! ( Z +   ",
"  ..& f ! L I A j.k.l.m.n.o.o.p.q.r.r.s.t.u.u.v.w.w.w.x.y.y.y.y.y.y.y.z.A.w.w.w.u.u.u.B.r.r.r.C.o.o.o.D.m.m.m.E.c 2 ! ~ f & ..  ",
"  F.f _ ! j F %.G.^.^.0.H.d.d.d.d.d.d.I.0.^.^.0.J.J.J.J.J.J.J.J.J.J.J.J.J.J.J.K.^.^.^.L.d.d.d.d.d.d.d.v.^.^.^.M.V 2 ! ! _ f F.  ",
"  *.! ) a d S A N.^.^.0.H.d.d.d.d.d.d.I.O.^.^.0.J.J.J.J.J.J.J.J.J.J.J.J.J.J.J.K.^.^.^.L.d.d.d.d.d.d.d.v.^.^.^.M.o J l ! ! ! *.  ",
"  @._ ) -.A A A P.^.^.0.H.d.d.d.d.d.d.I.O.^.^.0.J.J.J.J.J.J.J.J.J.J.J.J.J.J.J.K.^.^.^.L.d.d.d.d.d.d.d.v.^.^.^.Q.z F j 6 ! 6 @.  ",
"  @._ ) J Q A A P.^.^.0.R.S.S.S.d.d.d.e.T.U.U.V.W.W.W.W.W.W.W.W.W.W.W.W.W.W.W.X.U.U.U.Y.d.d.d.e.S.S.S.Z.^.^.^.`.%.F j 6 ! 6 @.  ",
"  *.! ~ w M H A P.^.^.^.a.b.b.b. +d.d.d.d.d.d.H..+^.^.^.^.^.^.^.^.^.^.^.^.^.^.++d.d.d.d.d.d.d.@+b.b.b.#+^.^.^.$+z F j 6 ! 6 @.  ",
"  i 5 3 6 L F A P.^.^.^.a.b.b.b. +d.d.d.d.d.d.H.0.^.^.^.^.^.^.^.^.^.^.^.^.^.^.++d.d.d.d.d.d.d.@+b.b.b.#+^.^.^.M.z F j 6 ! 6 @.  ",
"  * ^ ( ! j F A P.^.^.^.a.b.b.b. +d.d.d.d.d.d.H.0.^.^.^.^.^.^.^.^.^.^.^.^.^.^.++d.d.d.d.d.d.d.@+b.b.b.#+^.^.^.M.A u b 6 ! 6 @.  ",
"  + %+( ! j F z P.^.^.^.&+*+*+y.=+=+=+=+=+=+=+-+;+;+;+;+;+;+;+;+;+;+;+;+;+;+;+>+,+=+=+=+=+=+=+'+)+*+*+!+^.^.^.M.n a 2 ! ! ! !.  ",
"  : *.| ! s M G P.^.^.^.~+J.J.J.b.b.b.b.b.b.b.b.b.b.b.b.b.b.b.b.b.b.b.b.b.b.b.b.b.b.b.b.b.b.b.{+J.J.J.]+^.^.^.M.E 7 2 ! 3 ^+/+  ",
"  (+3 ! ! ) w v P.^.^.^.~+J.J.J.b.b.b.b.b.b.b.b.b.b.b.b.b.b.b.b.b.b.b.b.b.b.b.b.b.b.b.b.b.b.b.{+J.J.J.]+^.^.^.Q.A o e k ( > <   ",
"  !.! ! ! w d H P.^.^.^.~+J.J.J.b.b.b.b.b.b.b.b.b.b.b.b.b.b.b.b.b.b.b.b.b.b.b.b.b.b.b.b.b.b.b.{+J.J.J.]+^.^.^._+z y u D >.Z .   ",
"  @._ ~ U c S A :+<+<+<+[+}+}+W.)+)+)+)+)+)+)+)+b.b.b.b.b.b.b.b.b.b.b.b.)+)+)+)+)+)+)+|+b.b.b.1+}+}+}+2+<+3+4+5+A A A x 3 - 6+  ",
"  @._ ) D o y A A A A 8.9.^.^.0.~+J.J.J.J.J.J.7+b.b.b.b.b.b.b.b.b.b.b.z.J.J.J.J.J.J.J.8+b.b.b.h.^.^.^.i.A A y A A A A M ) _ &.  ",
"  @._ ! q p $.A A A A 8.9.^.^.0.~+J.J.J.J.J.J.7+b.b.b.b.b.b.b.b.b.b.b.z.J.J.J.J.J.J.J.8+b.b.b.h.^.^.^.i.A A A A A A A M ) _ @.  ",
"  @._ ~ j d S A A A A 8.9.^.^.0.~+J.J.J.J.J.J.7+b.b.b.b.b.b.b.b.b.b.b.z.J.J.J.J.J.J.J.8+b.b.b.h.^.^.^.i.A A A A A H c j ;.= ;   ",
"  !.6 ) D o y A A A A A 9+0+0+0+a+}+}+}+}+}+}+b+c+d+d+d+d+d+d+d+d+d+d+e+}+}+}+}+}+}+}+f+d+d+d+g+0+0+0+h+A A A A z F j ! ( Z .   ",
"  (+i+! 2 7 I A A A A A A A A Q ].^.^.^.^.^.^.^.^.^.^.^.^.^.^.^.^.^.^.^.^.^.^.^.^.^.^.^.^.^.^.(.A A A Q A A A A A o L ! ( ,.<   ",
"  Z j+| ! q 7 E A A A A A A A Q ].^.^.^.^.^.^.^.^.^.^.^.^.^.^.^.^.^.^.^.^.^.^.^.^.^.^.^.^.^.^.(.A A o 0 E A A A E 7 q ! 3 k+,   ",
"  + Z ( ~ 2 N K A A A F E H A Q ].^.^.^.^.^.^.^.^.^.^.^.^.^.^.^.^.^.^.^.^.^.^.^.^.^.^.^.^.^.^.(.A A u Y T A A A K N 2 ! ! ! @.  ",
"  l+m+( ! w K S A A A d a E A 8.n+o+o+o+o+o+o+o+o+o+o+o+o+o+o+o+o+o+o+o+o+o+o+o+o+o+o+o+o+o+o+h+A A y H S A A A S K w 6 ! 6 @.  ",
"  p+q+3 ! q e E A A A o v F A A A A A A A A A A A A A A A A A A A A A A A A A A A A A A A A A A A A A A A A A A E e q ! ! ! *.  ",
"  *.! ! ! 2 r E A A A A A A A H K u A A A A A A A A A A A A A A A A A A A A A A A A A A A A A A A A A A A A A A E r 2 ! 3 q+i   ",
"  # } ! 6 b u A A A A A A A A G m x A A A A A H H A A A A A A A A A A A A Q H Q A A A A A A A A A A A A A A A A A u b ! ( m+*   ",
"  r+# | ! j F z A A A A A A A S E o A A A A S M J S A A A A A A A A A A A E p n A A A A A A A A A A A A A A A A z F j ! ( Z .   ",
"  + Z ( ! s J x v Q A A A A A A A A A A A A Q x x S A A A A A A A A A A A u O E A A A A A A A H d u A y K v Q A G M s ) ( 6+.   ",
"      ( ) ! 1 9 D H A A A F H A A A A A A A A y y A A A A F H A A A A A A A Q A A A A A A A A o e c A S 8 D H z d q ! i+s+      ",
"      ' ) ! ) 8 o y A A F D -.y A A A A A A A A A A A A F D x A A A A A A A A A A A A A A A A S u F A A o o y A c 1 ! k+;       ",
"      (+[ ! ) e v A %.o M O T A A A A A A A A z o c I %.S x v A A z F c u %.A v v A A A A A A z z A A A %.=.A v r ) ! - l+      ",
"      t+% ! ! ! j n o 0 s x u o Q $.G y A A A F M s x u o S A A A H c s O o E j N E Q A A A $.G y A S o u u n j ! ! ! P B       ",
"      * - _ ! ! 2 s t q ) l s a u ).7 G A A H 8 q ) 9 s N R A y S M l ) q t s 2 1 U E A y Q x 7 o A E j s t s 2 ! ! _ - B       ",
"        > X i+) ~ ! ! ! ~ ! 6 q 7 b q Y 8 8 D s ! ) ! ! 1 m 8 8 D w ! ~ ! ! ! ! ! ) e 8 8 +.b q u+0 e 1 ! ! ! ~ ) i+X >         ",
"          Z k+v+{ { { { [ 3 | v+v+| ! ! ! ~ ! w+{ { { f ! ~ ! ! ! ~ x+[ { { y+;.! ! ! ! ! ! | v+v+| ~ ! z+{ { { v+k+Z           ",
"                    W 4 ,.5 X ` W - 3 i+i+_ | # 4 W r+(+;._ i+i+i+_ { > 4 4 Z ^+_ i+i+i+i+3 - W ` $ _ } (+r+                    ",
"                    . . B , ; < . Z #.#.#.A+& r+. . . B+& A+#.#.#.F.p+B . . l+m+F.#.#.#.#.#.Z . <  .A+& W .                     ",
"                                                                                                                                "};
