/* XPM */
static char * collectible_xpm[] = {
"64 64 558 2",
"  	c None",
". 	c #E3DCCE",
"+ 	c #D1C0B0",
"@ 	c #D0C0B0",
"# 	c #BFA28C",
"$ 	c #BEA08A",
"% 	c #BEA18B",
"& 	c #BA9878",
"* 	c #B89675",
"= 	c #B99777",
"- 	c #D4C4AE",
"; 	c #CEBB9D",
"> 	c #C9B38E",
", 	c #C7AF87",
"' 	c #C6AE85",
") 	c #C7AF86",
"! 	c #C7AF85",
"~ 	c #C6AE84",
"{ 	c #CDBAA3",
"] 	c #D0BEA0",
"^ 	c #D5C5A0",
"/ 	c #D9CBA1",
"( 	c #DACEA1",
"_ 	c #DBCFA1",
": 	c #DBCEA1",
"< 	c #DACEA0",
"[ 	c #DBCEA0",
"} 	c #CFBC97",
"| 	c #DCD1A6",
"1 	c #E6E0B1",
"2 	c #EBE6B6",
"3 	c #EBE7B7",
"4 	c #EBE6B7",
"5 	c #EBE6B8",
"6 	c #EBE7B8",
"7 	c #E6E0B2",
"8 	c #CFBDA7",
"9 	c #C7AF91",
"0 	c #C9B28D",
"a 	c #D5C59A",
"b 	c #E3DBAC",
"c 	c #EEEAB9",
"d 	c #F2F0BF",
"e 	c #F3F1C0",
"f 	c #F2EFC0",
"g 	c #F2EFC1",
"h 	c #F2EFC3",
"i 	c #F2F0C5",
"j 	c #F2F1C7",
"k 	c #F2F2C7",
"l 	c #F3F2C5",
"m 	c #F2F1C2",
"n 	c #EEEABA",
"o 	c #C6AF92",
"p 	c #CDBCA7",
"q 	c #D2C2AC",
"r 	c #D0BEA1",
"s 	c #D1BF9A",
"t 	c #D6C79C",
"u 	c #DFD5A6",
"v 	c #E9E4B3",
"w 	c #F1EEBD",
"x 	c #F4F2C1",
"y 	c #F5F1C2",
"z 	c #F4F0C2",
"A 	c #F4EFC5",
"B 	c #F4F0CA",
"C 	c #F4F2CF",
"D 	c #F4F4D2",
"E 	c #F4F5D1",
"F 	c #F5F5CD",
"G 	c #F4F4C7",
"H 	c #F1EFBF",
"I 	c #D5C79C",
"J 	c #CFBE9A",
"K 	c #CCBCA2",
"L 	c #CCBFAD",
"M 	c #CBB79A",
"N 	c #D4C49F",
"O 	c #DDD2A7",
"P 	c #E4DDAE",
"Q 	c #EAE5B5",
"R 	c #EFECBA",
"S 	c #F4F0C1",
"T 	c #F4EEC1",
"U 	c #F4ECC2",
"V 	c #F4EBC6",
"W 	c #F4EDCD",
"X 	c #F4F0D5",
"Y 	c #F4F3D9",
"Z 	c #F4F4D8",
"` 	c #F4F3C9",
" .	c #F2F1C1",
"..	c #EAE5B4",
"+.	c #E4DCAE",
"@.	c #DBD1A7",
"#.	c #CEC0A0",
"$.	c #C2B19B",
"%.	c #CBB690",
"&.	c #D9CCA1",
"*.	c #EEEBBB",
"=.	c #F1F0C0",
"-.	c #F3F1C3",
";.	c #F3EFC3",
">.	c #F3ECC2",
",.	c #F3E9C3",
"'.	c #F3E8C6",
").	c #F3EACE",
"!.	c #F3EED7",
"~.	c #F3F1DC",
"{.	c #F3F2DA",
"].	c #F3F3D3",
"^.	c #F3F2CA",
"/.	c #F3F1C2",
"(.	c #F2F1BF",
"_.	c #F2F0BD",
":.	c #EEEBBA",
"<.	c #E4DEB1",
"[.	c #D2C6A1",
"}.	c #BFAB8F",
"|.	c #D3C3AC",
"1.	c #CCB79A",
"2.	c #D3C398",
"3.	c #E0D7A8",
"4.	c #ECE8B7",
"5.	c #F4F4CA",
"6.	c #F3F2CB",
"7.	c #F3EFCA",
"8.	c #F3EBC7",
"9.	c #F3E8C4",
"0.	c #F3E7C6",
"a.	c #F3E8CC",
"b.	c #F3EBD4",
"c.	c #F3EED8",
"d.	c #F3F0D7",
"e.	c #F3F1D0",
"f.	c #F3F1C8",
"g.	c #F3F2C2",
"h.	c #F4F3C1",
"i.	c #F4F4C1",
"j.	c #E9E5B6",
"k.	c #DACFA5",
"l.	c #C8B492",
"m.	c #BBA189",
"n.	c #BDA594",
"o.	c #C7B7A9",
"p.	c #D0BEA8",
"q.	c #D1C0A2",
"r.	c #D4C5A0",
"s.	c #E9E3B2",
"t.	c #EFEDBB",
"u.	c #F3F2C4",
"v.	c #F4F4CB",
"w.	c #F4F4D1",
"x.	c #F3F2D4",
"y.	c #F3EFD2",
"z.	c #F3EBCC",
"A.	c #F3E8C7",
"B.	c #F3E6C5",
"C.	c #F3E7C8",
"D.	c #F3E8CD",
"E.	c #F3EBD0",
"F.	c #F3EDCF",
"G.	c #F3EFCB",
"H.	c #F3F0C5",
"I.	c #F3F2C0",
"J.	c #EDE9B9",
"K.	c #E3D8AC",
"L.	c #D6C49D",
"M.	c #CCB393",
"N.	c #C6AC93",
"O.	c #C3AD9B",
"P.	c #C4B3A5",
"Q.	c #C5AD8F",
"R.	c #D0BD99",
"S.	c #DCD1A7",
"T.	c #EFEDBC",
"U.	c #F2F0C0",
"V.	c #F3F2C7",
"W.	c #F3F3D0",
"X.	c #F3F4D8",
"Y.	c #F3F3DC",
"Z.	c #F3F0DA",
"`.	c #F3ECD2",
" +	c #F3E9CA",
".+	c #F3E7C7",
"++	c #F3E8C8",
"@+	c #F3EAC7",
"#+	c #F3EDC5",
"$+	c #F3F0C2",
"%+	c #F3F1C1",
"&+	c #F3F3C0",
"*+	c #F3F1BF",
"=+	c #F0EBBB",
"-+	c #EAE0B2",
";+	c #E4D2A8",
">+	c #DBC39E",
",+	c #CFB495",
"'+	c #C0A48C",
")+	c #B59A8B",
"!+	c #CAB5A3",
"~+	c #BEA17E",
"{+	c #CFBC92",
"]+	c #E1D8AA",
"^+	c #EDEABA",
"/+	c #F3F3C4",
"(+	c #F3F3CD",
"_+	c #F3F3D5",
":+	c #F3F4DD",
"<+	c #F3F3E1",
"[+	c #F3F1DF",
"}+	c #F3EAD0",
"|+	c #F3E8CA",
"1+	c #F3E7C5",
"2+	c #F3E8C3",
"3+	c #F3EAC2",
"4+	c #F3EDC1",
"5+	c #F3EFC1",
"6+	c #F1ECBC",
"7+	c #EFE4B6",
"8+	c #EBDAAE",
"9+	c #E3CCA4",
"0+	c #D3B895",
"a+	c #BD9D83",
"b+	c #AB8878",
"c+	c #BEAEA5",
"d+	c #DCD2C4",
"e+	c #C8B2A1",
"f+	c #B8957C",
"g+	c #BB9B77",
"h+	c #CEBA8F",
"i+	c #E2D9AB",
"j+	c #EFEDBE",
"k+	c #F5F5CC",
"l+	c #F3F4D0",
"m+	c #F3F4DC",
"n+	c #F3F4E2",
"o+	c #F3F3E4",
"p+	c #F3F2E3",
"q+	c #F3F0DE",
"r+	c #F3EDD8",
"s+	c #F3EBC3",
"t+	c #F3ECC1",
"u+	c #F3EEC0",
"v+	c #F3F0C0",
"w+	c #F2EDBC",
"x+	c #F0E6B7",
"y+	c #EDDCB0",
"z+	c #E5CEA5",
"A+	c #D4B895",
"B+	c #BC9A7F",
"C+	c #A68170",
"D+	c #A4867D",
"E+	c #BCABA3",
"F+	c #D6CFC5",
"G+	c #B9977D",
"H+	c #BC9D78",
"I+	c #CEBB8F",
"J+	c #F5F5D2",
"K+	c #F3F4E4",
"L+	c #F3F4E6",
"M+	c #F3F3E5",
"N+	c #F3F0DF",
"O+	c #F3EFDA",
"P+	c #F3EFD3",
"Q+	c #F3EECB",
"R+	c #F3EEC4",
"S+	c #F3EFC0",
"T+	c #F3F0BF",
"U+	c #EDDCAF",
"V+	c #D4B995",
"W+	c #BD9B7F",
"X+	c #A78271",
"Y+	c #A5877E",
"Z+	c #DBD0C0",
"`+	c #CAB5A2",
" @	c #BEA084",
".@	c #C2A681",
"+@	c #D2C094",
"@@	c #EFECBF",
"#@	c #F3F3CB",
"$@	c #F4F4D5",
"%@	c #F3F3E2",
"&@	c #F3F2DE",
"*@	c #F3F2D6",
"=@	c #F3F1CD",
"-@	c #F3F1C5",
";@	c #F1EDBC",
">@	c #F0E5B6",
",@	c #ECDBAF",
"'@	c #D6BA96",
")@	c #C1A184",
"!@	c #AE8C78",
"~@	c #AC8F83",
"{@	c #BEACA2",
"]@	c #D4CBC0",
"^@	c #D7CAB6",
"/@	c #CEBBA2",
"(@	c #C8B190",
"_@	c #CDB990",
":@	c #D9CC9F",
"<@	c #E7E0B1",
"[@	c #F0EDBF",
"}@	c #F4F2D3",
"|@	c #F3F1DA",
"1@	c #F3F4E5",
"2@	c #F3F4E3",
"3@	c #F3F4E0",
"4@	c #F3F3DB",
"5@	c #F3F2BF",
"6@	c #F3F3C1",
"7@	c #EFE5B6",
"8@	c #E5CFA6",
"9@	c #DABF9A",
"0@	c #CAAC8C",
"a@	c #BC9C83",
"b@	c #B89C89",
"c@	c #C1AD9E",
"d@	c #CEC2B5",
"e@	c #D2C1A7",
"f@	c #D2C2A1",
"g@	c #D5C79F",
"h@	c #DBCFA3",
"i@	c #E3DCAC",
"j@	c #F1EFC0",
"k@	c #F3F0C7",
"l@	c #F4EFCD",
"m@	c #F3EDD3",
"n@	c #F3EFDE",
"o@	c #F3F1E3",
"p@	c #F3F4DF",
"q@	c #F3F3D9",
"r@	c #F3F3C7",
"s@	c #F3F2C3",
"t@	c #E7D0A7",
"u@	c #DFC59F",
"v@	c #CDB090",
"w@	c #C7AC91",
"x@	c #C5AD99",
"y@	c #C5B3A3",
"z@	c #CCB797",
"A@	c #D7C9A1",
"B@	c #E1D8AC",
"C@	c #E8E3B3",
"D@	c #EDE9B8",
"E@	c #F0EEBC",
"F@	c #F3EDC6",
"G@	c #F3EBCA",
"H@	c #F3F3CA",
"I@	c #F3F2C6",
"J@	c #F3F2C1",
"K@	c #ECDAAE",
"L@	c #E8D1A8",
"M@	c #E5CBA3",
"N@	c #E1C69F",
"O@	c #DCC19C",
"P@	c #D4BA98",
"Q@	c #C8AE93",
"R@	c #BCA28F",
"S@	c #C6B08B",
"T@	c #E8E3B4",
"U@	c #F0EEBD",
"V@	c #F3EAC4",
"W@	c #F3EAC9",
"X@	c #F2EEBD",
"Y@	c #F0E9B9",
"Z@	c #EEE1B4",
"`@	c #EBD9AD",
" #	c #E9D2A8",
".#	c #E8CFA6",
"+#	c #E7CEA5",
"@#	c #DCC29D",
"##	c #CBAE8F",
"$#	c #B6967F",
"%#	c #E1DBCE",
"&#	c #CDBEB0",
"*#	c #B89D8B",
"=#	c #B29277",
"-#	c #C2AB86",
";#	c #D8CDA1",
">#	c #EAE6B7",
",#	c #F5F5C2",
"'#	c #F3EDC0",
")#	c #F3EBC1",
"!#	c #F3ECC5",
"~#	c #F3EECC",
"{#	c #F3F0D3",
"]#	c #F2EFBD",
"^#	c #F1ECBB",
"/#	c #F0E8B8",
"(#	c #EEE3B5",
"_#	c #ECDCB0",
":#	c #EAD6AB",
"<#	c #E9D1A8",
"[#	c #E9D0A7",
"}#	c #EAD1A7",
"|#	c #CCAE8D",
"1#	c #B49179",
"2#	c #A48073",
"3#	c #AD948C",
"4#	c #C7BBB1",
"5#	c #DFDACF",
"6#	c #E0DBCE",
"7#	c #CABCB0",
"8#	c #B4998C",
"9#	c #AD8E77",
"0#	c #BEA986",
"a#	c #D6CCA1",
"b#	c #F3EEC3",
"c#	c #F3EFC7",
"d#	c #F3F1CB",
"e#	c #F3F2CD",
"f#	c #F2F0BE",
"g#	c #EFE6B7",
"h#	c #EDE0B3",
"i#	c #EAD6AC",
"j#	c #E9D3A9",
"k#	c #E8D0A7",
"l#	c #B39179",
"m#	c #A48072",
"n#	c #C8BBB1",
"o#	c #B1988E",
"p#	c #AA8D7A",
"q#	c #BBA788",
"r#	c #D5CBA2",
"s#	c #F5F4C1",
"t#	c #F2EFBE",
"u#	c #EEE1B3",
"v#	c #EBD9AE",
"w#	c #E9D4AA",
"x#	c #DEC49E",
"y#	c #CBAE8D",
"z#	c #B4927A",
"A#	c #A58275",
"B#	c #AE968D",
"C#	c #C7BBB2",
"D#	c #C7BAB1",
"E#	c #AF978E",
"F#	c #A78B7B",
"G#	c #BAA688",
"H#	c #D4CAA2",
"I#	c #E8E5B6",
"J#	c #F0E8B9",
"K#	c #EDDFB2",
"L#	c #E9D1A7",
"M#	c #CBAE8E",
"N#	c #AE968E",
"O#	c #B9A688",
"P#	c #EDDEB1",
"Q#	c #EAD5AA",
"R#	c #E8CEA5",
"S#	c #E8CEA6",
"T#	c #AE978E",
"U#	c #EFE5B7",
"V#	c #ECDDB0",
"W#	c #F1EBBA",
"X#	c #F0EABA",
"Y#	c #EEE4B5",
"Z#	c #EAD7AC",
"`#	c #A78A7A",
" $	c #F5F4C2",
".$	c #EFE7B8",
"+$	c #EBD8AC",
"@$	c #DFC49E",
"#$	c #A58274",
"$$	c #DEDACF",
"%$	c #C6BAB1",
"&$	c #AD958C",
"*$	c #A68878",
"=$	c #B9A587",
"-$	c #EDE0B2",
";$	c #EAD1A8",
">$	c #B39178",
",$	c #A37F72",
"'$	c #A78A79",
")$	c #E9E5B7",
"!$	c #ECDDB1",
"~$	c #EBD8AD",
"{$	c #EAD4AA",
"]$	c #E7CEA6",
"^$	c #DFC59E",
"/$	c #A48174",
"($	c #AE958D",
"_$	c #BCAA8E",
":$	c #D2C8A2",
"<$	c #E5E0B3",
"[$	c #F1F0BE",
"}$	c #ECDEB1",
"|$	c #E8D0A6",
"1$	c #E7CDA5",
"2$	c #E3CAA2",
"3$	c #DBC19C",
"4$	c #CAAE8F",
"5$	c #B79882",
"6$	c #C2B29B",
"7$	c #CDC2A1",
"8$	c #D9D1A9",
"9$	c #E2DCB0",
"0$	c #EEECBC",
"a$	c #F4F2C0",
"b$	c #F0E7B8",
"c$	c #EAD3A9",
"d$	c #E9CFA6",
"e$	c #E4CAA2",
"f$	c #D8BD99",
"g$	c #D1B696",
"h$	c #C7AD93",
"i$	c #BEA693",
"j$	c #C9BDAC",
"k$	c #C7B9A1",
"l$	c #C8BA9B",
"m$	c #D0C49E",
"n$	c #DCD5AA",
"o$	c #F4F3C0",
"p$	c #F3EFBE",
"q$	c #F1EBBB",
"r$	c #F0E5B7",
"s$	c #EEE0B3",
"t$	c #EBD6AB",
"u$	c #EAD2A8",
"v$	c #E9D0A6",
"w$	c #D3B793",
"x$	c #C8AA8B",
"y$	c #C2A68D",
"z$	c #C3AC99",
"A$	c #C7B6A7",
"B$	c #D1C7BA",
"C$	c #C2B3A4",
"D$	c #B9A590",
"E$	c #BFAD90",
"F$	c #F1EFBE",
"G$	c #EBDCB0",
"H$	c #E8D3A9",
"I$	c #E7CFA6",
"J$	c #B99A82",
"K$	c #B69A89",
"L$	c #C0ADA0",
"M$	c #D0C5B8",
"N$	c #E8E3B5",
"O$	c #E6DDB1",
"P$	c #E4D5AB",
"Q$	c #E1CDA5",
"R$	c #DFC7A1",
"S$	c #D3C8A0",
"T$	c #D2C39D",
"U$	c #CDB492",
"V$	c #CCAF8E",
"W$	c #CBAD8D",
"X$	c #BAA789",
"Y$	c #B8A185",
"Z$	c #B79C81",
"`$	c #B5967D",
" %	c #B4927B",
".%	c #B4917A",
"+%	c #A78979",
"@%	c #A68678",
"#%	c #A58476",
"$%	c #A58375",
"                                                                                                                                ",
"                                                                                                                                ",
"                                                                                                                                ",
"                                                                                                                                ",
"                                                                                                                                ",
"                                                                                                                                ",
"                                                                                                                                ",
"                                                                                                                                ",
"                                                                                                                                ",
"                                                        . .         . .                                                         ",
"                                                      + @ + + + + + + @ +                                                       ",
"                                                      # $ % # # # # % $ #                                                       ",
"                                                      & * = & & & & = * &                                                       ",
"                                                - ; > , ' ) , ) ) ) ! ~ ) > ; -                                                 ",
"                                              { ] ^ / ( _ : ( ( < < [ : ( / ^ ] {                                               ",
"                                                } | 1 2 3 2 2 4 4 5 5 6 2 7 | }                                                 ",
"                                          8 9 0 a b c d e f g h i j k l m n b a 0 o p                                           ",
"                                        q r s t u v w x y z A B C D E F G H v u I J K L                                         ",
"                                        M N O P Q R d S T U V W X Y Z D `  .R ..+.@.#.$.                                        ",
"                                        %.&.1 *.=.m -.;.>.,.'.).!.~.{.].^./.(._.:.<.[.}.                                        ",
"                                  |.1.%.2.3.4. .G 5.6.7.8.9.0.a.b.c.d.e.f.g.h.i.d j.k.l.m.n.o.                                  ",
"                                p.q.r.&.3.s.t.u.v.w.x.y.z.A.B.C.D.E.F.G.H.g.h.i.I.J.K.L.M.N.O.P.                                ",
"                                Q.R.S.1 4.T.U.V.W.X.Y.Z.`. +B.B..+++@+#+$+%+&+h.*+=+-+;+>+,+'+)+                                ",
"                            !+  ~+{+]+^+ ./+V.(+_+:+<+[+c.}+|+0.1+2+3+4+5+e &+&+*+6+7+8+9+0+a+b+  c+                            ",
"                          d+e+f+g+h+i+j+G k+l+_+m+n+o+p+q+r+`.z.@+s+t+u+v+e I.&+*+w+x+y+z+A+B+C+D+E+F+                          ",
"                          d+e+G+H+I+i+j+5.J+X.:+n+K+L+M+p+N+O+P+Q+R+S+T+e I.I.&+*+w+x+U+z+V+W+X+Y+E+F+                          ",
"                          Z+`+ @.@+@b @@#@$@Y.<+o+L+L+L+M+%@&@*@=@-@%+*+I.I.I.&+*+;@>@,@z+'@)@!@~@{@]@                          ",
"                          ^@/@(@_@:@<@[@^.}@|@[+p+M+L+1@2@3@4@].#@u.I.5@I.I.&+6@e ;@7@,@8@9@0@a@b@c@d@                          ",
"                          e@f@g@h@i@3 j@k@l@m@c.n@o@M+2@p@q@].(+r@s@I.I.I.I.&+6@I.;@7@,@t@u@'@v@w@x@y@                          ",
"                          z@A@B@C@D@E@U.;.F@G@E.r+N+%@3@q@W.H@I@s@J@I.I.I.I.I.I.*+6+7+K@L@M@N@O@P@Q@R@                          ",
"                          S@&.T@U@5@I.e 5+>.V@W@`.Z.&@4@].H@s@J@I.I.I.I.I.I.*+d X@Y@Z@`@ #.#+#M@@###$#                          ",
"                  %#&#*#=#-#;#>#I.,#h.e S+'#)#!#~#{#*@].(+I@J@5@5@I.I.I.I.*+]#^#/#(#_#:#<#[#}#.#u@|#1#2#3#4#5#                  ",
"                  6#7#8#9#0#a#>#I.,#h.I.v+S+u+b#c#d#e##@V.s@I.5@5@I.I.I.I.f#^#g#h#,@i#j#k#[#}#.#u@|#l#m#3#4#5#                  ",
"                  5#n#o#p#q#r#j.(.s#h.I.e e e %+-.u.l u.s@J@I.I.I.I.I.&+I.t#Y@u#v#w#<#k#.#[#[#+#x#y#z#A#B#C#5#                  ",
"                    D#E#F#G#H#I#(.s#h.I.I.I.I.I.I.I.I.I.I.I.I.I.I.I.I.6@I.t#J#K#:#k#.#.#.#[#L#+#x#M#z#A#N#C#                    ",
"                    D#N#F#O#H#I#(.s#h.I.I.I.I.I.I.5@5@5@I.I.I.I.I.I.I.6@I.t#J#P#Q#.#R#R#.#[#L#+#x#M#z#A#N#C#                    ",
"                    D#N#F#O#H#I#(.s#h.I.I.I.I.I.I.I.I.I.I.I.I.I.I.I.I.&+I.t#/#P#Q#k#R#S#.#[#L#+#x#M#z#A#N#C#                    ",
"                    D#T#F#G#H#I#(.s#h.I.I.I.I.I.I.I.I.I.I.I.I.I.I.I.I.*+f#6+U#V#Q#k#S#.#.#[#L#+#x#M#z#A#N#C#                    ",
"                    D#T#F#G#H#I#(.s#h.I.I.I.I.I.I.I.I.I.I.I.I.I.I.I.d X@W#g#h#v#j#k#S#.#.#[#L#+#x#M#z#A#N#C#                    ",
"                    D#T#F#G#H#I#(.s#h.I.I.I.I.I.I.I.I.I.I.I.I.&+&+I.]#X#Y#P#v#Q# #.#.#.#.#[#L#+#x#M#z#A#N#C#                    ",
"                    D#T#F#G#H#I#(.s#h.I.I.I.I.I.I.I.I.I.I.I.I.I.I.d ^#7@V#Z#j#<#k#.#.#.#.#[#L#+#x#M#z#A#N#C#                    ",
"                  5#D#N#`#O#H#j.(. $h.I.I.I.I.I.I.I.I.I.I.I.e *+t#^#.$K#+$ #.#.#.#.#.#.#.#[#}#+#@$|#z##$B#C#5#                  ",
"                  $$%$&$*$=$H#>#I.,#i.I.I.I.I.I.I.I.I.I.&+I.*+X@X#7@-$8+w#k#R#R#.#.#.#.#.#[#;$.#u@|#>$,$3#D#5#                  ",
"                  5#D#B#'$O#H#)$(. $h.I.I.I.I.I.I.I.I.I.&+I.t#X#Y#!$~${$<#.#.#.#.#.#.#.#.#[#}#]$^$|#z#/$($C#5#                  ",
"                          _$:$<$*.[$(.I.I.I.I.I.I.I.I.I.*+f#6+g#}$Z# #k#|$.#.#.#.#.#.#.#.#+#1$2$3$4$5$                          ",
"                          6$7$8$9$j.0$(.h.i.h.h.h.h.a$*+t#^#b$u#K@c$[#d$d$[#[#[#[#[#[#[#+#e$@$f$g$h$i$                          ",
"                          j$k$l$m$n$j.[$ $,# $s# $ $o$p$q$r$s$,@t$u$[#v$[#[#L#L#L#}#;$}#1$@$w$x$y$z$A$                          ",
"                          B$C$D$E$m$9$*.(.I.(.(.(.(.F$X#(#G$:#H$k#I$+#+#+#+#+#+#+#+#.#]$2$f$x$J$K$L$M$                          ",
"                                D$l$8$<$)$>#j.j.)$j.N$O$P$Q$R$u@x#x#x#x#x#x#x#x#x#@$u@^$3$g$y$K$                                ",
"                                C$k$7$:$H#H#H#H#H#H#S$T$} U$V$W$W$y#M#M#M#M#M#M#M#|#|#|#4$h$z$L$                                ",
"                                B$j$6$_$O#=$O#G#X$G#=$Y$Z$`$ %.%z#z#z#z#z#z#z#z#z#z#>$z#5$i$A$M$                                ",
"                                        '$*$`#F#F#F#`#+%@%#%$%A#A#A#A#A#A#A#A#A#A##$,$/$                                        ",
"                                        B#&$N#T#T#T#T#N#N#N#N#N#N#N#N#N#N#N#N#N#N#B#3#($                                        ",
"                                        D#%$D#D#D#D#D#D#C#C#C#C#C#C#C#C#C#C#C#C#C#C#D#C#                                        ",
"                                        5#$$5#                                    5#5#5#                                        ",
"                                                                                                                                ",
"                                                                                                                                ",
"                                                                                                                                ",
"                                                                                                                                ",
"                                                                                                                                ",
"                                                                                                                                ",
"                                                                                                                                ",
"                                                                                                                                ",
"                                                                                                                                "};
