/* XPM */
static char * collectible1_xpm[] = {
"64 64 289 2",
"  	c None",
". 	c #77A058",
"+ 	c #76A058",
"@ 	c #7BA359",
"# 	c #8DB05D",
"$ 	c #94B55F",
"% 	c #93B55E",
"& 	c #8AAE5C",
"* 	c #79A258",
"= 	c #93B55F",
"- 	c #92B45E",
"; 	c #83A95B",
"> 	c #84AA5B",
", 	c #86AB5B",
"' 	c #9DBD61",
") 	c #A5C363",
"! 	c #A4C263",
"~ 	c #A5C263",
"{ 	c #9BBB60",
"] 	c #89AD5C",
"^ 	c #85AB5B",
"/ 	c #8BAE5C",
"( 	c #9EBD61",
"_ 	c #A3C163",
": 	c #81A75A",
"< 	c #78A158",
"[ 	c #9CBC61",
"} 	c #A1BF62",
"| 	c #A0BF62",
"1 	c #A5C364",
"2 	c #A6C364",
"3 	c #A2C062",
"4 	c #7EA559",
"5 	c #9ABA60",
"6 	c #A3C263",
"7 	c #AFC968",
"8 	c #B2CB69",
"9 	c #A8C465",
"0 	c #B3CB6A",
"a 	c #ADC867",
"b 	c #ABC666",
"c 	c #B6CD6B",
"d 	c #B7CE6C",
"e 	c #AEC868",
"f 	c #9FBE62",
"g 	c #97B860",
"h 	c #96B75F",
"i 	c #88AC5C",
"j 	c #ACC767",
"k 	c #A6C464",
"l 	c #A8C565",
"m 	c #AEC968",
"n 	c #B9D06D",
"o 	c #BCD16E",
"p 	c #B0CA69",
"q 	c #A7C464",
"r 	c #AEC867",
"s 	c #A9C565",
"t 	c #AAC566",
"u 	c #BBD16E",
"v 	c #B8CF6C",
"w 	c #AAC666",
"x 	c #B5CD6B",
"y 	c #BFD470",
"z 	c #C1D470",
"A 	c #C0D470",
"B 	c #7AA258",
"C 	c #98B960",
"D 	c #B1CA69",
"E 	c #BAD06D",
"F 	c #BDD26F",
"G 	c #BCD26E",
"H 	c #BED36F",
"I 	c #BDD26E",
"J 	c #B3CC6A",
"K 	c #B9CF6D",
"L 	c #ABC766",
"M 	c #B4CC6A",
"N 	c #ADC767",
"O 	c #B2CB6A",
"P 	c #93B45E",
"Q 	c #BFD370",
"R 	c #BBD06D",
"S 	c #BFD36F",
"T 	c #B9CF6C",
"U 	c #ACC766",
"V 	c #B6CE6B",
"W 	c #7FA65A",
"X 	c #95B65F",
"Y 	c #B0C968",
"Z 	c #82A85A",
"` 	c #80A75A",
" .	c #83A95A",
"..	c #7CA459",
"+.	c #B2CA69",
"@.	c #9F8D63",
"#.	c #97775F",
"$.	c #B4BD6B",
"%.	c #8FB25D",
"&.	c #8BAF5C",
"*.	c #997F61",
"=.	c #90625D",
"-.	c #B3B96A",
";.	c #BED26F",
">.	c #C1D570",
",.	c #8FB15D",
"'.	c #90B25E",
").	c #C1D571",
"!.	c #B4CC6B",
"~.	c #A1C062",
"{.	c #9EBD62",
"].	c #9C8561",
"^.	c #9C8461",
"/.	c #D9D2A7",
"(.	c #E3DEB1",
"_.	c #B7A881",
":.	c #B4BC6B",
"<.	c #84A95B",
"[.	c #95715F",
"}.	c #90615D",
"|.	c #E6E2B4",
"1.	c #F3F2C0",
"2.	c #B7A387",
"3.	c #B0B469",
"4.	c #A2C063",
"5.	c #B5CC6B",
"6.	c #8FB25E",
"7.	c #BFD26F",
"8.	c #A39B57",
"9.	c #9F8F63",
"0.	c #9F8E62",
"a.	c #D8D1A7",
"b.	c #DDD6AB",
"c.	c #EFEEBD",
"d.	c #DECDA5",
"e.	c #D4B896",
"f.	c #B5A079",
"g.	c #A1955D",
"h.	c #B1B864",
"i.	c #957A4B",
"j.	c #90635D",
"k.	c #8F605C",
"l.	c #EDEABA",
"m.	c #ECDBAF",
"n.	c #E8CFA6",
"o.	c #B7977F",
"p.	c #937054",
"q.	c #ABAC5F",
"r.	c #BED06E",
"s.	c #A59F59",
"t.	c #A29D58",
"u.	c #A29E58",
"v.	c #A6A059",
"w.	c #B29B51",
"x.	c #91645D",
"y.	c #A48557",
"z.	c #AC9E55",
"A.	c #A5A05A",
"B.	c #A49F59",
"C.	c #A09C57",
"D.	c #ACB461",
"E.	c #BCCD6D",
"F.	c #977C4B",
"G.	c #BFA954",
"H.	c #AC8F58",
"I.	c #AD9550",
"J.	c #A8A55C",
"K.	c #BCCC6D",
"L.	c #A7A65C",
"M.	c #A6A45B",
"N.	c #AAA65C",
"O.	c #BEA95E",
"P.	c #CCB861",
"Q.	c #947353",
"R.	c #937153",
"S.	c #926F51",
"T.	c #EDEBBA",
"U.	c #B99D7A",
"V.	c #B59D5B",
"W.	c #C5B160",
"X.	c #B6A85D",
"Y.	c #A8A65C",
"Z.	c #AAB260",
"`.	c #8CAF5D",
" +	c #BAC86A",
".+	c #9D844F",
"++	c #D4C169",
"@+	c #977C4C",
"#+	c #947949",
"$+	c #BAA178",
"%+	c #BBA65D",
"&+	c #BFAA5F",
"*+	c #A19D57",
"=+	c #B9C76A",
"-+	c #A39E59",
";+	c #A5A059",
">+	c #9B824D",
",+	c #CAB55F",
"'+	c #CAB65F",
")+	c #BAA45C",
"!+	c #B9A45C",
"~+	c #B9A35B",
"{+	c #C8BE8F",
"]+	c #CAC093",
"^+	c #C5B287",
"/+	c #C3AA81",
"(+	c #BDA66C",
"_+	c #C9B563",
":+	c #CFBC64",
"<+	c #B7A158",
"[+	c #9A804C",
"}+	c #C0AA55",
"|+	c #9B824E",
"1+	c #C0AB5F",
"2+	c #CAB660",
"3+	c #B09951",
"4+	c #81A85A",
"5+	c #BAC76A",
"6+	c #997F4B",
"7+	c #B9A14D",
"8+	c #B9A24E",
"9+	c #CBB761",
"0+	c #AC9451",
"a+	c #A9914F",
"b+	c #BFAA5B",
"c+	c #C3AD58",
"d+	c #AC934C",
"e+	c #B5C568",
"f+	c #987D4A",
"g+	c #B09643",
"h+	c #B09744",
"i+	c #B8A04D",
"j+	c #A68C46",
"k+	c #A39E58",
"l+	c #98B860",
"m+	c #87AB5B",
"n+	c #8EB15D",
"o+	c #B2C367",
"p+	c #B7C669",
"q+	c #BBCC6C",
"r+	c #A6A25B",
"s+	c #A78D46",
"t+	c #BAA34E",
"u+	c #BAA24E",
"v+	c #BFA854",
"w+	c #BBA550",
"x+	c #BDA652",
"y+	c #B49C4E",
"z+	c #A7964F",
"A+	c #A4A15A",
"B+	c #A19E58",
"C+	c #AFB562",
"D+	c #83A85A",
"E+	c #967B4B",
"F+	c #BEA853",
"G+	c #B59C49",
"H+	c #B8A14D",
"I+	c #BDCF6E",
"J+	c #A49C58",
"K+	c #A49D58",
"L+	c #A88E46",
"M+	c #A88E45",
"N+	c #B39B50",
"O+	c #B39C51",
"P+	c #AC934A",
"Q+	c #AF964C",
"R+	c #AD9D55",
"S+	c #B0B563",
"T+	c #A2C163",
"U+	c #91B35E",
"V+	c #97B85F",
"W+	c #79A158",
"X+	c #85AA5B",
"Y+	c #A09655",
"Z+	c #A19656",
"`+	c #B0B763",
" @	c #87AC5B",
".@	c #99B960",
"+@	c #7FA659",
"@@	c #99BA60",
"#@	c #7AA359",
"$@	c #B0CA68",
"%@	c #9BBB61",
"&@	c #9EBE61",
"*@	c #A2C162",
"=@	c #9CBB61",
"-@	c #9FBE61",
";@	c #8BAF5D",
">@	c #80A65A",
"                                                                                                                                ",
"                    . + @ # $ % % % % % % % % $ & * . + @ # $ % % % = - ; + * & $ % % % % % % % % $ # @ + .                     ",
"          @ > , , , , , & ' ) ! ! ! ! ! ! ! ! ~ { ] , ^ / ( ) ! ! ! ! _ % ^ ] { ! ! ! ! ! ! ! ! ! ) ' & , , , , : < .           ",
"          , [ } | | | | } _ ! ! ! ! ! ! 1 1 ! ! _ | | | } _ ! ! 2 ) ! ! 3 | | _ ~ 2 2 2 2 2 ) ! ! ! _ } | | | | $ 4 @           ",
"        ] 5 _ ) ~ ~ ~ ! ! ! ! ! ! ! 6 ! 7 8 2 6 ! ! ! ! ! ! 6 9 0 a ! ! ! ! ! ! b c d d d d e ! ! ! ! ~ ~ ~ ~ ) f g h &         ",
"      i 5 ! ! ! ! ! ! 9 j k l e 7 m e 7 n o p e 7 a q 9 r e s t u v j 1 w e e e x y z A A A 0 2 j s ! ! ! ! ! ! ! ! ! % B       ",
"      C 3 ! ! ! ! ! 2 D E r D F G F H H y A H I I o e p F H J j o A K L x H H G F A A A A A M N E O q q ) ) k ) ! ! ! P B       ",
"      , C ! ! ! ! 2 8 o Q R o F D d A A A A Q M M H u u A A I E S z S E F z Q M M S A A A A o E S o T d U b x b ! ! ! - *       ",
"      < - ! ! 6 q p o z A A z F J v A A A A Q x x S z A A A A A A E v S A A S x x Q A A A A A A A A z A V x H c b ! ! 5 &       ",
"    * W X ! ! 2 Y F A A A A A A Q y A A A A A y y A A A A A A A A M 7 F A A A y y A A A A A A A A A A A y y A y d s ) ! [ Z     ",
"  . ` h } ! 1 8 o A A A A A A A A A A A A A A A A A A A A A A A A I u Q A A A A A A A A A A A A A A A A A A A A H v w ! (  ..   ",
"  + Z ( ) ! ! a v Q A A A A A A A A A A A A A A A A A A A A A A A A A A A A A A A A A A A A E c H A A A A A A A z F j ! } %  .  ",
"  ..] f ! 1 s w +.H A A A A A A A A A A A A A A A A A A @.#.#.#.#.#.#.#.$.A A A A A A A A A x 7 I A A A A H o H z F U 6 ! _ %.  ",
"  &.( _ ! w K o I A A A A A A A A A A A A A A A A A A A *.=.=.=.=.=.=.=.-.A A A A A A A A A ;.G Q A A A A K e K >.F j ! ! _ ,.  ",
"  '.! ! 6 j F ).z A A A A A A ;.!.T A A A A A A A A A A *.=.=.=.=.=.=.=.-.A A A A A A A A A A A A A A A A o x o A S d a ~.P  .  ",
"  %.6 ! 6 U I G o y A A A A A I p c A A A A A A A A A A *.=.=.=.=.=.=.=.-.A A A A A A A A A A A A A A A A A A A A Q u D {.Z .   ",
"  %.6 ! ! a o 0 D H A A A A A y F H A A A A A A @.].].^./.(.(.(.(.(.(.(._.].].].:.A A A A A A A A A A A A A A A A F Y q ( <.<   ",
"  %._ ~ r v H n v Q A A A A A A A A A A A A A A [.=.=.}.|.1.1.1.1.1.1.1.2.=.=.=.3.A A A A A A A A A A A A A A A A S v r 4.g ,   ",
"  %._ ) 5.A A A A A A A A A A A A A A A A A A A [.=.=.}.|.1.1.1.1.1.1.1.2.=.=.=.3.A A A A A A A A A A A A A A A A A A !.) 6 6.  ",
"  %._ ) 0 S A A A A A A A A A A A A A A A A A A [.=.=.}.|.1.1.1.1.1.1.1.2.=.=.=.3.A A A A A A A A A A A A A A A A A A M ) _ %.  ",
"  %._ ! s 0 H A A A A A A A A 7.8.8.8.8.9.9.9.0.a.b.b.b.c.1.1.1.1.1.1.1.d.e.e.e.f.9.9.9.g.8.8.8.h.A A A A A A A A A A M ) _ %.  ",
"  %._ ! s J F E K Q A A A A A 7.i.i.i.i.j.=.=.k.l.1.1.1.1.1.1.1.1.1.1.1.m.n.n.n.o.=.=.=.p.i.i.i.q.A A A A A A A A A A 5.) _ %.  ",
"  %._ ) J Q S 8 D H A A A A A 7.i.i.i.i.j.=.=.k.l.1.1.1.1.1.1.1.1.1.1.1.m.n.n.n.o.=.=.=.p.i.i.i.q.A y ;.S A A A A A H O ) _ %.  ",
"  %._ ) !.A A u u y A A A A A 7.i.i.i.i.j.=.=.k.l.1.1.1.1.1.1.1.1.1.1.1.m.n.n.n.o.=.=.=.p.i.i.i.q.A u Y v A A A A H 8 l ! 6 %.  ",
"  , h 4.r v Q z A A A r.s.t.u.v.w.w.w.w.x.=.=.k.l.1.1.1.1.1.1.1.1.1.1.1.m.n.n.n.o.=.=.=.y.w.w.w.z.A.B.C.D.A A A o 0 9 ! ~.h ,   ",
"  < <.( ) L E S A A A E.i.i.i.F.G.G.G.G.x.=.=.k.l.1.1.1.1.1.1.1.1.1.1.1.m.n.n.n.o.=.=.=.H.G.G.G.I.i.i.i.J.A A A v w 1 ~ ( <.<   ",
"  . Z ( ! 1 L v A A A E.i.i.i.F.G.G.G.G.x.=.=.k.l.1.1.1.1.1.1.1.1.1.1.1.m.n.n.n.o.=.=.=.H.G.G.G.I.i.i.i.J.A A A H v w ! ( Z .   ",
"  + Z ( ! 9 D u A A A E.i.i.i.F.G.G.G.G.x.=.=.k.l.1.1.1.1.1.1.1.1.1.1.1.m.n.n.n.o.=.=.=.H.G.G.G.I.i.i.i.J.A A A o O 9 ! ( Z +   ",
"  ..& f ! L I K.L.M.L.N.O.O.O.O.P.P.P.P.Q.R.R.S.T.1.1.1.1.1.1.1.1.1.1.1.m.n.n.n.U.R.R.R.V.P.P.P.W.O.O.O.X.Y.Y.Y.Z.2 ! ~ f & ..  ",
"  `.f _ ! j F  +i.i.i..+++++++++++++++++@+i.i.#+T.1.1.1.1.1.1.1.1.1.1.1.m.n.n.n.$+i.i.i.%+++++++++++++++&+i.i.i.*+2 ! ! _ f `.  ",
"  '.! ) a d S =+i.i.i..+++++++++++++++++@+i.i.#+T.1.1.1.1.1.1.1.1.1.1.1.m.n.n.n.$+i.i.i.%+++++++++++++++&+i.i.i.-+J l ! ! ! '.  ",
"  %._ ) !.A A =+i.i.i..+++++++++++++++++@+i.i.#+T.1.1.1.1.1.1.1.1.1.1.1.m.n.n.n.$+i.i.i.%+++++++++++++++&+i.i.i.;+F j 6 ! 6 %.  ",
"  %._ ) J Q A =+i.i.i.>+,+,+,+'+++++++++)+!+!+~+{+]+]+]+]+]+]+]+]+]+]+]+^+/+/+/+(+!+!+!+_+++++++:+,+,+,+<+i.i.i.;+F j 6 ! 6 %.  ",
"  '.! ~ w M H =+i.i.i.[+G.G.G.}+++++++++++++++++|+i.i.i.i.i.i.i.i.i.i.i.i.i.i.i.1+++++++++++++++2+G.G.G.3+i.i.i.;+F j 6 ! 6 %.  ",
"  i 5 3 6 L F =+i.i.i.[+G.G.G.}+++++++++++++++++|+i.i.i.i.i.i.i.i.i.i.i.i.i.i.i.1+++++++++++++++2+G.G.G.3+i.i.i.;+F j 6 ! 6 %.  ",
"  * ^ ( ! j F =+i.i.i.[+G.G.G.}+++++++++++++++++|+i.i.i.i.i.i.i.i.i.i.i.i.i.i.i.1+++++++++++++++2+G.G.G.3+i.i.i.;+u b 6 ! 6 %.  ",
"  + 4+( ! j F 5+i.i.i.6+7+7+7+8+9+9+9+9+9+9+9+9+0+a+a+a+a+a+a+a+a+a+a+a+a+a+a+a+b+9+9+9+9+9+9+9+c+7+7+7+d+i.i.i.u.a 2 ! ! ! 6.  ",
"  : '.| ! s M e+i.i.i.f+g+g+g+h+G.G.G.G.G.G.G.G.G.G.G.G.G.G.G.G.G.G.G.G.G.G.G.G.G.G.G.G.G.G.G.G.i+g+g+g+j+i.i.i.k+7 2 ! 3 l+m+  ",
"  n+3 ! ! ) w o+i.i.i.f+g+g+g+h+G.G.G.G.G.G.G.G.G.G.G.G.G.G.G.G.G.G.G.G.G.G.G.G.G.G.G.G.G.G.G.G.i+g+g+g+j+i.i.i.;+o e k ( > <   ",
"  6.! ! ! w d p+i.i.i.f+g+g+g+h+G.G.G.G.G.G.G.G.G.G.G.G.G.G.G.G.G.G.G.G.G.G.G.G.G.G.G.G.G.G.G.G.i+g+g+g+j+i.i.i.;+y u D {.Z .   ",
"  %._ ~ U c S q+r+r+r+v.s+s+s+s+t+u+u+u+u+u+u+u+v+G.G.G.G.G.G.G.G.G.G.G.w+u+u+u+u+u+u+u+x+G.G.G.y+s+s+s+z+A+B+A+C+A A x 3 - D+  ",
"  %._ ) D o y A A A A E.i.i.i.E+g+g+g+g+g+g+g+g+F+G.G.G.G.G.G.G.G.G.G.G.G+g+g+g+g+g+g+g+H+G.G.G.I.i.i.i.J.A y A A A A M ) _ ,.  ",
"  %._ ! q p ;.A A A A E.i.i.i.E+g+g+g+g+g+g+g+g+F+G.G.G.G.G.G.G.G.G.G.G.G+g+g+g+g+g+g+g+H+G.G.G.I.i.i.i.J.A A A A A A M ) _ %.  ",
"  %._ ~ j d S A A A A E.i.i.i.E+g+g+g+g+g+g+g+g+F+G.G.G.G.G.G.G.G.G.G.G.G+g+g+g+g+g+g+g+H+G.G.G.I.i.i.i.J.A A A A H c j ~.= ;   ",
"  6.6 ) D o y A A A A I+J+K+K+K+L+L+L+L+L+L+L+M+N+O+O+O+O+O+O+O+O+O+O+O+P+L+L+L+L+L+L+L+Q+O+O+O+R+K+K+K+S+A A A z F j ! ( Z .   ",
"  n+T+! 2 7 I A A A A A A A A 7.i.i.i.i.i.i.i.i.i.i.i.i.i.i.i.i.i.i.i.i.i.i.i.i.i.i.i.i.i.i.i.i.q.A A Q A A A A A o L ! ( <.<   ",
"  Z U+| ! q 7 E A A A A A A A 7.i.i.i.i.i.i.i.i.i.i.i.i.i.i.i.i.i.i.i.i.i.i.i.i.i.i.i.i.i.i.i.i.q.A o 0 E A A A E 7 q ! 3 V+,   ",
"  + Z ( ~ 2 N K A A A F E H A 7.i.i.i.i.i.i.i.i.i.i.i.i.i.i.i.i.i.i.i.i.i.i.i.i.i.i.i.i.i.i.i.i.q.A u Y T A A A K N 2 ! ! ! %.  ",
"  W+X+( ! w K S A A A d a E A 7.Y+Z+Z+Z+Z+Z+Z+Z+Z+Z+Z+Z+Z+Z+Z+Z+Z+Z+Z+Z+Z+Z+Z+Z+Z+Z+Z+Z+Z+Z+Z+Z+`+A y H S A A A S K w 6 ! 6 %.  ",
"   @.@3 ! q e E A A A o v F A A A A A A A A A A A A A A A A A A A A A A A A A A A A A A A A A A A A A A A A A A E e q ! ! ! '.  ",
"  '.! ! ! 2 r E A A A A A A A H K u A A A A A A A A A A A A A A A A A A A A A A A A A A A A A A A A A A A A A A E r 2 ! 3 .@i   ",
"  # } ! 6 b u A A A A A A A A G m x A A A A A H H A A A A A A A A A A A A Q H Q A A A A A A A A A A A A A A A A A u b ! ( X+*   ",
"  +@# | ! j F z A A A A A A A S E o A A A A S M J S A A A A A A A A A A A E p n A A A A A A A A A A A A A A A A z F j ! ( Z .   ",
"  + Z ( ! s J x v Q A A A A A A A A A A A A Q x x S A A A A A A A A A A A u O E A A A A A A A H d u A y K v Q A G M s ) ( D+.   ",
"      ( ) ! 1 9 D H A A A F H A A A A A A A A y y A A A A F H A A A A A A A Q A A A A A A A A o e c A S 8 D H z d q ! T+@@      ",
"      ' ) ! ) 8 o y A A F D !.y A A A A A A A A A A A A F D x A A A A A A A A A A A A A A A A S u F A A o o y A c 1 ! V+;       ",
"      n+[ ! ) e v A >.o M O T A A A A A A A A z o c I >.S x v A A z F c u >.A v v A A A A A A z z A A A >.).A v r ) ! - W+      ",
"      #@% ! ! ! j n o 0 s x u o Q ;.G y A A A F M s x u o S A A A H c s O o E j N E Q A A A ;.G y A S o u u n j ! ! ! P B       ",
"      * - _ ! ! 2 s t q ) l s a u 5.7 G A A H 8 q ) 9 s N R A y S M l ) q t s 2 1 U E A y Q x 7 o A E j s t s 2 ! ! _ - B       ",
"        > X T+) ~ ! ! ! ~ ! 6 q 7 b q Y 8 8 D s ! ) ! ! 1 m 8 8 D w ! ~ ! ! ! ! ! ) e 8 8 +.b q $@0 e 1 ! ! ! ~ ) T+X >         ",
"          Z V+%@{ { { { [ 3 | %@%@| ! ! ! ~ ! &@{ { { f ! ~ ! ! ! ~ *@[ { { =@~.! ! ! ! ! ! | %@%@| ~ ! -@{ { { %@V+Z           ",
"                    W 4 <.5 X ` W - 3 T+T+_ | # 4 W +@n+~._ T+T+T+_ { > 4 4 Z l+_ T+T+T+T+3 - W ` $ _ } n++@                    ",
"                    . . B , ; < . Z &.&.&.;@& +@. . . >@& ;@&.&.&.`. @B . . W+X+`.&.&.&.&.&.Z . <  .;@& W .                     ",
"                                                                                                                                "};
