/* XPM */
static char * daseldrawing_xpm[] = {
"64 64 229 2",
"  	c None",
". 	c #979797",
"+ 	c #333333",
"@ 	c #161616",
"# 	c #0B0B0B",
"$ 	c #1D1D1D",
"% 	c #575757",
"& 	c #898989",
"* 	c #B7B7B7",
"= 	c #BCBCBC",
"- 	c #818181",
"; 	c #404040",
"> 	c #0D0D0D",
", 	c #1B1B1B",
"' 	c #171717",
") 	c #090909",
"! 	c #000000",
"~ 	c #040404",
"{ 	c #0A0A0A",
"] 	c #4C4C4C",
"^ 	c #BFBFBF",
"/ 	c #BEBEBE",
"( 	c #676767",
"_ 	c #454545",
": 	c #656565",
"< 	c #7A7A7A",
"[ 	c #6A6A6A",
"} 	c #727272",
"| 	c #666666",
"1 	c #535353",
"2 	c #2E2E2E",
"3 	c #0C0C0C",
"4 	c #060606",
"5 	c #4A4A4A",
"6 	c #D3D3D3",
"7 	c #6C6C6C",
"8 	c #353535",
"9 	c #5B5B5B",
"0 	c #AAAAAA",
"a 	c #EAEAEA",
"b 	c #D6D6D6",
"c 	c #E9E9E9",
"d 	c #E1E1E1",
"e 	c #C9C9C9",
"f 	c #8D8D8D",
"g 	c #4B4B4B",
"h 	c #111111",
"i 	c #AFAFAF",
"j 	c #828282",
"k 	c #303030",
"l 	c #4F4F4F",
"m 	c #A5A5A5",
"n 	c #EBEBEB",
"o 	c #FFFFFF",
"p 	c #FBFBFB",
"q 	c #F2F2F2",
"r 	c #DDDDDD",
"s 	c #A6A6A6",
"t 	c #555555",
"u 	c #4E4E4E",
"v 	c #3D3D3D",
"w 	c #838383",
"x 	c #DFDFDF",
"y 	c #F3F3F3",
"z 	c #FEFEFE",
"A 	c #F9F9F9",
"B 	c #F8F8F8",
"C 	c #E4E4E4",
"D 	c #929292",
"E 	c #202020",
"F 	c #212121",
"G 	c #A4A4A4",
"H 	c #F6F6F6",
"I 	c #FCFCFC",
"J 	c #9E9E9E",
"K 	c #080808",
"L 	c #131313",
"M 	c #191919",
"N 	c #1F1F1F",
"O 	c #A1A1A1",
"P 	c #EEEEEE",
"Q 	c #FAFAFA",
"R 	c #FDFDFD",
"S 	c #747474",
"T 	c #010101",
"U 	c #282828",
"V 	c #8F8F8F",
"W 	c #F7F7F7",
"X 	c #F4F4F4",
"Y 	c #9F9F9F",
"Z 	c #626262",
"` 	c #2A2A2A",
" .	c #5E5E5E",
"..	c #E3E3E3",
"+.	c #E8E8E8",
"@.	c #BDBDBD",
"#.	c #585858",
"$.	c #969696",
"%.	c #484848",
"&.	c #D1D1D1",
"*.	c #DCDCDC",
"=.	c #DBDBDB",
"-.	c #A3A3A3",
";.	c #1E1E1E",
">.	c #919191",
",.	c #B6B6B6",
"'.	c #373737",
").	c #1C1C1C",
"!.	c #020202",
"~.	c #232323",
"{.	c #686868",
"].	c #3A3A3A",
"^.	c #777777",
"/.	c #737373",
"(.	c #878787",
"_.	c #ACACAC",
":.	c #999999",
"<.	c #595959",
"[.	c #242424",
"}.	c #070707",
"|.	c #101010",
"1.	c #2B2B2B",
"2.	c #2F2F2F",
"3.	c #505050",
"4.	c #515151",
"5.	c #393939",
"6.	c #2C2C2C",
"7.	c #B0B0B0",
"8.	c #9C9C9C",
"9.	c #5A5A5A",
"0.	c #343434",
"a.	c #363636",
"b.	c #5C5C5C",
"c.	c #424242",
"d.	c #494949",
"e.	c #848484",
"f.	c #D4D4D4",
"g.	c #6D6D6D",
"h.	c #9D9D9D",
"i.	c #616161",
"j.	c #888888",
"k.	c #C3C3C3",
"l.	c #565656",
"m.	c #C0C0C0",
"n.	c #E6E6E6",
"o.	c #222222",
"p.	c #3B3B3B",
"q.	c #909090",
"r.	c #F1F1F1",
"s.	c #D0D0D0",
"t.	c #6B6B6B",
"u.	c #787878",
"v.	c #D8D8D8",
"w.	c #EFEFEF",
"x.	c #A8A8A8",
"y.	c #4D4D4D",
"z.	c #BABABA",
"A.	c #868686",
"B.	c #252525",
"C.	c #949494",
"D.	c #B8B8B8",
"E.	c #7C7C7C",
"F.	c #989898",
"G.	c #464646",
"H.	c #3F3F3F",
"I.	c #A7A7A7",
"J.	c #141414",
"K.	c #2D2D2D",
"L.	c #F5F5F5",
"M.	c #323232",
"N.	c #8A8A8A",
"O.	c #EDEDED",
"P.	c #7B7B7B",
"Q.	c #0E0E0E",
"R.	c #272727",
"S.	c #8B8B8B",
"T.	c #808080",
"U.	c #E0E0E0",
"V.	c #767676",
"W.	c #1A1A1A",
"X.	c #3E3E3E",
"Y.	c #797979",
"Z.	c #8E8E8E",
"`.	c #E2E2E2",
" +	c #E7E7E7",
".+	c #414141",
"++	c #ECECEC",
"@+	c #606060",
"#+	c #5F5F5F",
"$+	c #717171",
"%+	c #F0F0F0",
"&+	c #7D7D7D",
"*+	c #151515",
"=+	c #474747",
"-+	c #7E7E7E",
";+	c #6E6E6E",
">+	c #121212",
",+	c #757575",
"'+	c #CCCCCC",
")+	c #434343",
"!+	c #C7C7C7",
"~+	c #383838",
"{+	c #0F0F0F",
"]+	c #262626",
"^+	c #CFCFCF",
"/+	c #CECECE",
"(+	c #707070",
"_+	c #050505",
":+	c #181818",
"<+	c #8C8C8C",
"[+	c #7F7F7F",
"}+	c #A9A9A9",
"|+	c #030303",
"1+	c #CACACA",
"2+	c #C6C6C6",
"3+	c #B2B2B2",
"4+	c #B1B1B1",
"5+	c #A0A0A0",
"6+	c #AEAEAE",
"7+	c #D7D7D7",
"8+	c #313131",
"9+	c #A2A2A2",
"0+	c #292929",
"a+	c #C2C2C2",
"b+	c #B9B9B9",
"c+	c #BBBBBB",
"d+	c #D5D5D5",
"e+	c #858585",
"f+	c #CDCDCD",
"                                                                                                                                ",
"                                                                                                                                ",
"                                                                                                                                ",
"                                                                                                                                ",
"                                                                                                                                ",
"                                                                                                                                ",
"                                                                                                                                ",
"                                                                                                                                ",
"                                                                                                                                ",
"                                                                                                                                ",
"                                                . + + @ # $ % & *                                                               ",
"                                            = - ; > , ' ) ! ~ { ] ^                                                             ",
"                                          / ( _ : < [ } | 1 2 3 4 5                                                             ",
"                                        6 7 8 9 0 a b c d e f g h ! i                                                           ",
"                                        j k l m n o p o p q r s t ! u                                                           ",
"                                        v $ w x o y o z A B o C D 4 E                                                           ",
"                                        , F G c H I o p z o p I J K L                                                           ",
"                                        M N O P o B z o Q o R 6 S T U                                                           ",
"                                        @ M V C o H W o X o X Y 8 K Z                                                           ",
"                                        ` @  .s ..p o o I +.@.#.K @ $.                                                          ",
"                                        v L $ %.f &.*.d =.-.% ) 4 ;.>.                                                          ",
"                                    ,.- '.).!.@ ~.Z : Z {.].{ ! , U ( ^./.(._.                                                  ",
"                                  :.( #.<. .[.).}.@ |.# h K > 1.2.+ 3.4.5.6.3.7.                                                ",
"                                8.9.; ( -.,.t ` 0.$ $ $ ' $ a.b.].'.1 < S c.6.{.                                                ",
"                                d.0.e.C H f.{.g.h.e.: 1 i.j.k.h.#.l.m.c n.j o.k                                                 ",
"                                g p.q.r.R s.t.u.*.*.v.&.b x w.x.l y.z.q r.A.$ B.                                                ",
"                                c.'.C.B Q D.i.E.q R o R I A y F.G.H.I.y H e.J.).                                                ",
"                                a.K.q.W q :.4.< P Q R y L.Q W F.c.M.N.+.O.P.Q.M                                                 ",
"                                8 R.S.W w.T.G.P.P z o R o o o 8.H.` /.U.n.V.3 W.                                                ",
"                                5.o.T.r.O.7 X.Y.y o o A z o L.Z.'.B.( `. +^.> M                                                 ",
"                                .+$ S a ++@+5.^.A o o W p p O.(.K.F #+C  +^.> @                                                 ",
"                                g N $+a %+#+p.< ++W o o o o +.&+U ;.<.U.`.S 3 *+                                                ",
"                                =+).| n *./.1.} r.o z o B o %+-+` *+5 v.r - !.*+                                                ",
"                                v L $+P n ;+M.u.y o L.z B o q - K.|.'.f.r Y.# |.                                                ",
"                                H.>+,+U.a ( M.g.C o y o p R r.T.;.T R.'+6 [ h 4                                                 ",
"                                )+*+b.* '+} 8 t !+o o o I A w.j k K , A.E.~+{+M                                                 ",
"                                9.F ]+#+u.t.+ v q.=.n C ^+/+e (+U _+*+].B.>+Q.k                                                 ",
"                                G t >+# :+c.~.R.4.<+8.S.^.P.< G.3 ! T 4 > 2.l [+                                                ",
"                                  }+;+H.X.4.K.)._+J., Q._+# 4 ! J.|+! _+X.w m.                                                  ",
"                                      1+2+Y % ~.2.:+@ J.:+W.{+:+) @ ).% 3+                                                      ",
"                                          < %.S 4+5+G q.:.m s O m < ]+%                                                         ",
"                                          7 ] & X c b O 6+`.P O.7+J 0.t                                                         ",
"                                          #.9._.o o ^+Y.Z.%+o o H i 8+_                                                         ",
"                                        6+%.S s.p I D.l./.++I z w.9+;.+                                                         ",
"                                        < H.D a o z 7.1 $+C I o n 8.J.0+                                                        ",
"                                        y.v x.H o I x.u i.a+L.p y 5+h E                                                         ",
"                                        + X.4+W o o 4+4.l 5+W R q h.3 :+                                                        ",
"                                        0+H.3+L.Q o b+1 .+j.B R a . K '                                                         ",
"                                        U @+c+o o X '+t.` V.r +.d+e+L h                                                         ",
"                                        K.7 c+++d f+s % ;..+7 #.g 2.! )                                                         ",
"                                        *+M.#.t.{.#+5 ~.{ , ` , L *+! '                                                         ",
"                                        6.o.U k o.[.W._+! 4 E a.~+5.1.%.                                                        ",
"                                                                                                                                ",
"                                                                                                                                ",
"                                                                                                                                ",
"                                                                                                                                ",
"                                                                                                                                ",
"                                                                                                                                ",
"                                                                                                                                ",
"                                                                                                                                ",
"                                                                                                                                ",
"                                                                                                                                ",
"                                                                                                                                ",
"                                                                                                                                "};
