/* XPM */
static char * footstep_xpm[] = {
"32 32 2 1",
" 	c None",
".	c #1D1409",
"                                ",
"                                ",
"                                ",
"                                ",
"          ..                    ",
"          ..                    ",
"          ..                    ",
"          ..                    ",
"                                ",
"                     .          ",
"                    ..          ",
"                    ..          ",
"                    ..          ",
"                    ...         ",
"                     .          ",
"                                ",
"                                ",
"                                ",
"          ..                    ",
"          ..                    ",
"          ..                    ",
"          ..                    ",
"          ..                    ",
"          ..                    ",
"                     .          ",
"                    ..          ",
"                    ..          ",
"                    ..          ",
"                    ..          ",
"                                ",
"                                ",
"                                "};
