/* XPM */
static char *player_xpm[] = {
"32 32 81 1",
" 	c #F1DC2F",
".	c #E6D22C",
"+	c #B1A120",
"@	c #A0921C",
"#	c #E8D32D",
"$	c #F0DB2F",
"%	c #817514",
"&	c #3A3405",
"*	c #C0AF23",
"=	c #A3941C",
"-	c #AFA01F",
";	c #655C0E",
">	c #000000",
",	c #6E6410",
"'	c #988A1A",
")	c #504809",
"!	c #766B12",
"~	c #DCC92A",
"{	c #544C09",
"]	c #282402",
"^	c #807414",
"/	c #2C2803",
"(	c #5B530B",
"_	c #D3C128",
":	c #D2C028",
"<	c #786D12",
"[	c #8C7F17",
"}	c #756A11",
"|	c #DAC72A",
"1	c #BBAA22",
"2	c #D0BD27",
"3	c #59500B",
"4	c #A99A1E",
"5	c #B7A721",
"6	c #494107",
"7	c #2C2703",
"8	c #61580C",
"9	c #D0BE27",
"0	c #6C620F",
"a	c #1D1901",
"b	c #9B8D1B",
"c	c #D4C228",
"d	c #CBB926",
"e	c #2E2903",
"f	c #262202",
"g	c #58500A",
"h	c #948719",
"i	c #3F3905",
"j	c #3E3705",
"k	c #716610",
"l	c #161301",
"m	c #63590D",
"n	c #A1931C",
"o	c #453E06",
"p	c #0F0C00",
"q	c #1E1A01",
"r	c #423C06",
"s	c #1B1801",
"t	c #4C4408",
"u	c #120F01",
"v	c #151201",
"w	c #231F02",
"x	c #7B6F13",
"y	c #A4951D",
"z	c #908318",
"A	c #776C12",
"B	c #6B610F",
"C	c #5E550C",
"D	c #302B03",
"E	c #191601",
"F	c #221E02",
"G	c #292402",
"H	c #1B1701",
"I	c #393304",
"J	c #1F1B01",
"K	c #4F4808",
"L	c #171401",
"M	c #494207",
"N	c #827614",
"O	c #9D8E1B",
"P	c #B2A220",
"                                ",
"                                ",
"                                ",
"                                ",
"                                ",
"        ...                     ",
"        +@+          #..$       ",
"        %&%          *=-.       ",
"       .;>,          ')!~       ",
"       ~{],          ^/(_       ",
"       :{]<          <]{:       ",
"       :{]<          <]{:       ",
"       :{]<          <]{:       ",
"       :{]<          <]{:       ",
"       :{]<          <]{:       ",
"       ~{],          <]{:       ",
"       .%>[          <]{:       ",
"        +++          '&}~       ",
"                     *++.       ",
"                                ",
"                                ",
"   |112                         ",
"   *;34                         ",
"   5678+                        ",
"   90a>b                 c44d   ",
"   .befg*               .hijb   ",
"    ck>lmbc            .nopqb   ",
"     brs>ekhd.        cntuv,*   ",
"     c43>w>e);xhyyyzABCDsE,*    ",
"       +bgFGf>HeirrIJJa>qx*     ",
"         *bx}KLGirrIeeM;[*      ",
"             5hNOyyyyPd.        "};
