/* XPM */
static char * player_xpm[] = {
"64 64 245 2",
"  	c None",
". 	c #363636",
"+ 	c #1F1F1F",
"@ 	c #202020",
"# 	c #181818",
"$ 	c #0F0F0F",
"% 	c #0E0E0E",
"& 	c #222222",
"* 	c #373737",
"= 	c #535353",
"- 	c #858585",
"; 	c #626262",
"> 	c #575757",
", 	c #5B5B5B",
"' 	c #545454",
") 	c #555555",
"! 	c #4C4C4C",
"~ 	c #3F3F3F",
"{ 	c #292929",
"] 	c #0C0C0C",
"^ 	c #070707",
"/ 	c #454545",
"( 	c #848484",
"_ 	c #4E4E4E",
": 	c #ACACAC",
"< 	c #ADADAD",
"[ 	c #AAAAAA",
"} 	c #B2B2B2",
"| 	c #A9A9A9",
"1 	c #989898",
"2 	c #767676",
"3 	c #232323",
"4 	c #101010",
"5 	c #8E8E8E",
"6 	c #4F4F4F",
"7 	c #818181",
"8 	c #BABABA",
"9 	c #E5E5E5",
"0 	c #E8E8E8",
"a 	c #E7E7E7",
"b 	c #EEEEEE",
"c 	c #D8D8D8",
"d 	c #B8B8B8",
"e 	c #8D8D8D",
"f 	c #5D5D5D",
"g 	c #2B2B2B",
"h 	c #2A2A2A",
"i 	c #595959",
"j 	c #404040",
"k 	c #777777",
"l 	c #B5B5B5",
"m 	c #E6E6E6",
"n 	c #F9F9F9",
"o 	c #FBFBFB",
"p 	c #FCFCFC",
"q 	c #FDFDFD",
"r 	c #F2F2F2",
"s 	c #C9C9C9",
"t 	c #999999",
"u 	c #5A5A5A",
"v 	c #242424",
"w 	c #323232",
"x 	c #A0A0A0",
"y 	c #DCDCDC",
"z 	c #F8F8F8",
"A 	c #F7F7F7",
"B 	c #FAFAFA",
"C 	c #FFFFFF",
"D 	c #313131",
"E 	c #1C1C1C",
"F 	c #6D6D6D",
"G 	c #B6B6B6",
"H 	c #FEFEFE",
"I 	c #DFDFDF",
"J 	c #939393",
"K 	c #151515",
"L 	c #737373",
"M 	c #BDBDBD",
"N 	c #ECECEC",
"O 	c #F4F4F4",
"P 	c #D1D1D1",
"Q 	c #838383",
"R 	c #303030",
"S 	c #131313",
"T 	c #6C6C6C",
"U 	c #E2E2E2",
"V 	c #5F5F5F",
"W 	c #A5A5A5",
"X 	c #F6F6F6",
"Y 	c #F1F1F1",
"Z 	c #C7C7C7",
"` 	c #7E7E7E",
" .	c #333333",
"..	c #1D1D1D",
"+.	c #414141",
"@.	c #797979",
"#.	c #AFAFAF",
"$.	c #DBDBDB",
"%.	c #CBCBCB",
"&.	c #969696",
"*.	c #2C2C2C",
"=.	c #262626",
"-.	c #212121",
";.	c #424242",
">.	c #6E6E6E",
",.	c #9F9F9F",
"'.	c #CDCDCD",
").	c #E4E4E4",
"!.	c #DDDDDD",
"~.	c #8C8C8C",
"{.	c #565656",
"].	c #0A0A0A",
"^.	c #2F2F2F",
"/.	c #252525",
"(.	c #161616",
"_.	c #585858",
":.	c #898989",
"<.	c #9A9A9A",
"[.	c #9D9D9D",
"}.	c #9E9E9E",
"|.	c #494949",
"1.	c #040404",
"2.	c #171717",
"3.	c #2E2E2E",
"4.	c #6B6B6B",
"5.	c #929292",
"6.	c #727272",
"7.	c #505050",
"8.	c #141414",
"9.	c #3B3B3B",
"0.	c #444444",
"a.	c #434343",
"b.	c #636363",
"c.	c #606060",
"d.	c #888888",
"e.	c #7C7C7C",
"f.	c #5C5C5C",
"g.	c #6F6F6F",
"h.	c #666666",
"i.	c #121212",
"j.	c #0D0D0D",
"k.	c #090909",
"l.	c #2D2D2D",
"m.	c #3A3A3A",
"n.	c #464646",
"o.	c #353535",
"p.	c #787878",
"q.	c #B7B7B7",
"r.	c #4B4B4B",
"s.	c #343434",
"t.	c #646464",
"u.	c #909090",
"v.	c #808080",
"w.	c #515151",
"x.	c #979797",
"y.	c #D6D6D6",
"z.	c #EAEAEA",
"A.	c #656565",
"B.	c #717171",
"C.	c #8A8A8A",
"D.	c #757575",
"E.	c #5E5E5E",
"F.	c #6A6A6A",
"G.	c #868686",
"H.	c #A6A6A6",
"I.	c #E0E0E0",
"J.	c #CACACA",
"K.	c #7F7F7F",
"L.	c #3C3C3C",
"M.	c #3E3E3E",
"N.	c #A7A7A7",
"O.	c #E3E3E3",
"P.	c #878787",
"Q.	c #C6C6C6",
"R.	c #CCCCCC",
"S.	c #BFBFBF",
"T.	c #BCBCBC",
"U.	c #C1C1C1",
"V.	c #919191",
"W.	c #ABABAB",
"X.	c #DEDEDE",
"Y.	c #3D3D3D",
"Z.	c #F0F0F0",
"`.	c #DADADA",
" +	c #696969",
".+	c #EFEFEF",
"++	c #EDEDED",
"@+	c #D0D0D0",
"#+	c #4D4D4D",
"$+	c #525252",
"%+	c #191919",
"&+	c #8B8B8B",
"*+	c #949494",
"=+	c #CECECE",
"-+	c #474747",
";+	c #D3D3D3",
">+	c #F3F3F3",
",+	c #D2D2D2",
"'+	c #EBEBEB",
")+	c #D7D7D7",
"!+	c #111111",
"~+	c #A8A8A8",
"{+	c #D5D5D5",
"]+	c #7B7B7B",
"^+	c #A1A1A1",
"/+	c #484848",
"(+	c #F5F5F5",
"_+	c #747474",
":+	c #959595",
"<+	c #C0C0C0",
"[+	c #282828",
"}+	c #BBBBBB",
"|+	c #7A7A7A",
"1+	c #E9E9E9",
"2+	c #E1E1E1",
"3+	c #A4A4A4",
"4+	c #C3C3C3",
"5+	c #B0B0B0",
"6+	c #080808",
"7+	c #C5C5C5",
"8+	c #D4D4D4",
"9+	c #C2C2C2",
"0+	c #050505",
"a+	c #C4C4C4",
"b+	c #1E1E1E",
"c+	c #616161",
"d+	c #383838",
"e+	c #AEAEAE",
"f+	c #B9B9B9",
"g+	c #686868",
"h+	c #1B1B1B",
"i+	c #D9D9D9",
"j+	c #BEBEBE",
"k+	c #393939",
"l+	c #020202",
"m+	c #272727",
"n+	c #060606",
"o+	c #030303",
"p+	c #000000",
"q+	c #010101",
"r+	c #A3A3A3",
"s+	c #9C9C9C",
"t+	c #828282",
"u+	c #0B0B0B",
"v+	c #B3B3B3",
"                                                                                                                                ",
"                                                                                                                                ",
"                                                                                                                                ",
"                                                                                                                                ",
"                                                                                                                                ",
"                                                                                                                                ",
"                                                                                                                                ",
"                                                                                                                                ",
"                                                      . + @ # $ % & * =                                                         ",
"                                                - ; > , > ' ) ! ~ { ] ^ /                                                       ",
"                                              ( _ > - : < [ } | 1 2 ! 3 4                                                       ",
"                                            5 ! 6 7 8 9 0 a b a c d e f g h                                                     ",
"                                            i j k l m n o p q n r m s t u v                                                     ",
"                                            w > x y z A B C q B z B b s ( D                                                     ",
"                                            E F G a A n q H p q q q o I J *                                                     ",
"                                            K L M N n B q H q p C q O P Q R                                                     ",
"                                            S T d N q B n q q n H q U [ V 3                                                     ",
"                                            S f W y X z z p q A B Y Z `  .&                                                     ",
"                                            ..+.@.#.$.r B p p A 0 %.&.! K *.                                                    ",
"                                            =.-.;.>.,.'.I ).9 !.8 ~.{...].^.                                                    ",
"                                            /.$ (. ._.:.<.[.}.t 2 |.E 1.2.3.4.                                                  ",
"                                      5.6.7.;.D 8.K K 9./ 0.a./ *.4 $ ..=.D ' b.b.c.F d.                                        ",
"                                    e.f.f.g.e.h.D + (.i.4 $ % j.k.4 l.m. .. |.> {.n.o.|.~.                                      ",
"                                  p.' f - | q.&._ ~ r.+.s.*.{ *.9.' t.f j +.t.( u.v.w.. i                                       ",
"                                  |.> x.y.z.!.| A.B.J C.D.t.E.F.( < < G.{.f H.P I.J.K.L.w                                       ",
"                                  M.V N.z.n O.[ 4.P.Q.R.Q.S.T.U.R.I %.V.) f.W.X.r $.d.Y.-.                                      ",
"                                  L.; : Z.B `.}. +5.I.Z.Y .+++b .+r @+C.#+$+,.y X I.d.9.%+                                      ",
"                                  s.c.< Y X R.&+; *+a B H q B B B A =+Q n.-+e ;+>+X.( . S                                       ",
"                                  *., W.Z.r M 2 u 5.).z q B X z B o ,+Q a.L.@.Z '+)+`  .!+                                      ",
"                                  h > ~+.+Z.} t.) J 9 o C H p H C C {+( +.o. +S.m ,+]+D i.                                      ",
"                                  h 7.^+'+++W.) w.J 0 p C q o H C B '.]+m.^.V M a ,+]+D !+                                      ",
"                                  l./+t m '+H.r._ J ++H C p n p p (+Q._+s.g i M 0 ;+]+D $                                       ",
"                                   .0.:+).N H.-+_ 5.0 B H q o q p Y <+F 3.[+' }+m @+|+R %                                       ",
"                                  o.+.J O.1+W r.! u.).A q C C q H r S. +*.3 #+G U '.]+D ]                                       ",
"                                  w L.V.O.2+3+= / 5 a p H H q n q X 4+F.l...;.5+!.%.7  .6+                                      ",
"                                  h j :+m 1+~+7.|.V.0 q B n q n q A 7+T 3.# s.W.$.J.e.w ^                                       ",
"                                  h 0.*+X.0 N.! n.:.I B n z H o q X 7+4.=.% [+W 8+9+B.3.0+                                      ",
"                                  *.Y.Q Q.y.x = j @.'.X q p C p o (+a+F *.% b+G.[ x.) & $                                       ",
"                                  . l.c+x.W.~.> d+b.e+).A A >+N 1+9 f+g+3.4 (.>  +{.l.S h+                                      ",
"                                  _.{ R = h.h.6 R |.Q M y.i+=+<+j+T.t > v ].$ { l.+ h+=./                                       ",
"                                    w.h & { ~ m./.R $+K.:+:+P.|+]+]+A.k+i.l+l+6+!+=.a.                                          ",
"                                          / _ / { + & * ;.;.d+D w w m+2.!+0+l+n+h                                               ",
"                                          W.t _+a.& @ !+0+o+l+n+^ p+q+^ 0+j.K * D.                                              ",
"                                              2 w.c.K.|+k L T 6.p.@.k k _+f.o./                                                 ",
"                                              b.i C.4+9+}+: <.3+f+9+9+j+} &+_ -+                                                ",
"                                              f.t.r+'+.+I S.}.#.$.++Z.z.{+W f./                                                 ",
"                                              > p.f+(+H 9 } v.s+U n H o z.} c.k+                                                ",
"                                              _.V.@+A q !.,.A.:.X.n H o a W._.h                                                 ",
"                                            g+t.~+O.B H c *+u t+i+A H B U W $+b+                                                ",
"                                            _ 6.8 Z.q H {+5 > |+J..+p B ).W w.K                                                 ",
"                                            M.e.7+(+H q 8+e $+F.5+9 B B 0 N.w.u+                                                ",
"                                            . 7 s X H C c J w., 1 I p B m 3+6 o+                                                ",
"                                            o.Q J.O o H y t w.6 G.$.o z I.,.! l+                                                ",
"                                            /+5 @+B q n I | f ;.k %.N z.,+J n.0+                                                ",
"                                            ) &.@+O Y 9 '.}.i  .u 1 e+| &.g+R 1.                                                ",
"                                            ! 7 e+Q.<+v+[.k ;.& w _ _ M.s./.] n+                                                ",
"                                            { a.i A.; f.6 m...j.2./.[+3 @ @ K @                                                 ",
"                                                                                                                                ",
"                                                                                                                                ",
"                                                                                                                                ",
"                                                                                                                                ",
"                                                                                                                                ",
"                                                                                                                                ",
"                                                                                                                                "};
