/* XPM */
static char * player1_xpm[] = {
"64 64 460 2",
"  	c None",
". 	c #77A058",
"+ 	c #76A058",
"@ 	c #7BA359",
"# 	c #8DB05D",
"$ 	c #94B55F",
"% 	c #93B55E",
"& 	c #8AAE5C",
"* 	c #79A258",
"= 	c #93B55F",
"- 	c #92B45E",
"; 	c #83A95B",
"> 	c #84AA5B",
", 	c #86AB5B",
"' 	c #9DBD61",
") 	c #A5C363",
"! 	c #A4C263",
"~ 	c #A5C263",
"{ 	c #9BBB60",
"] 	c #89AD5C",
"^ 	c #85AB5B",
"/ 	c #8BAE5C",
"( 	c #9EBD61",
"_ 	c #A3C163",
": 	c #81A75A",
"< 	c #78A158",
"[ 	c #9CBC61",
"} 	c #A1BF62",
"| 	c #A0BF62",
"1 	c #A5C364",
"2 	c #A6C364",
"3 	c #A2C062",
"4 	c #7EA559",
"5 	c #9ABA60",
"6 	c #A3C263",
"7 	c #AFC968",
"8 	c #B2CB69",
"9 	c #A8C465",
"0 	c #B3CB6A",
"a 	c #ADC867",
"b 	c #ABC666",
"c 	c #B6CD6B",
"d 	c #B7CE6C",
"e 	c #AEC868",
"f 	c #9FBE62",
"g 	c #97B860",
"h 	c #96B75F",
"i 	c #88AC5C",
"j 	c #ACC767",
"k 	c #A6C464",
"l 	c #A8C565",
"m 	c #AEC968",
"n 	c #B9D06D",
"o 	c #BCD16E",
"p 	c #B0CA69",
"q 	c #A7C464",
"r 	c #AEC867",
"s 	c #A9C565",
"t 	c #AAC566",
"u 	c #BBD16E",
"v 	c #B8CF6C",
"w 	c #AAC666",
"x 	c #B5CD6B",
"y 	c #BFD470",
"z 	c #C1D470",
"A 	c #C0D470",
"B 	c #7AA258",
"C 	c #98B960",
"D 	c #B1CA69",
"E 	c #BAD06D",
"F 	c #BDD26F",
"G 	c #BCD26E",
"H 	c #BED36F",
"I 	c #BDD26E",
"J 	c #B3CC6A",
"K 	c #B9CF6D",
"L 	c #ABC766",
"M 	c #B4CC6A",
"N 	c #ADC767",
"O 	c #B2CB6A",
"P 	c #93B45E",
"Q 	c #BFD370",
"R 	c #BBD06D",
"S 	c #BAD06E",
"T 	c #BFD36F",
"U 	c #BCD16D",
"V 	c #B9CF6C",
"W 	c #BED26E",
"X 	c #C0D36F",
"Y 	c #BED26F",
"Z 	c #ACC766",
"` 	c #B5CC6B",
" .	c #BDD06E",
"..	c #363636",
"+.	c #202020",
"@.	c #212121",
"#.	c #191919",
"$.	c #111111",
"%.	c #232323",
"&.	c #383838",
"*.	c #5D5F55",
"=.	c #B6CE6B",
"-.	c #7FA65A",
";.	c #95B65F",
">.	c #B0C968",
",.	c #BDD171",
"'.	c #838383",
").	c #626262",
"!.	c #585858",
"~.	c #5D5D5D",
"{.	c #595959",
"].	c #565656",
"^.	c #575757",
"/.	c #4E4E4E",
"(.	c #404040",
"_.	c #2A2A2A",
":.	c #0E0E0E",
"<.	c #101010",
"[.	c #525548",
"}.	c #82A85A",
"|.	c #80A75A",
"1.	c #BED171",
"2.	c #828282",
"3.	c #5A5A5A",
"4.	c #888888",
"5.	c #ADADAD",
"6.	c #AEAEAE",
"7.	c #ABABAB",
"8.	c #B3B3B3",
"9.	c #A9A9A9",
"0.	c #989898",
"a.	c #767676",
"b.	c #4C4C4C",
"c.	c #242424",
"d.	c #32381F",
"e.	c #83A95A",
"f.	c #BFD271",
"g.	c #8C8C8C",
"h.	c #525252",
"i.	c #858585",
"j.	c #BDBDBD",
"k.	c #E5E5E5",
"l.	c #E8E8E8",
"m.	c #EEEEEE",
"n.	c #E7E7E7",
"o.	c #D7D7D7",
"p.	c #B7B7B7",
"q.	c #2C2C2C",
"r.	c #404431",
"s.	c #7CA459",
"t.	c #B2CA69",
"u.	c #BED16F",
"v.	c #434343",
"w.	c #7B7B7B",
"x.	c #B8B8B8",
"y.	c #F9F9F9",
"z.	c #FBFBFB",
"A.	c #FCFCFC",
"B.	c #FDFDFD",
"C.	c #F2F2F2",
"D.	c #C8C8C8",
"E.	c #3C412C",
"F.	c #8FB25D",
"G.	c #8BAF5C",
"H.	c #BDD16F",
"I.	c #333333",
"J.	c #5B5B5B",
"K.	c #A3A3A3",
"L.	c #DDDDDD",
"M.	c #F8F8F8",
"N.	c #F7F7F7",
"O.	c #FAFAFA",
"P.	c #FFFFFF",
"Q.	c #EDEDED",
"R.	c #C7C7C7",
"S.	c #444837",
"T.	c #C1D570",
"U.	c #8FB15D",
"V.	c #90B25E",
"W.	c #C1D571",
"X.	c #B4CC6B",
"Y.	c #BDD16E",
"Z.	c #222222",
"`.	c #717171",
" +	c #FEFEFE",
".+	c #DCDCDC",
"++	c #909090",
"@+	c #484C3C",
"#+	c #A1C062",
"$+	c #1E1E1E",
"%+	c #BFBFBF",
"&+	c #ECECEC",
"*+	c #CDCDCD",
"=+	c #808080",
"-+	c #434836",
";+	c #9EBD62",
">+	c #1B1B1B",
",+	c #6F6F6F",
"'+	c #BABABA",
")+	c #DFDFDF",
"!+	c #A6A6A6",
"~+	c #5C5C5C",
"{+	c #3C402C",
"]+	c #84A95B",
"^+	c #606060",
"/+	c #F5F5F5",
"(+	c #C3C3C3",
"_+	c #323232",
":+	c #3B402B",
"<+	c #A2C063",
"[+	c #1F1F1F",
"}+	c #7A7A7A",
"|+	c #B0B0B0",
"1+	c #DBDBDB",
"2+	c #F1F1F1",
"3+	c #F6F6F6",
"4+	c #E6E6E6",
"5+	c #929292",
"6+	c #494949",
"7+	c #171717",
"8+	c #414533",
"9+	c #8FB25E",
"0+	c #262626",
"a+	c #A0A0A0",
"b+	c #CCCCCC",
"c+	c #DEDEDE",
"d+	c #E2E2E2",
"e+	c #E3E3E3",
"f+	c #DADADA",
"g+	c #898989",
"h+	c #535353",
"i+	c #1C1C1C",
"j+	c #424635",
"k+	c #BED270",
"l+	c #BFD371",
"m+	c #BBCF6E",
"n+	c #343434",
"o+	c #9B9B9B",
"p+	c #9C9C9C",
"q+	c #969696",
"r+	c #737373",
"s+	c #474747",
"t+	c #060606",
"u+	c #71736A",
"v+	c #515151",
"w+	c #444444",
"x+	c #151515",
"y+	c #3B3B3B",
"z+	c #424242",
"A+	c #272727",
"B+	c #555555",
"C+	c #636363",
"D+	c #6E6E6E",
"E+	c #8B8D86",
"F+	c #BDD071",
"G+	c #5E5E5E",
"H+	c #727272",
"I+	c #7E7E7E",
"J+	c #676767",
"K+	c #121212",
"L+	c #0F0F0F",
"M+	c #181818",
"N+	c #313131",
"O+	c #4B4B4B",
"P+	c #484848",
"Q+	c #373737",
"R+	c #4F4F4F",
"S+	c #8F9189",
"T+	c #BFD270",
"U+	c #545454",
"V+	c #616161",
"W+	c #8A8A8A",
"X+	c #ACACAC",
"Y+	c #959595",
"Z+	c #454545",
"`+	c #2F2F2F",
" @	c #303030",
".@	c #414141",
"+@	c #696969",
"@@	c #939393",
"#@	c #818181",
"$@	c #393939",
"%@	c #63665A",
"&@	c #9A9A9A",
"*@	c #EAEAEA",
"=@	c #A7A7A7",
"-@	c #666666",
";@	c #787878",
">@	c #646464",
",@	c #707070",
"'@	c #AFAFAF",
")@	c #848484",
"!@	c #D2D2D2",
"~@	c #7C7C7C",
"{@	c #474B38",
"]@	c #3F3F3F",
"^@	c #AAAAAA",
"/@	c #EBEBEB",
"(@	c #E1E1E1",
"_@	c #A8A8A8",
":@	c #6C6C6C",
"<@	c #C1C1C1",
"[@	c #BEBEBE",
"}@	c #CECECE",
"|@	c #C9C9C9",
"1@	c #8E8E8E",
"2@	c #3C3C3C",
"3@	c #3D432B",
"4@	c #3D3D3D",
"5@	c #656565",
"6@	c #F0F0F0",
"7@	c #D8D8D8",
"8@	c #6B6B6B",
"9@	c #EFEFEF",
"0@	c #878787",
"a@	c #4D4D4D",
"b@	c #3A3F26",
"c@	c #353535",
"d@	c #CACACA",
"e@	c #CBCBCB",
"f@	c #464646",
"g@	c #919191",
"h@	c #D5D5D5",
"i@	c #383D22",
"j@	c #2E2E2E",
"k@	c #BBBBBB",
"l@	c #757575",
"m@	c #CFCFCF",
"n@	c #D3D3D3",
"o@	c #373D21",
"p@	c #8CAF5D",
"q@	c #979797",
"r@	c #373D22",
"s@	c #E9E9E9",
"t@	c #C0C0C0",
"u@	c #A4A4A4",
"v@	c #F3F3F3",
"w@	c #373C20",
"x@	c #E4E4E4",
"y@	c #2B2B2B",
"z@	c #777777",
"A@	c #363C20",
"B@	c #949494",
"C@	c #BCBCBC",
"D@	c #B9B9B9",
"E@	c #363C1F",
"F@	c #E0E0E0",
"G@	c #A2A2A2",
"H@	c #F4F4F4",
"I@	c #686868",
"J@	c #353B1D",
"K@	c #505050",
"L@	c #C2C2C2",
"M@	c #6A6A6A",
"N@	c #2D2D2D",
"O@	c #1A1A1A",
"P@	c #C6C6C6",
"Q@	c #797979",
"R@	c #81A85A",
"S@	c #A5A5A5",
"T@	c #8D8D8D",
"U@	c #252525",
"V@	c #D1D1D1",
"W@	c #6D6D6D",
"X@	c #343A1C",
"Y@	c #C4C4C4",
"Z@	c #9D9D9D",
"`@	c #868686",
" #	c #98B860",
".#	c #87AB5B",
"+#	c #8EB15D",
"@#	c #3A3A3A",
"##	c #B5B5B5",
"$#	c #1D1D1D",
"%#	c #3C422A",
"&#	c #616459",
"*#	c #0A0A0A",
"=#	c #282828",
"-#	c #222220",
";#	c #3F4430",
">#	c #5F654C",
",#	c #5C5F52",
"'#	c #414632",
")#	c #7D7D7D",
"!#	c #020202",
"~#	c #090909",
"{#	c #191A16",
"]#	c #404530",
"^#	c #5D634A",
"/#	c #83A85A",
"(#	c #161616",
"_#	c #050505",
":#	c #040404",
"<#	c #464A38",
"[#	c #BFD372",
"}#	c #ABADA7",
"|#	c #9B9C96",
"1#	c #292929",
"2#	c #3E3F3D",
"3#	c #808474",
"4#	c #747474",
"5#	c #7F7F7F",
"6#	c #525648",
"7#	c #C5C5C5",
"8#	c #54574A",
"9#	c #A2C163",
"0#	c #D4D4D4",
"a#	c #525547",
"b#	c #91B35E",
"c#	c #9F9F9F",
"d#	c #494D3D",
"e#	c #97B85F",
"f#	c #B9CC6F",
"g#	c #79A158",
"h#	c #85AA5B",
"i#	c #D6D6D6",
"j#	c #393E27",
"k#	c #87AC5B",
"l#	c #99B960",
"m#	c #353A21",
"n#	c #B1B1B1",
"o#	c #32381C",
"p#	c #303619",
"q#	c #7FA659",
"r#	c #4A4A4A",
"s#	c #2E3518",
"t#	c #2F3519",
"u#	c #999999",
"v#	c #8F8F8F",
"w#	c #30361A",
"x#	c #99BA60",
"y#	c #0D0D0D",
"z#	c #32371C",
"A#	c #474C34",
"B#	c #575B49",
"C#	c #66695B",
"D#	c #6E7265",
"E#	c #6D7063",
"F#	c #696C5E",
"G#	c #5E6251",
"H#	c #4D533F",
"I#	c #3E4529",
"J#	c #3C4323",
"K#	c #3F4528",
"L#	c #454A30",
"M#	c #454B32",
"N#	c #41472E",
"O#	c #41472C",
"P#	c #42482D",
"Q#	c #3E4527",
"R#	c #4E5733",
"S#	c #7AA359",
"T#	c #B0CA68",
"U#	c #9BBB61",
"V#	c #9EBE61",
"W#	c #A2C162",
"X#	c #9CBB61",
"Y#	c #9FBE61",
"Z#	c #8BAF5D",
"`#	c #80A65A",
"                                                                                                                                ",
"                    . + @ # $ % % % % % % % % $ & * . + @ # $ % % % = - ; + * & $ % % % % % % % % $ # @ + .                     ",
"          @ > , , , , , & ' ) ! ! ! ! ! ! ! ! ~ { ] , ^ / ( ) ! ! ! ! _ % ^ ] { ! ! ! ! ! ! ! ! ! ) ' & , , , , : < .           ",
"          , [ } | | | | } _ ! ! ! ! ! ! 1 1 ! ! _ | | | } _ ! ! 2 ) ! ! 3 | | _ ~ 2 2 2 2 2 ) ! ! ! _ } | | | | $ 4 @           ",
"        ] 5 _ ) ~ ~ ~ ! ! ! ! ! ! ! 6 ! 7 8 2 6 ! ! ! ! ! ! 6 9 0 a ! ! ! ! ! ! b c d d d d e ! ! ! ! ~ ~ ~ ~ ) f g h &         ",
"      i 5 ! ! ! ! ! ! 9 j k l e 7 m e 7 n o p e 7 a q 9 r e s t u v j 1 w e e e x y z A A A 0 2 j s ! ! ! ! ! ! ! ! ! % B       ",
"      C 3 ! ! ! ! ! 2 D E r D F G F H H y A H I I o e p F H J j o A K L x H H G F A A A A A M N E O q q ) ) k ) ! ! ! P B       ",
"      , C ! ! ! ! 2 8 o Q R o F D d A A A A Q M M H u S T T U V W X Y K F z Q M M T A A A A o E T o V d Z b x b ! ! ! - *       ",
"      < - ! ! 6 q p o z A A z F J v A A A A Q x ` Y  ...+.@.#.$.$.%.&.*.Q A T x x Q A A A A A A A A z A =.x H c b ! ! 5 &       ",
"    * -.;.! ! 2 >.F A A A A A A Q y A A A A A ,.'.).!.~.{.].^./.(._.:.<.[.A A y y A A A A A A A A A A A y y A y d s ) ! [ }.    ",
"  . |.h } ! 1 8 o A A A A A A A A A A A A A 1.2./.3.4.5.6.7.8.9.0.a.b.c.d.T A A A A A A A A A A A A A A A A A A H v w ! ( e..   ",
"  + }.( ) ! ! a v Q A A A A A A A A A A A f.g.b.h.i.j.k.l.l.m.n.o.p.g.~.q.r.A A A A A A A A E c H A A A A A A A z F j ! } % e.  ",
"  s.] f ! 1 s w t.H A A A A A A A A A A A u.!.v.w.x.n.y.z.A.B.y.C.k.D.0.{.E.A A A A A A A A x 7 I A A A A H o H z F Z 6 ! _ F.  ",
"  G.( _ ! w K o I A A A A A A A A A A A A H.I.J.K.L.M.N.O.P.B.O.M.O.Q.R.2.S.A A A A A A A A Y G Q A A A A K e K T.F j ! ! _ U.  ",
"  V.! ! 6 j F W.z A A A A A A Y X.V A A A Y.Z.`.x.l.N.y.B. +A.B.B.B.O..+++@+A A A A A A A A A A A A A A A o x o A T d a #+P e.  ",
"  F.6 ! 6 Z I G o y A A A A A I p c A A A Y.$+a.%+&+y.O.B. +B.A.P.B.C.*+=+-+A A A A A A A A A A A A A A A A A A A Q u D ;+}..   ",
"  F.6 ! ! a o 0 D H A A A A A y F H A A A Y.>+,+'+&+B.O.y.B.B.y. +A.)+!+~+{+A A A A A A A A A A A A A A A A A A A F >.q ( ]+<   ",
"  F._ ~ r v H n v Q A A A A A A A A A A A Y.#.^+!+.+/+M.M.A.B.N.y.m.(+w._+:+A A A A A A A A A A A A A A A A A A A T v r <+g ,   ",
"  F._ ) ` A A A A A A A A A A A A A A A A Y.[+v.}+|+1+2+y.z.z.3+4+D.5+6+7+8+A A A A A A A A A A A A A A A A A A A A A X.) 6 9+  ",
"  F._ ) 0 T A A A A A A A A A A A A A A A H.0+Z.v.,+a+b+c+d+e+f+p.g+h+i+:.j+k+A A A A A A A A A A A A A A A A A A A A M ) _ F.  ",
"  F._ ! s 0 H A A A A A A A A A A A A l+k+m+0+$.7+n+{.4.0.o+p+q+r+s+>+t+#.I.u+k+k+k+k+f.A A A A A A A A A A A A A A A M ) _ F.  ",
"  F._ ! s J F E K Q A A A A A A A A ,.++`.v+w+I.x+x+7+y+w+v.z+v._.<.$.[+A+n+B+C+).^+D+E+f.A A A A A A A A A A A A A A ` ) _ F.  ",
"  F._ ) J Q T 8 D H A A A A A A A F+}+~+G+H+I+J+_++.#.x+K+$.L+L+:.M+N+y+n+&.O+{.!.P+Q+R+S+A A A A A y Y T A A A A A H O ) _ F.  ",
"  F._ ) X.A A u u y A A A A A A T+a.U+V+W+X+p.Y+/.z+/.Z+Q+`+q. @.@3.J+~..@Z++@4.@@#@h.$@%@A A A A A u >.v A A A A H 8 l ! 6 F.  ",
"  , h <+r v Q z A A A A T d n A Y 6+3.&@o.*@.+=@-@r+Y+g.;@+@>@,@W+'@X+)@].C+9.!@)+R.~@y+{@A A A A A o 0 E A A A o 0 9 ! #+h ,   ",
"  < ]+( ) L E T A A A A F >.M y Y ]@).^@/@M.(@_@:@W+R.*+D.<@[@(+}@)+|@1@B+).6.)+2+o.i.2@3@A A A A A A y A A A A v w 1 ~ ( ]+<   ",
"  . }.( ! 1 L v A A A A y o I A Y 4@5@6.6@y.7@p+8@q+(@6@2+9@m.9@6@2+*+0@a@!.K.L./+.+i.$@b@A A A A A A A A A A A H v w ! ( }..   ",
"  + }.( ! 9 D u A A A A A A A A Y c@C+'@2+/+d@g+>@0.l.O. +B.O.O.O./+e@#@f@b.g@h@C.f+#@n+i@A A A A A A A A A A A o O 9 ! ( }.+   ",
"  s.& f ! L I A H u H A A A A A Y j@G+5.6@2+k@l@~.q+k.M.B.O.3+M.O.y.m@#@v..@I+|@*@n@w._+o@A A A A A A A A A A A c 2 ! ~ f & s.  ",
"  p@f _ ! j F T.K r K A A A A A Y q.3.^@9@m.|+C+!.q@4+z.P. +A. +P.B.!@#@(.$@,@<@k.}@;@ @r@A A A A A A A A A A A =.2 ! ! _ f p@  ",
"  V.! ) a d T A o c o A A A A A Y q.h+K./@/@9.U+U+q@s@A.P.B.z. +P.M.d@;@$@I.J+t@4+}@;@ @o@A A A A A A A A A A A o J l ! ! ! V.  ",
"  F._ ) X.A A A A A A A A A A A Y j@O+p+4+s@u@O+h.q@Q. +P.A.y.A.A.v@(+`.I.`+).t@n.m@;@ @w@A A A A A A A A Y E Y z F j 6 ! 6 F.  ",
"  F._ ) J Q A A A A A A A A A A Y n+P+0.x@*@u@s+h.q+s@O. +B.z.B.A.9@j.8@j@y@~.[@k.b+z@`+A@A A A A A A A A K a K T.F j 6 ! 6 F.  ",
"  V.! ~ w M H A A A A A A A A A Y c@Z+q+e+n.K.O+R+B@k.N.B.P.P.B.B.6@C@J+q.0+^.D@(@|@;@ @E@A A A A A A A A I d I z F j 6 ! 6 F.  ",
"  i 5 3 6 L F A A A A A A A A A Y _+(.B@e+F@G@h.6+@@l.A. + +B.y.B.H@t@I@q.+.a@8..+D.I+N+J@A A A A A A A A A A A z F j 6 ! 6 F.  ",
"  * ^ ( ! j F A A A A A A A A A Y y@w+0.4+n.!+K@a@Y+l.B.O.y.B.y.B./+L@M@N@O@z+6.f+P@Q@ @J@A A A A T H A A A A A A u b 6 ! 6 F.  ",
"  + R@( ! j F z A A A A A A A A Y y@s+q+L.k.S@b.6+T@)+O.y.M. +z.B.H@L@+@U@<.&.=@V@j.W@q.X@A A A y x O H A A A A n a 2 ! ! ! 9+  ",
"  : V.| ! s M G A Q K n y A A A Y N@]@)@Y@n@Z@h+v.~@*+/+B.A. +z.O.C.t@8@y@L+y@`@!+5+v+@.o@A A A A =.M H A A A A E 7 2 ! 3  #.#  ",
"  +#3 ! ! ) w v A H D 8 T A A A Y &.`+V+Y+=@g+].@#-@6.e+/+/+2+*@n.(@##5@q.<.$#].-@h.y@x+%#A A A A Q Q A A Q F Q A o e k ( > <   ",
"  9+! ! ! w d H A y u o A A A A k+&#q.N+h.>@>@a@N+O+)@k@n@h@d@j.k@x.B@U+Z.*#$.=#y@[+-#;#>#A A A A A A A A E 7 E z y u D ;+}..   ",
"  F._ ~ Z c T A A A A A A A A A A Y ,#'#:+q.(.@#0+N+h.)#5+g@'.z@;@z@V+..$.!#!#~#{#]#^#A A A A A A A A A A u J u A A A x 3 - /#  ",
"  F._ ) D o y A A A A A A A A A A A A A Y K@U+P+y@[+%...(.(... @N+ @U@(#<._#:#$.<#A A A A A A A A A A A A A y A A A A M ) _ U.  ",
"  F._ ! q p Y A A A A A A A A A A A A A [#}#|#r+v.1#N@%.$#>+#.$#$+i+i+$+i+O@>+2#3#A A A A A A A A A A A A A A A A A A M ) _ F.  ",
"  F._ ~ j d T A A A A A A A A A A A A A A A k+4#h.5@)@=+~@z@,@a.)#5#)#)#;@G+&.6#A A A A A A A A A A A A A A A A A H c j #+= ;   ",
"  9+6 ) D o y A A A A A A A A A A A A A A A k+).~+1@P@7#j.5.o+!+C@7#7#<@8.W+R+8#A A A A A A A A A A A A A A A A z F j ! ( }..   ",
"  +#9#! 2 7 I A A A A A A A A A A A A A A A Y ~+I@_@&+9@c+j.Z@|+.+m.2+*@0#K.J.a#A A A A A A A A A A A Q A A A A A o L ! ( ]+<   ",
"  }.b#| ! q 7 E A A A A A A A A A A A A A A u.{.)#j./+B.e+'@=+c#e+y. +O.n.6.G+d#A A A A A A A A A A o 0 E A A A E 7 q ! 3 e#,   ",
"  + }.( ~ 2 N K A A A F E H A A A A A A A A f#~+Y+n@N.A.1+p+-@1@)+y. +O.x@=@].;#A A A A A A A A A A u >.V A A A K N 2 ! ! ! F.  ",
"  g#h#( ! w K T A A A d a E A A A A A A A k+-@I@X+k.O.B.i#5+~+0@f+N. +y.)+G@K@j#A A A A A A A A A A y H T A A A T K w 6 ! 6 F.  ",
"  k#l#3 ! q e E A A A o v F A A A A A A A u.R+a.j.2+B.A.n@g.!.I+d@9@A.y.d+G@R+m#A A A A A A A A A A A A A A A A E e q ! ! ! V.  ",
"  V.! ! ! 2 r E A A A A A A A H K u A A A u..@=+R./+ +A.!@g.h+W@n#4+O.y.k.u@R+o#A A A A A A A A A A A A A A A A E r 2 ! 3 l#i   ",
"  # } ! 6 b u A A A A A A A A G m x A A A H.@#)@e@3+ + +i#g@v+G+o+F@A.y.e+a+a@p#A A A A A A A A A A A A A A A A A u b ! ( h#*   ",
"  q## | ! j F z A A A A A A A T E o A A A H.y+0@b+/+z.A.f+0.h.h.W+.+O.3+.+o+r#s#A A A A A A A A A A A A A A A A z F j ! ( }..   ",
"  + }.( ! s J x v Q A A A A A A A A A A A u.a@g@!@O.A.N..+!+~+w+w.|@l.k.b+T@v.t#A A A A A A A H d u A y K v Q A G M s ) ( /#.   ",
"      ( ) ! 1 9 D H A A A F H A A A A A A u.^.q@m@2+Q.(@D.u#].n+~+Y+9.K.v#C+N@w#A A A A A A A o e c A T 8 D H z d q ! 9#x#      ",
"      ' ) ! ) 8 o y A A F D X.y A A A A A u.b.5#^@t@'+5.q@H+]@Z._+b.O+2@_+c.y#z#A A A A A A A T u F A A o o y A c 1 ! e#;       ",
"      +#[ ! ) e v A T.o M O V A A A A A A u.A#B#C#D#E#F#G#H#I#J#K#L#M#N#O#P#Q#R#v A A A A A A z z A A A T.W.A v r ) ! - g#      ",
"      S#% ! ! ! j n o 0 s x u o Q Y G y A A A F M s x u o T A A A H c s O o E j N E Q A A A Y G y A T o u u n j ! ! ! P B       ",
"      * - _ ! ! 2 s t q ) l s a u ` 7 G A A H 8 q ) 9 s N R A y T M l ) q t s 2 1 Z E A y Q x 7 o A E j s t s 2 ! ! _ - B       ",
"        > ;.9#) ~ ! ! ! ~ ! 6 q 7 b q >.8 8 D s ! ) ! ! 1 m 8 8 D w ! ~ ! ! ! ! ! ) e 8 8 t.b q T#0 e 1 ! ! ! ~ ) 9#;.>         ",
"          }.e#U#{ { { { [ 3 | U#U#| ! ! ! ~ ! V#{ { { f ! ~ ! ! ! ~ W#[ { { X##+! ! ! ! ! ! | U#U#| ~ ! Y#{ { { U#e#}.          ",
"                    -.4 ]+5 ;.|.-.- 3 9#9#_ | # 4 -.q#+##+_ 9#9#9#_ { > 4 4 }. #_ 9#9#9#9#3 - -.|.$ _ } +#q#                    ",
"                    . . B , ; < . }.G.G.G.Z#& q#. . . `#& Z#G.G.G.p@k#B . . g#h#p@G.G.G.G.G.}.. < e.Z#& -..                     ",
"                                                                                                                                "};
