/* XPM */
static char * player2_xpm[] = {
"64 64 459 2",
"  	c None",
". 	c #77A058",
"+ 	c #76A058",
"@ 	c #7BA359",
"# 	c #8DB05D",
"$ 	c #94B55F",
"% 	c #93B55E",
"& 	c #8AAE5C",
"* 	c #79A258",
"= 	c #93B55F",
"- 	c #92B45E",
"; 	c #83A95B",
"> 	c #84AA5B",
", 	c #86AB5B",
"' 	c #9DBD61",
") 	c #A5C363",
"! 	c #A4C263",
"~ 	c #A5C263",
"{ 	c #9BBB60",
"] 	c #89AD5C",
"^ 	c #85AB5B",
"/ 	c #8BAE5C",
"( 	c #9EBD61",
"_ 	c #A3C163",
": 	c #81A75A",
"< 	c #78A158",
"[ 	c #9CBC61",
"} 	c #A1BF62",
"| 	c #A0BF62",
"1 	c #A5C364",
"2 	c #A6C364",
"3 	c #A2C062",
"4 	c #7EA559",
"5 	c #9ABA60",
"6 	c #A3C263",
"7 	c #AFC968",
"8 	c #B2CB69",
"9 	c #A8C465",
"0 	c #B3CB6A",
"a 	c #ADC867",
"b 	c #ABC666",
"c 	c #B6CD6B",
"d 	c #B7CE6C",
"e 	c #AEC868",
"f 	c #9FBE62",
"g 	c #97B860",
"h 	c #96B75F",
"i 	c #88AC5C",
"j 	c #ACC767",
"k 	c #A6C464",
"l 	c #A8C565",
"m 	c #AEC968",
"n 	c #B9D06D",
"o 	c #BCD16E",
"p 	c #B0CA69",
"q 	c #A7C464",
"r 	c #AEC867",
"s 	c #A9C565",
"t 	c #AAC566",
"u 	c #BBD16E",
"v 	c #B8CF6C",
"w 	c #AAC666",
"x 	c #B5CD6B",
"y 	c #BFD470",
"z 	c #C1D470",
"A 	c #C0D470",
"B 	c #7AA258",
"C 	c #98B960",
"D 	c #B1CA69",
"E 	c #BAD06D",
"F 	c #BDD26F",
"G 	c #BCD26E",
"H 	c #BED36F",
"I 	c #BDD26E",
"J 	c #B3CC6A",
"K 	c #B9CF6D",
"L 	c #ABC766",
"M 	c #B4CC6A",
"N 	c #ADC767",
"O 	c #B2CB6A",
"P 	c #93B45E",
"Q 	c #BFD370",
"R 	c #BBD06D",
"S 	c #BAD06E",
"T 	c #BFD36F",
"U 	c #BCD16D",
"V 	c #B9CF6C",
"W 	c #BED26E",
"X 	c #C0D36F",
"Y 	c #BED26F",
"Z 	c #ACC766",
"` 	c #5D5F55",
" .	c #383838",
"..	c #232323",
"+.	c #111111",
"@.	c #191919",
"#.	c #212121",
"$.	c #202020",
"%.	c #363636",
"&.	c #BBCF6D",
"*.	c #B6CE6B",
"=.	c #7FA65A",
"-.	c #95B65F",
";.	c #B0C968",
">.	c #525548",
",.	c #101010",
"'.	c #0E0E0E",
").	c #2A2A2A",
"!.	c #404040",
"~.	c #4E4E4E",
"{.	c #575757",
"].	c #565656",
"^.	c #595959",
"/.	c #5D5D5D",
"(.	c #585858",
"_.	c #626262",
":.	c #838383",
"<.	c #BED171",
"[.	c #82A85A",
"}.	c #80A75A",
"|.	c #32381F",
"1.	c #242424",
"2.	c #4C4C4C",
"3.	c #767676",
"4.	c #989898",
"5.	c #A9A9A9",
"6.	c #B3B3B3",
"7.	c #ABABAB",
"8.	c #AEAEAE",
"9.	c #ADADAD",
"0.	c #888888",
"a.	c #5A5A5A",
"b.	c #828282",
"c.	c #83A95A",
"d.	c #404431",
"e.	c #2C2C2C",
"f.	c #8C8C8C",
"g.	c #B7B7B7",
"h.	c #D7D7D7",
"i.	c #E7E7E7",
"j.	c #EEEEEE",
"k.	c #E8E8E8",
"l.	c #E5E5E5",
"m.	c #BDBDBD",
"n.	c #858585",
"o.	c #525252",
"p.	c #BFD271",
"q.	c #7CA459",
"r.	c #B2CA69",
"s.	c #3C412C",
"t.	c #C8C8C8",
"u.	c #F2F2F2",
"v.	c #F9F9F9",
"w.	c #FDFDFD",
"x.	c #FCFCFC",
"y.	c #FBFBFB",
"z.	c #B8B8B8",
"A.	c #7B7B7B",
"B.	c #434343",
"C.	c #BED16F",
"D.	c #8FB25D",
"E.	c #8BAF5C",
"F.	c #444837",
"G.	c #C7C7C7",
"H.	c #EDEDED",
"I.	c #FAFAFA",
"J.	c #F8F8F8",
"K.	c #FFFFFF",
"L.	c #F7F7F7",
"M.	c #DDDDDD",
"N.	c #A3A3A3",
"O.	c #5B5B5B",
"P.	c #333333",
"Q.	c #BDD16F",
"R.	c #C1D570",
"S.	c #8FB15D",
"T.	c #90B25E",
"U.	c #C1D571",
"V.	c #B4CC6B",
"W.	c #484C3C",
"X.	c #909090",
"Y.	c #DCDCDC",
"Z.	c #FEFEFE",
"`.	c #717171",
" +	c #222222",
".+	c #BDD16E",
"++	c #A1C062",
"@+	c #434836",
"#+	c #808080",
"$+	c #CDCDCD",
"%+	c #ECECEC",
"&+	c #BFBFBF",
"*+	c #1E1E1E",
"=+	c #9EBD62",
"-+	c #3C402C",
";+	c #5C5C5C",
">+	c #A6A6A6",
",+	c #DFDFDF",
"'+	c #BABABA",
")+	c #6F6F6F",
"!+	c #1B1B1B",
"~+	c #84A95B",
"{+	c #3B402B",
"]+	c #323232",
"^+	c #C3C3C3",
"/+	c #F5F5F5",
"(+	c #606060",
"_+	c #A2C063",
":+	c #B5CC6B",
"<+	c #414533",
"[+	c #171717",
"}+	c #494949",
"|+	c #929292",
"1+	c #E6E6E6",
"2+	c #F6F6F6",
"3+	c #F1F1F1",
"4+	c #DBDBDB",
"5+	c #B0B0B0",
"6+	c #7A7A7A",
"7+	c #1F1F1F",
"8+	c #8FB25E",
"9+	c #BED270",
"0+	c #424635",
"a+	c #1C1C1C",
"b+	c #535353",
"c+	c #898989",
"d+	c #DADADA",
"e+	c #E3E3E3",
"f+	c #E2E2E2",
"g+	c #DEDEDE",
"h+	c #CCCCCC",
"i+	c #A0A0A0",
"j+	c #262626",
"k+	c #71736A",
"l+	c #060606",
"m+	c #474747",
"n+	c #737373",
"o+	c #969696",
"p+	c #9C9C9C",
"q+	c #9B9B9B",
"r+	c #343434",
"s+	c #BBCF6E",
"t+	c #BFD371",
"u+	c #8B8D86",
"v+	c #6E6E6E",
"w+	c #636363",
"x+	c #555555",
"y+	c #272727",
"z+	c #424242",
"A+	c #444444",
"B+	c #3B3B3B",
"C+	c #151515",
"D+	c #515151",
"E+	c #BDD171",
"F+	c #8F9189",
"G+	c #4F4F4F",
"H+	c #373737",
"I+	c #484848",
"J+	c #4B4B4B",
"K+	c #313131",
"L+	c #181818",
"M+	c #0F0F0F",
"N+	c #121212",
"O+	c #676767",
"P+	c #7E7E7E",
"Q+	c #727272",
"R+	c #5E5E5E",
"S+	c #BDD071",
"T+	c #63665A",
"U+	c #393939",
"V+	c #818181",
"W+	c #939393",
"X+	c #696969",
"Y+	c #454545",
"Z+	c #414141",
"`+	c #303030",
" @	c #2F2F2F",
".@	c #959595",
"+@	c #ACACAC",
"@@	c #8A8A8A",
"#@	c #616161",
"$@	c #545454",
"%@	c #BFD270",
"&@	c #474B38",
"*@	c #7C7C7C",
"=@	c #D2D2D2",
"-@	c #848484",
";@	c #AFAFAF",
">@	c #707070",
",@	c #646464",
"'@	c #787878",
")@	c #666666",
"!@	c #A7A7A7",
"~@	c #EAEAEA",
"{@	c #9A9A9A",
"]@	c #3D432B",
"^@	c #3C3C3C",
"/@	c #8E8E8E",
"(@	c #C9C9C9",
"_@	c #CECECE",
":@	c #BEBEBE",
"<@	c #C1C1C1",
"[@	c #6C6C6C",
"}@	c #A8A8A8",
"|@	c #E1E1E1",
"1@	c #EBEBEB",
"2@	c #AAAAAA",
"3@	c #3F3F3F",
"4@	c #3A3F26",
"5@	c #4D4D4D",
"6@	c #878787",
"7@	c #F0F0F0",
"8@	c #EFEFEF",
"9@	c #6B6B6B",
"0@	c #D8D8D8",
"a@	c #656565",
"b@	c #3D3D3D",
"c@	c #383D22",
"d@	c #D5D5D5",
"e@	c #919191",
"f@	c #464646",
"g@	c #CBCBCB",
"h@	c #CACACA",
"i@	c #353535",
"j@	c #373D21",
"k@	c #D3D3D3",
"l@	c #CFCFCF",
"m@	c #757575",
"n@	c #BBBBBB",
"o@	c #2E2E2E",
"p@	c #8CAF5D",
"q@	c #373D22",
"r@	c #979797",
"s@	c #C0C0C0",
"t@	c #E9E9E9",
"u@	c #373C20",
"v@	c #F3F3F3",
"w@	c #A4A4A4",
"x@	c #363C20",
"y@	c #777777",
"z@	c #2B2B2B",
"A@	c #E4E4E4",
"B@	c #363C1F",
"C@	c #B9B9B9",
"D@	c #BCBCBC",
"E@	c #949494",
"F@	c #353B1D",
"G@	c #686868",
"H@	c #F4F4F4",
"I@	c #A2A2A2",
"J@	c #E0E0E0",
"K@	c #797979",
"L@	c #C6C6C6",
"M@	c #1A1A1A",
"N@	c #2D2D2D",
"O@	c #6A6A6A",
"P@	c #C2C2C2",
"Q@	c #505050",
"R@	c #81A85A",
"S@	c #343A1C",
"T@	c #6D6D6D",
"U@	c #D1D1D1",
"V@	c #252525",
"W@	c #8D8D8D",
"X@	c #A5A5A5",
"Y@	c #868686",
"Z@	c #9D9D9D",
"`@	c #C4C4C4",
" #	c #98B860",
".#	c #87AB5B",
"+#	c #8EB15D",
"@#	c #3C422A",
"##	c #1D1D1D",
"$#	c #B5B5B5",
"%#	c #3A3A3A",
"&#	c #5F654C",
"*#	c #3F4430",
"=#	c #222220",
"-#	c #282828",
";#	c #0A0A0A",
">#	c #616459",
",#	c #5D634A",
"'#	c #404530",
")#	c #191A16",
"!#	c #090909",
"~#	c #020202",
"{#	c #7D7D7D",
"]#	c #414632",
"^#	c #5C5F52",
"/#	c #83A85A",
"(#	c #464A38",
"_#	c #040404",
":#	c #050505",
"<#	c #161616",
"[#	c #808474",
"}#	c #3E3F3D",
"|#	c #292929",
"1#	c #9B9C96",
"2#	c #ABADA7",
"3#	c #BFD372",
"4#	c #525648",
"5#	c #7F7F7F",
"6#	c #747474",
"7#	c #54574A",
"8#	c #C5C5C5",
"9#	c #A2C163",
"0#	c #525547",
"a#	c #D4D4D4",
"b#	c #91B35E",
"c#	c #494D3D",
"d#	c #9F9F9F",
"e#	c #97B85F",
"f#	c #B9CC6F",
"g#	c #79A158",
"h#	c #85AA5B",
"i#	c #393E27",
"j#	c #D6D6D6",
"k#	c #87AC5B",
"l#	c #99B960",
"m#	c #353A21",
"n#	c #32381C",
"o#	c #B1B1B1",
"p#	c #303619",
"q#	c #7FA659",
"r#	c #303618",
"s#	c #4A4A4A",
"t#	c #30361A",
"u#	c #8F8F8F",
"v#	c #999999",
"w#	c #99BA60",
"x#	c #32371C",
"y#	c #0D0D0D",
"z#	c #515934",
"A#	c #3F4527",
"B#	c #41472C",
"C#	c #3F462C",
"D#	c #43492E",
"E#	c #464C32",
"F#	c #444A30",
"G#	c #3C4327",
"H#	c #3A4122",
"I#	c #40472A",
"J#	c #4F543F",
"K#	c #5E6251",
"L#	c #686C5E",
"M#	c #6C6F63",
"N#	c #6F7366",
"O#	c #666A5B",
"P#	c #575B49",
"Q#	c #454B33",
"R#	c #7AA359",
"S#	c #B0CA68",
"T#	c #9BBB61",
"U#	c #9EBE61",
"V#	c #A2C162",
"W#	c #9CBB61",
"X#	c #9FBE61",
"Y#	c #8BAF5D",
"Z#	c #80A65A",
"                                                                                                                                ",
"                    . + @ # $ % % % % % % % % $ & * . + @ # $ % % % = - ; + * & $ % % % % % % % % $ # @ + .                     ",
"          @ > , , , , , & ' ) ! ! ! ! ! ! ! ! ~ { ] , ^ / ( ) ! ! ! ! _ % ^ ] { ! ! ! ! ! ! ! ! ! ) ' & , , , , : < .           ",
"          , [ } | | | | } _ ! ! ! ! ! ! 1 1 ! ! _ | | | } _ ! ! 2 ) ! ! 3 | | _ ~ 2 2 2 2 2 ) ! ! ! _ } | | | | $ 4 @           ",
"        ] 5 _ ) ~ ~ ~ ! ! ! ! ! ! ! 6 ! 7 8 2 6 ! ! ! ! ! ! 6 9 0 a ! ! ! ! ! ! b c d d d d e ! ! ! ! ~ ~ ~ ~ ) f g h &         ",
"      i 5 ! ! ! ! ! ! 9 j k l e 7 m e 7 n o p e 7 a q 9 r e s t u v j 1 w e e e x y z A A A 0 2 j s ! ! ! ! ! ! ! ! ! % B       ",
"      C 3 ! ! ! ! ! 2 D E r D F G F H H y A H I I o e p F H J j o A K L x H H G F A A A A A M N E O q q ) ) k ) ! ! ! P B       ",
"      , C ! ! ! ! 2 8 o Q R o F D d A A A A Q M M H S S T T U V W X Y E F z Q M M T A A A A o E T o V d Z b x b ! ! ! - *       ",
"      < - ! ! 6 q p o z A A z F J v A A A A Q x x Y `  ...+.+.@.#.$.%.&.Q Q T x x Q A A A A A A A A z A *.x H c b ! ! 5 &       ",
"    * =.-.! ! 2 ;.F A A A A A A Q y A A A A A y y >.,.'.).!.~.{.].^./.(._.:.<.y y A A A A A A A A A A A y y A y d s ) ! [ [.    ",
"  . }.h } ! 1 8 o A A A A A A A A A A A A A A A T |.1.2.3.4.5.6.7.8.9.0.a.~.b.<.A A A A A A A A A A A A A A A A H v w ! ( c..   ",
"  + [.( ) ! ! a v Q A A A A A A A A A A A A A A d.e./.f.g.h.i.j.k.k.l.m.n.o.2.f.p.A A A A A E c H A A A A A A A z F j ! } % c.  ",
"  q.] f ! 1 s w r.H A A A A A A A A A A A A A A s.^.4.t.l.u.v.w.x.y.v.i.z.A.B.(.C.A A A A A x 7 I A A A A H o H z F Z 6 ! _ D.  ",
"  E.( _ ! w K o I A A A A A A A A A A A A A A A F.b.G.H.I.J.I.w.K.I.L.J.M.N.O.P.Q.A A A A A Y G Q A A A A K e K R.F j ! ! _ S.  ",
"  T.! ! 6 j F U.z A A A A A A Y V.V A A A A A A W.X.Y.I.w.w.w.x.Z.w.v.L.k.z.`. +.+A A A A A A A A A A A A o x o A T d a ++P c.  ",
"  D.6 ! 6 Z I G o y A A A A A I p c A A A A A A @+#+$+u.w.K.x.w.Z.w.I.v.%+&+3.*+.+A A A A A A A A A A A A A A A A Q u D =+[..   ",
"  D.6 ! ! a o 0 D H A A A A A y F H A A A A A A -+;+>+,+x.Z.v.w.w.v.I.w.%+'+)+!+.+A A A A A A A A A A A A A A A A F ;.q ( ~+<   ",
"  D._ ~ r v H n v Q A A A A A A A A A A A A A A {+]+A.^+j.v.L.w.x.J.J./+Y.>+(+@..+A A A A A A A A A A A A A A A A T v r _+g ,   ",
"  D._ ) :+A A A A A A A A A A A A A A A A A A A <+[+}+|+t.1+2+y.y.v.3+4+5+6+B.7+.+A A A A A A A A A A A A A A A A A A V.) 6 8+  ",
"  D._ ) 0 T A A A A A A A A A A A A A A A A A 9+0+'.a+b+c+g.d+e+f+g+h+i+)+B. +j+Q.A A A A A A A A A A A A A A A A A A M ) _ D.  ",
"  D._ ! s 0 H A A A A A A A A A A A p.9+9+9+9+k+P.@.l+!+m+n+o+p+q+4.0.^.r+[++.j+s+9+t+A A A A A A A A A A A A A A A A M ) _ D.  ",
"  D._ ! s J F E K Q A A A A A A A p.u+v+(+_.w+x+r+y+7++.,.).B.z+B.A+B+[+C+C+P.A+D+`.X.E+A A A A A A A A A A A A A A A :+) _ D.  ",
"  D._ ) J Q T 8 D H A A A A A A A F+G+H+I+(.^.J+ .r+B+K+L+'.M+M++.N+C+@.$.]+O+P+Q+R+;+6+S+A A A A A y Y T A A A A A H O ) _ D.  ",
"  D._ ) V.A A u u y A A A A A A A T+U+o.V+W+0.X+Y+Z+/.O+a.Z+`+e. @H+Y+~.z+~..@g.+@@@#@$@3.%@A A A A u ;.v A A A A H 8 l ! 6 D.  ",
"  , h _+r v Q z A A A A T d n A A &@B+*@G.,+=@5.w+].-@+@;@@@>@,@X+'@f..@n+)@!@Y.~@h.{@a.}+Y A A A A o 0 E A A A o 0 9 ! ++h ,   ",
"  < ~+( ) L E T A A A A F ;.M y A ]@^@n.h.3+,+8._.x+/@(@,+_@^+:@<@t.$+G.@@[@}@|@J.1@2@_.3@Y A A A A A y A A A A v w 1 ~ ( ~+<   ",
"  . [.( ! 1 L v A A A A y o I A A 4@U+n.Y./+M.N.(.5@6@$+3+7@8@j.8@3+7@|@o+9@p+0@v.7@8.a@b@Y A A A A A A A A A A H v w ! ( [..   ",
"  + [.( ! 9 D u A A A A A A A A A c@r+V+d+u.d@e@2.f@V+g@/+I.I.I.w.Z.I.k.4.,@c+h@/+3+;@w+i@Y A A A A A A A A A A o O 9 ! ( [.+   ",
"  q.& f ! L I A H u H A A A A A A j@]+A.k@~@(@P+Z+B.V+l@v.I.J.2+I.w.J.l.o+/.m@n@3+7@9.R+o@Y A A A A A A A A A A c 2 ! ~ f & q.  ",
"  p@f _ ! j F R.K r K A A A A A A q@`+'@_@l.<@>@U+!.V+=@w.K.Z.x.Z.K.y.1+r@(.w+5+j.8@2@a.e.Y A A A A A A A A A A *.2 ! ! _ f p@  ",
"  T.! ) a d T A o c o A A A A A A j@`+'@_@1+s@O+P.U+'@h@J.K.Z.y.w.K.x.t@r@$@$@5.1@1@N.b+e.Y A A A A A A A A A A o J l ! ! ! T.  ",
"  D._ ) V.A A A A A A A A A A A A u@`+'@l@i.s@_. @P.`.^+v@x.x.v.x.K.Z.H.r@o.J+w@t@1+p+J+o@Y A A A A A A A Y E Y z F j 6 ! 6 D.  ",
"  D._ ) J Q A A A A A A A A A A A x@ @y@h+l.:@/.z@o@9@m.8@x.w.y.w.Z.I.t@o+o.m+w@~@A@4.I+r+Y A A A A A A A K a K R.F j 6 ! 6 D.  ",
"  T.! ~ w M H A A A A A A A A A A B@`+'@(@|@C@{.j+e.O+D@7@w.w.K.K.w.L.l.E@G+J+N.i.e+o+Y+i@Y A A A A A A A I d I z F j 6 ! 6 D.  ",
"  i 5 3 6 L F A A A A A A A A A A F@K+P+t.Y.6.5@$.e.G@s@H@w.v.w.Z.Z.x.k.W+}+o.I@J@e+E@!.]+Y A A A A A A A A A A z F j 6 ! 6 D.  ",
"  * ^ ( ! j F A A A A A A A A A A F@`+K@L@d+8.z+M@N@O@P@/+w.v.w.v.I.w.k..@5@Q@>+i.1+4.A+z@Y A A A T H A A A A A A u b 6 ! 6 D.  ",
"  + R@( ! j F z A A A A A A A A A S@e.T@m.U@!@ .,.V@X+P@H@w.y.Z.J.v.I.,+W@}+2.X@l.M.o+m+z@Y A A y x O H A A A A n a 2 ! ! ! 8+  ",
"  : T.| ! s M G A Q K n y A A A A j@#.D+|+>+Y@z@M+z@9@s@u.I.y.Z.x.w./+$+*@B.b+Z@k@`@-@3@N@Y A A A *.M H A A A A E 7 2 ! 3  #.#  ",
"  +#3 ! ! ) w v A H D 8 T A A A A @#C+z@o.)@].##,.e.a@$#|@i.~@3+/+/+e+8.)@%#].c+!@.@#@ @ .Y A A A Q Q A A Q F Q A o e k ( > <   ",
"  8+! ! ! w d H A y u o A A A A A &#*#=#7+z@-#+.;# +$@E@z.n@m.h@d@k@n@-@J+K+5@,@,@o.K+e.>#9+A A A A A A A E 7 E z y u D =+[..   ",
"  D._ ~ Z c T A A A A A A A A A A A A ,#'#)#!#~#~#+.%.#@y@'@y@:.e@|+{#o.K+j+%#!.e.{+]#^#Y A A A A A A A A u J u A A A x 3 - /#  ",
"  D._ ) D o y A A A A A A A A A A A A A A (#+._#:#,.<#V@`+K+`+%.!.!.%...7+z@I+$@Q@Y A A A A A A A A A A A A y A A A A M ) _ S.  ",
"  D._ ! q p Y A A A A A A A A A A A A A A [#}#!+M@a+*+a+a+*+##@.!+##..N@|#B.n+1#2#3#A A A A A A A A A A A A A A A A A M ) _ D.  ",
"  D._ ~ j d T A A A A A A A A A A A A A A A 4# .R+'@{#{#5#{#3.>@y@*@#+-@a@o.6#9+A A A A A A A A A A A A A A A A A H c j ++= ;   ",
"  8+6 ) D o y A A A A A A A A A A A A A A A 7#G+@@6.<@8#8#D@>+q+9.m.8#L@/@;+_.9+A A A A A A A A A A A A A A A A z F j ! ( [..   ",
"  +#9#! 2 7 I A A A A A A A A A A A A A A A 0#O.N.a#~@3+j.Y.5+Z@m.g+8@%+}@G@;+Y A A A A A A A A A A A Q A A A A A o L ! ( ~+<   ",
"  [.b#| ! q 7 E A A A A A A A A A A A A A A c#R+8.i.I.Z.v.e+d##+;@e+w./+m.{#^.C.A A A A A A A A A A o 0 E A A A E 7 q ! 3 e#,   ",
"  + [.( ~ 2 N K A A A F E H A A A A A A A A *#].!@A@I.Z.v.,+/@)@p+4+x.L.k@.@;+f#A A A A A A A A A A u ;.V A A A K N 2 ! ! ! D.  ",
"  g#h#( ! w K T A A A d a E A A A A A A A A i#Q@I@,+v.Z.L.d+6@;+|+j#w.I.l.+@G@)@9+A A A A A A A A A y H T A A A T K w 6 ! 6 D.  ",
"  k#l#3 ! q e E A A A o v F A A A A A A A A m#G+I@f+v.x.8@h@P+(.f.k@x.w.3+m.3.G+C.A A A A A A A A A A A A A A A E e q ! ! ! T.  ",
"  T.! ! ! 2 r E A A A A A A A H K u A A A A n#G+w@l.v.I.1+o#T@b+f.=@x.Z./+G.#+Z+C.A A A A A A A A A A A A A A A E r 2 ! 3 l#i   ",
"  # } ! 6 b u A A A A A A A A G m x A A A A p#5@i+e+v.x.J@q+R+D+e@j#Z.Z.2+g@-@%#Q.A A A A A A A A A A A A A A A A u b ! ( h#*   ",
"  q## | ! j F z A A A A A A A T E o A A A A r#s#q+Y.2+I.Y.@@o.o.4.d+x.y./+h+6@B+Q.A A A A A A A A A A A A A A A z F j ! ( [..   ",
"  + [.( ! s J x v Q A A A A A A A A A A A A t#B.W@h+l.k.(@A.A+;+>+Y.L.x.I.=@e@5@C.A A A A A A H d u A y K v Q A G M s ) ( /#.   ",
"      ( ) ! 1 9 D H A A A F H A A A A A A A t#N@w+u#N.5..@;+r+].v#t.|@H.3+l@r@{.C.A A A A A A o e c A T 8 D H z d q ! 9#w#      ",
"      ' ) ! ) 8 o y A A F D V.y A A A A A A x#y#1.]+^@J+2.]+ +3@Q+r@9.'+s@2@5#2.C.A A A A A A T u F A A o o y A c 1 ! e#;       ",
"      +#[ ! ) e v A R.o M O V A A A A A A A z#A#B#C#D#E#F#G#H#I#J#K#L#M#N#O#P#Q#c A A A A A A z z A A A R.U.A v r ) ! - g#      ",
"      R#% ! ! ! j n o 0 s x u o Q Y G y A A A F M s x u o T A A A H c s O o E j N E Q A A A Y G y A T o u u n j ! ! ! P B       ",
"      * - _ ! ! 2 s t q ) l s a u :+7 G A A H 8 q ) 9 s N R A y T M l ) q t s 2 1 Z E A y Q x 7 o A E j s t s 2 ! ! _ - B       ",
"        > -.9#) ~ ! ! ! ~ ! 6 q 7 b q ;.8 8 D s ! ) ! ! 1 m 8 8 D w ! ~ ! ! ! ! ! ) e 8 8 r.b q S#0 e 1 ! ! ! ~ ) 9#-.>         ",
"          [.e#T#{ { { { [ 3 | T#T#| ! ! ! ~ ! U#{ { { f ! ~ ! ! ! ~ V#[ { { W#++! ! ! ! ! ! | T#T#| ~ ! X#{ { { T#e#[.          ",
"                    =.4 ~+5 -.}.=.- 3 9#9#_ | # 4 =.q#+#++_ 9#9#9#_ { > 4 4 [. #_ 9#9#9#9#3 - =.}.$ _ } +#q#                    ",
"                    . . B , ; < . [.E.E.E.Y#& q#. . . Z#& Y#E.E.E.p@k#B . . g#h#p@E.E.E.E.E.[.. < c.Y#& =..                     ",
"                                                                                                                                "};
