/* XPM */
static char * wallside_xpm[] = {
"64 64 374 2",
"  	c None",
". 	c #77A058",
"+ 	c #76A058",
"@ 	c #7BA359",
"# 	c #8DB05D",
"$ 	c #94B55F",
"% 	c #93B55E",
"& 	c #8AAE5C",
"* 	c #79A258",
"= 	c #93B55F",
"- 	c #92B45E",
"; 	c #83A95B",
"> 	c #84AA5B",
", 	c #86AB5B",
"' 	c #9DBD61",
") 	c #A5C363",
"! 	c #A4C263",
"~ 	c #A5C263",
"{ 	c #9BBB60",
"] 	c #89AD5C",
"^ 	c #85AB5B",
"/ 	c #8BAE5C",
"( 	c #9EBD61",
"_ 	c #A3C163",
": 	c #81A75A",
"< 	c #78A158",
"[ 	c #9CBC61",
"} 	c #A1BF62",
"| 	c #A0BF62",
"1 	c #A5C364",
"2 	c #A6C364",
"3 	c #A2C062",
"4 	c #7EA559",
"5 	c #9ABA60",
"6 	c #A3C263",
"7 	c #AFC968",
"8 	c #B2CB69",
"9 	c #A8C465",
"0 	c #B3CB6A",
"a 	c #ADC867",
"b 	c #ABC666",
"c 	c #B6CD6B",
"d 	c #B7CE6C",
"e 	c #AEC868",
"f 	c #9FBE62",
"g 	c #97B860",
"h 	c #96B75F",
"i 	c #88AC5C",
"j 	c #ACC767",
"k 	c #A6C464",
"l 	c #A8C565",
"m 	c #AEC968",
"n 	c #B9D06D",
"o 	c #BCD16E",
"p 	c #B0CA69",
"q 	c #A7C464",
"r 	c #AEC867",
"s 	c #A9C565",
"t 	c #AAC566",
"u 	c #BBD16E",
"v 	c #B8CF6C",
"w 	c #AAC666",
"x 	c #B5CD6B",
"y 	c #BFD470",
"z 	c #C1D470",
"A 	c #C0D470",
"B 	c #7AA258",
"C 	c #98B960",
"D 	c #B1CA69",
"E 	c #BAD06D",
"F 	c #BDD26F",
"G 	c #BCD26E",
"H 	c #BED36F",
"I 	c #BDD26E",
"J 	c #B3CC6A",
"K 	c #B9CF6D",
"L 	c #ABC766",
"M 	c #B4CC6A",
"N 	c #ADC767",
"O 	c #B2CB6A",
"P 	c #93B45E",
"Q 	c #BFD370",
"R 	c #BBD06D",
"S 	c #BED26F",
"T 	c #BBD06E",
"U 	c #C0D370",
"V 	c #BDD16E",
"W 	c #BACF6D",
"X 	c #BFD26F",
"Y 	c #C1D370",
"Z 	c #BDD16F",
"` 	c #BFD270",
" .	c #B4CB6A",
"..	c #BFD36F",
"+.	c #B9CF6C",
"@.	c #ACC766",
"#.	c #B5CA6A",
"$.	c #BAAC67",
"%.	c #BAA166",
"&.	c #B9A166",
"*.	c #B89F65",
"=.	c #B79F65",
"-.	c #B9A065",
";.	c #B79E64",
">.	c #B6A866",
",.	c #BDC46D",
"'.	c #B6CE6B",
").	c #7FA65A",
"!.	c #95B65F",
"~.	c #B0C968",
"{.	c #BED06F",
"].	c #B99C65",
"^.	c #B78B62",
"/.	c #BDBF6C",
"(.	c #82A85A",
"_.	c #80A75A",
":.	c #BFCF6F",
"<.	c #B78A62",
"[.	c #B99B65",
"}.	c #83A95A",
"|.	c #7CA459",
"1.	c #B2CA69",
"2.	c #BAA767",
"3.	c #BCA36B",
"4.	c #D7BB91",
"5.	c #DDC199",
"6.	c #C7AC79",
"7.	c #BAAB67",
"8.	c #BEC56D",
"9.	c #8FB25D",
"0.	c #8BAF5C",
"a.	c #B89664",
"b.	c #B78C62",
"c.	c #BB9369",
"d.	c #DFC39B",
"e.	c #E7CEA5",
"f.	c #DFC49B",
"g.	c #C9A67E",
"h.	c #BDC06C",
"i.	c #C1D570",
"j.	c #8FB15D",
"k.	c #90B25E",
"l.	c #C1D571",
"m.	c #B4CC6B",
"n.	c #B89464",
"o.	c #BB9169",
"p.	c #E0C49C",
"q.	c #E8CFA6",
"r.	c #C9A57E",
"s.	c #B99964",
"t.	c #A1C062",
"u.	c #9EBD62",
"v.	c #84A95B",
"w.	c #A2C063",
"x.	c #B5CC6B",
"y.	c #8FB25E",
"z.	c #90B25D",
"A.	c #A4C063",
"B.	c #A6C263",
"C.	c #B3CA6A",
"D.	c #DFC49C",
"E.	c #B89964",
"F.	c #B6A268",
"G.	c #BBA769",
"H.	c #BBA869",
"I.	c #BCA96A",
"J.	c #BFAB6B",
"K.	c #C2AE6D",
"L.	c #C3AE6D",
"M.	c #BAA667",
"N.	c #BAA567",
"O.	c #B0845D",
"P.	c #AE7F5C",
"Q.	c #B1835F",
"R.	c #CAA57B",
"S.	c #D0AD81",
"T.	c #D3B287",
"U.	c #E2C79E",
"V.	c #E4C9A0",
"W.	c #D8B98F",
"X.	c #CAA57C",
"Y.	c #BA906B",
"Z.	c #B0865E",
"`.	c #B69B63",
" +	c #BBA667",
".+	c #C1AC6B",
"++	c #C49A6C",
"@+	c #B88C63",
"#+	c #AB7B5A",
"$+	c #AA7959",
"%+	c #AC7C5B",
"&+	c #BF9569",
"*+	c #C9A376",
"=+	c #DFC39A",
"-+	c #E2C69D",
";+	c #D0AD83",
">+	c #B38560",
",+	c #B3855F",
"'+	c #B98C63",
")+	c #C19669",
"!+	c #C2986B",
"~+	c #C2976B",
"{+	c #B68961",
"]+	c #C9A275",
"^+	c #DEC197",
"/+	c #E6CCA2",
"(+	c #E0C49A",
"_+	c #D0AC81",
":+	c #B2845F",
"<+	c #B78B63",
"[+	c #BF9468",
"}+	c #B48661",
"|+	c #B48660",
"1+	c #B0805D",
"2+	c #AF805C",
"3+	c #AB7A59",
"4+	c #C69D70",
"5+	c #CFAB7F",
"6+	c #D2B085",
"7+	c #AB7A5A",
"8+	c #AD7E5B",
"9+	c #AF805D",
"0+	c #A57E59",
"a+	c #A67F59",
"b+	c #A9835A",
"c+	c #A9845A",
"d+	c #AA845A",
"e+	c #AB855B",
"f+	c #AC865C",
"g+	c #AD875C",
"h+	c #AA7B59",
"i+	c #AA7C5A",
"j+	c #AC835B",
"k+	c #919459",
"l+	c #989B5B",
"m+	c #A4A65E",
"n+	c #A7A95F",
"o+	c #ABAC61",
"p+	c #B5B466",
"q+	c #B7B667",
"r+	c #B6B567",
"s+	c #B4B466",
"t+	c #AB815B",
"u+	c #B3A563",
"v+	c #B1B164",
"w+	c #A8AA60",
"x+	c #8CAF5D",
"y+	c #AE8D5D",
"z+	c #B9BD69",
"A+	c #97AF5F",
"B+	c #A7BD64",
"C+	c #A9BF64",
"D+	c #B6C76B",
"E+	c #C0CE70",
"F+	c #BFCD6F",
"G+	c #BFCD6E",
"H+	c #AC855B",
"I+	c #AD8B5D",
"J+	c #B9B768",
"K+	c #C0CE6F",
"L+	c #BFCC6F",
"M+	c #BBCA6D",
"N+	c #C1CE70",
"O+	c #BECC6F",
"P+	c #AFC268",
"Q+	c #A7BE64",
"R+	c #A8BE64",
"S+	c #AFA566",
"T+	c #B7AC68",
"U+	c #B7AD68",
"V+	c #BDB26B",
"W+	c #C2B66E",
"X+	c #BCB069",
"Y+	c #BBAF68",
"Z+	c #AC805B",
"`+	c #AD845C",
" @	c #B6A064",
".@	c #C1B46C",
"+@	c #BFB46C",
"@@	c #BAB06A",
"#@	c #C3B76E",
"$@	c #C1B56D",
"%@	c #BAAF6A",
"&@	c #C1976A",
"*@	c #C1966A",
"=@	c #B68861",
"-@	c #AC7C5A",
";@	c #B2845E",
">@	c #BE9368",
",@	c #B68962",
"'@	c #B1825D",
")@	c #B0815D",
"!@	c #AE7E5C",
"~@	c #B1825E",
"{@	c #BF9368",
"]@	c #C3996B",
"^@	c #AC7B5A",
"/@	c #B98D64",
"(@	c #BD9166",
"_@	c #BE9267",
":@	c #C3986B",
"<@	c #BA8D64",
"[@	c #B1815E",
"}@	c #B58760",
"|@	c #C2976A",
"1@	c #BB8F65",
"2@	c #A97D59",
"3@	c #AA7E5A",
"4@	c #AA7F5A",
"5@	c #AB7F5A",
"6@	c #AB805A",
"7@	c #AA7A59",
"8@	c #C09669",
"9@	c #C3996C",
"0@	c #AB7D5A",
"a@	c #AA7E59",
"b@	c #A87C59",
"c@	c #9A9F5C",
"d@	c #A6AA5F",
"e@	c #A7AB5F",
"f@	c #AEB063",
"g@	c #B5B566",
"h@	c #B7B868",
"i@	c #B8B868",
"j@	c #B88B63",
"k@	c #B3A663",
"l@	c #B9B868",
"m@	c #B6B667",
"n@	c #ABAE62",
"o@	c #A3A75E",
"p@	c #93985A",
"q@	c #8E9258",
"r@	c #8EB15D",
"s@	c #A2C163",
"t@	c #91B35E",
"u@	c #97B85F",
"v@	c #79A158",
"w@	c #85AA5B",
"x@	c #B9BB69",
"y@	c #B8B768",
"z@	c #B79563",
"A@	c #B8AD66",
"B@	c #BABF6A",
"C@	c #BECC6E",
"D@	c #87AC5B",
"E@	c #99B960",
"F@	c #C0D270",
"G@	c #BFCE6F",
"H@	c #BDBE6B",
"I@	c #BDCE6E",
"J@	c #7FA659",
"K@	c #BDC26C",
"L@	c #BDBF6B",
"M@	c #B9BC69",
"N@	c #B2B767",
"O@	c #B8BC69",
"P@	c #BEC36C",
"Q@	c #BFD16F",
"R@	c #C0D26F",
"S@	c #BBCF6E",
"T@	c #B2C96A",
"U@	c #BACE6D",
"V@	c #83A85A",
"W@	c #99BA60",
"X@	c #7AA359",
"Y@	c #B0CA68",
"Z@	c #9BBB61",
"`@	c #9EBE61",
" #	c #A2C162",
".#	c #9CBB61",
"+#	c #9FBE61",
"@#	c #98B860",
"##	c #8BAF5D",
"$#	c #80A65A",
"                                                                                                                                ",
"                    . + @ # $ % % % % % % % % $ & * . + @ # $ % % % = - ; + * & $ % % % % % % % % $ # @ + .                     ",
"          @ > , , , , , & ' ) ! ! ! ! ! ! ! ! ~ { ] , ^ / ( ) ! ! ! ! _ % ^ ] { ! ! ! ! ! ! ! ! ! ) ' & , , , , : < .           ",
"          , [ } | | | | } _ ! ! ! ! ! ! 1 1 ! ! _ | | | } _ ! ! 2 ) ! ! 3 | | _ ~ 2 2 2 2 2 ) ! ! ! _ } | | | | $ 4 @           ",
"        ] 5 _ ) ~ ~ ~ ! ! ! ! ! ! ! 6 ! 7 8 2 6 ! ! ! ! ! ! 6 9 0 a ! ! ! ! ! ! b c d d d d e ! ! ! ! ~ ~ ~ ~ ) f g h &         ",
"      i 5 ! ! ! ! ! ! 9 j k l e 7 m e 7 n o p e 7 a q 9 r e s t u v j 1 w e e e x y z A A A 0 2 j s ! ! ! ! ! ! ! ! ! % B       ",
"      C 3 ! ! ! ! ! 2 D E r D F G F H H y A H I I o e p F H J j o A K L x H H G F A A A A A M N E O q q ) ) k ) ! ! ! P B       ",
"      , C ! ! ! ! 2 8 o Q R o F D d A A A A Q M M S T T U U V W X Y X W Z Y `  . ...A A A A o E ..o +.d @.b x b ! ! ! - *       ",
"      < - ! ! 6 q p o z A A z F J v A A A A Q x #.$.%.&.&.&.&.&.&.*.=.-.&.&.-.;.>.,.A A A A A A A A z A '.x H c b ! ! 5 &       ",
"    * ).!.! ! 2 ~.F A A A A A A Q y A A A A A y {.].^.^.^.^.^.^.^.^.^.^.^.^.^.^.]./.A A A A A A A A A A y y A y d s ) ! [ (.    ",
"  . _.h } ! 1 8 o A A A A A A A A A A A A A A A :.].<.<.<.<.<.<.<.<.<.<.<.<.<.<.[./.A A A A A A A A A A A A A A H v w ! ( }..   ",
"  + (.( ) ! ! a v Q A A A A A A A A A A A A A A :.].<.<.<.<.<.<.<.<.<.<.<.<.<.<.[./.A A A A E c H A A A A A A A z F j ! } % }.  ",
"  |.] f ! 1 s w 1.H A A A A A A A A A A A 2.&.&.3.4.5.5.5.5.5.5.5.5.5.5.5.5.5.5.4.6.&.&.7.8.x 7 I A A A A H o H z F @.6 ! _ 9.  ",
"  0.( _ ! w K o I A A A A A A A A A A A A a.b.b.c.d.e.e.e.e.e.e.e.e.e.e.e.e.e.e.f.g.b.b.[.h.S G Q A A A A K e K i.F j ! ! _ j.  ",
"  k.! ! 6 j F l.z A A A A A A S m.+.A A A n.<.<.o.p.q.q.q.q.q.q.q.q.q.q.q.q.q.q.p.r.<.<.s.h.A A A A A A A o x o A ..d a t.P }.  ",
"  9.6 ! 6 @.I G o y A A A A A I p c A A A n.<.<.o.p.q.q.q.q.q.q.q.q.q.q.q.q.q.q.p.r.<.<.s.h.A A A A A A A A A A A Q u D u.(..   ",
"  9.6 ! ! a o 0 D H A A A A A y F H A A A n.<.<.o.p.q.q.q.q.q.q.q.q.q.q.q.q.q.q.p.r.<.<.s.h.A A A A A A A A A A A F ~.q ( v.<   ",
"  9._ ~ r v H n v Q A A A A A A A A A A A n.<.<.o.p.q.q.q.q.q.q.q.q.q.q.q.q.q.q.p.r.<.<.s.h.A A A A A A A A A A A ..v r w.g ,   ",
"  9._ ) x.A A A A A A A A A A A A A A A A n.<.<.o.p.q.q.q.q.q.q.q.q.q.q.q.q.q.q.p.r.<.<.s.h.A A A A A A A A A A A A A m.) 6 y.  ",
"  z.A.B.C.X U U U U U U U U U U U U U U U n.<.<.o.f.e.e.e.q.q.q.q.q.q.q.q.q.e.e.D.r.<.<.E./.U U U U U U U U U U U U U  .B.A.z.  ",
"  F.G.H.I.J.K.L.L.L.L.L.L.L.L.L.L.M.N.N.N.O.P.P.Q.R.S.S.T.U.q.q.q.q.q.q.V.W.S.S.X.Y.P.P.Z.`.N.N. +.+L.L.L.L.L.L.L.L.L.J.H.G.F.  ",
"  ++++++++++++++++++++++++++++++++@+<.<.<.#+$+$+%+&+++++*+=+q.q.q.q.q.q.-+;+++++&+>+$+$+%+,+<.<.'+)+++++++++++++++++++++++++++++",
"  ++++++++++++++++++++++++++++++++@+<.<.<.#+$+$+%+&+++++*+=+q.q.q.q.q.q.-+;+++++&+>+$+$+%+,+<.<.'+)+++++++++++++++++++++++++++++",
"  !+!+!+!+!+!+!+!+!+!+!+!+!+!+!+~+^.{+{+{+#+$+$+%+&+++++]+^+/+/+/+/+/+/+(+_+++++&+>+$+$+%+:+{+{+<+[+!+!+!+!+!+!+!+!+!+!+!+!+!+!+",
"  }+}+}+}+}+}+}+}+}+}+}+}+}+}+}+|+1+2+2+2+3+$+$+%+&+++++4+5+6+6+6+6+6+6+_+]+++++&+>+$+$+7+8+2+2+9+,+}+}+}+}+}+}+}+}+}+}+}+}+}+}+",
"  $+$+$+$+$+$+$+$+$+$+$+$+$+$+$+$+$+$+$+$+$+$+$+%+&+++++++++++++++++++++++++++++&+>+$+$+$+$+$+$+$+$+$+$+$+$+$+$+$+$+$+$+$+$+$+$+",
"  $+$+$+$+$+$+$+$+$+$+$+$+$+$+$+$+$+$+$+$+$+$+$+%+&+++++++++++++++++++++++++++++&+>+$+$+$+$+$+$+$+$+$+$+$+$+$+$+$+$+$+$+$+$+$+$+",
"  0+a+b+c+d+e+f+g+g+g+g+g+g+g+g+g+g+g+g+g+h+$+$+%+&+++++++++++++++++++++++++++++&+>+$+$+i+j+g+g+g+g+g+g+g+g+g+g+f+e+d+c+b+a+0+  ",
"  k+l+m+n+o+p+q+r+s+r+q+q+q+q+q+q+q+q+q+q+t+$+$+%+&+++++++++++++++++++++++++++++&+>+$+$+f+u+q+q+q+q+q+q+q+q+q+q+v+w+n+n+m+l+k+  ",
"  x+f _ ! j F i.K r K A A A A A A A A A A g+$+$+%+&+++++++++++++++++++++++++++++&+>+$+$+y+z+A A A A A A A A A A '.2 ! ! _ f x+  ",
"  k.! ) a d ..A o c o A A A A A A A A A A g+$+$+%+&+++++++++++++++++++++++++++++&+>+$+$+y+z+A A A A A A A A A A o J l ! ! ! k.  ",
"  A+B+C+D+E+E+E+E+E+E+E+E+E+E+E+E+F+G+G+G+H+$+$+%+&+++++++++++++++++++++++++++++&+>+$+$+I+J+G+G+F+K+E+E+E+L+M+L+N+O+P+Q+R+Q+A+  ",
"  S+T+U+V+W+W+W+W+W+W+W+W+W+W+W+W+X+Y+Y+Y+Z+$+$+%+&+++++++++++++++++++++++++++++&+>+$+$+`+ @Y+Y+X+.@W+W+W++@@@+@#@$@%@U+U+U+S+  ",
"  ++++++++++++++++++++++++++++++++@+<.<.<.#+$+$+%+&+++++++++++++++++++++++++++++&+>+$+$+%+,+<.<.'+)+++++++++++++++++++++++++++++",
"  ++++++++++++++++++++++++++++++++@+<.<.<.#+$+$+%+&+++++++++++++++++++++++++++++&+>+$+$+%+,+<.<.'+)+++++++++++++++++++++++++++++",
"  &@&@&@&@&@&@&@&@&@&@&@&@&@&@&@*@<.=@=@=@#+$+$+%+&+++++++++++++++++++++++++++++&+>+$+$+-@;@=@=@<.>@&@&@&@&@&@&@&@&@&@&@&@&@&@&@",
"  ,@,@,@,@,@,@,@,@,@,@,@,@,@,@,@,@'@)@)@)@3+$+$+%+&+++++++++++++++++++++++++++++&+>+$+$+7+!@)@)@~@}+,@,@,@,@,@,@,@,@,@,@,@,@,@,@",
"  $+$+$+$+$+$+$+$+$+$+$+$+$+$+$+$+$+$+$+$+$+$+$+%+&+++++++++++++++++++++++++++++&+>+$+$+$+$+$+$+$+$+$+$+$+$+$+$+$+$+$+$+$+$+$+$+",
"  $+$+$+$+$+$+$+$+$+$+$+$+$+$+$+$+$+$+$+$+$+$+$+%+&+++++++++++++++++++++++++++++&+>+$+$+$+$+$+$+$+$+$+$+$+$+$+$+$+$+$+$+$+$+$+$+",
"  $+$+$+$+$+$+$+$+$+$+$+$+$+$+$+$+$+$+$+$+$+$+$+-@{@]@]@]@++++++++++++++++]@]@]@>@>+$+$+$+$+$+$+$+$+$+$+$+$+$+$+$+$+$+$+$+$+$+$+",
"  $+$+$+$+$+$+$+$+$+$+$+$+$+$+$+$+$+$+$+$+$+$+$+^@/@(@(@_@!+++++++++++++:@[+(@(@<@[@$+$+$+$+$+$+$+$+$+$+$+$+$+$+$+$+$+$+$+$+$+$+",
"  $+$+$+$+$+$+$+$+$+$+$+$+$+$+$+$+$+$+$+$+$+$+$+#+}@<.<.'+*@++++++++++++|@1@<.<.}@P.$+$+$+$+$+$+$+$+$+$+$+$+$+$+$+$+$+$+$+$+$+$+",
"  $+$+$+$+$+$+$+$+$+$+$+$+$+$+$+$+$+$+$+$+$+$+$+#+}@<.<.'+*@++++++++++++|@1@<.<.}@P.$+$+$+$+$+$+$+$+$+$+$+$+$+$+$+$+$+$+$+$+$+$+",
"  2@3@3@4@5@6@6@6@6@6@6@6@6@6@6@6@6@6@6@6@7@$+$+#+}@<.<.'+8@9@9@9@9@9@9@*@1@<.<.}@P.$+$+7@0@6@6@6@6@6@6@6@6@6@6@6@6@5@4@a@2@b@  ",
"  c@d@e@f@g@h@i@i@i@i@i@i@i@i@i@i@i@i@i@i@t+$+$+#+}@<.<.j@1@(@(@(@(@(@(@1@@+<.<.}@P.$+$+f+k@i@i@i@i@i@i@i@i@i@i@l@m@n@d@o@p@q@  ",
"  r@s@! 2 7 I A A A A A A A A A A A A A A g+$+$+#+}@<.<.<.<.<.<.<.<.<.<.<.<.<.<.}@P.$+$+y+z+A A A A A Q A A A A A o L ! ( v.<   ",
"  (.t@| ! q 7 E A A A A A A A A A A A A A g+$+$+#+}@<.<.<.<.<.<.<.<.<.<.<.<.<.<.}@P.$+$+y+z+A A A A o 0 E A A A E 7 q ! 3 u@,   ",
"  + (.( ~ 2 N K A A A F E H A A A A A A A g+$+$+#+}@<.<.<.<.<.<.<.<.<.<.<.<.<.<.}@P.$+$+y+z+A A A A u ~.+.A A A K N 2 ! ! ! 9.  ",
"  v@w@( ! w K ..A A A d a E A A A A A A A z+x@x@y@z@<.<.<.<.<.<.<.<.<.<.<.<.<.<.z@A@x@x@B@C@A A A A y H ..A A A ..K w 6 ! 6 9.  ",
"  D@E@3 ! q e E A A A o v F A A A A A A A U F@F@G@[.<.<.<.<.<.<.<.<.<.<.<.<.<.<.[.H@F@F@U U A A A A A A A A A A E e q ! ! ! k.  ",
"  k.! ! ! 2 r E A A A A A A A H K u A A A A A A :.].<.<.<.<.<.<.<.<.<.<.<.<.<.<.[./.A A A A A A A A A A A A A A E r 2 ! 3 E@i   ",
"  # } ! 6 b u A A A A A A A A G m x A A A A A H I@].<.<.<.<.<.<.<.<.<.<.<.<.<.<.[./.A A A A A A A A A A A A A A A u b ! ( w@*   ",
"  J@# | ! j F z A A A A A A A ..E o A A A A ..M 0 K@L@L@L@L@L@L@L@L@L@L@L@M@N@O@P@F+A A A A A A A A A A A A A A z F j ! ( (..   ",
"  + (.( ! s J x v Q A A A A A A A A A A A A Q x x Q@R@R@R@R@R@R@R@R@R@R@R@S@T@U@F@U A A A A A H d u A y K v Q A G M s ) ( V@.   ",
"      ( ) ! 1 9 D H A A A F H A A A A A A A A y y A A A A F H A A A A A A A Q A A A A A A A A o e c A ..8 D H z d q ! s@W@      ",
"      ' ) ! ) 8 o y A A F D m.y A A A A A A A A A A A A F D x A A A A A A A A A A A A A A A A ..u F A A o o y A c 1 ! u@;       ",
"      r@[ ! ) e v A i.o M O +.A A A A A A A A z o c I i...x v A A z F c u i.A v v A A A A A A z z A A A i.l.A v r ) ! - v@      ",
"      X@% ! ! ! j n o 0 s x u o Q S G y A A A F M s x u o ..A A A H c s O o E j N E Q A A A S G y A ..o u u n j ! ! ! P B       ",
"      * - _ ! ! 2 s t q ) l s a u x.7 G A A H 8 q ) 9 s N R A y ..M l ) q t s 2 1 @.E A y Q x 7 o A E j s t s 2 ! ! _ - B       ",
"        > !.s@) ~ ! ! ! ~ ! 6 q 7 b q ~.8 8 D s ! ) ! ! 1 m 8 8 D w ! ~ ! ! ! ! ! ) e 8 8 1.b q Y@0 e 1 ! ! ! ~ ) s@!.>         ",
"          (.u@Z@{ { { { [ 3 | Z@Z@| ! ! ! ~ ! `@{ { { f ! ~ ! ! ! ~  #[ { { .#t.! ! ! ! ! ! | Z@Z@| ~ ! +#{ { { Z@u@(.          ",
"                    ).4 v.5 !._.).- 3 s@s@_ | # 4 ).J@r@t._ s@s@s@_ { > 4 4 (.@#_ s@s@s@s@3 - )._.$ _ } r@J@                    ",
"                    . . B , ; < . (.0.0.0.##& J@. . . $#& ##0.0.0.x+D@B . . v@w@x+0.0.0.0.0.(.. < }.##& )..                     ",
"                                                                                                                                "};
