/* XPM */
static char * wall_xpm[] = {
"64 64 305 2",
"  	c None",
". 	c #77A058",
"+ 	c #76A058",
"@ 	c #7BA359",
"# 	c #8DB05D",
"$ 	c #94B55F",
"% 	c #93B55E",
"& 	c #8AAE5C",
"* 	c #79A258",
"= 	c #93B55F",
"- 	c #92B45E",
"; 	c #83A95B",
"> 	c #84AA5B",
", 	c #86AB5B",
"' 	c #9DBD61",
") 	c #A5C363",
"! 	c #A4C263",
"~ 	c #A5C263",
"{ 	c #9BBB60",
"] 	c #89AD5C",
"^ 	c #85AB5B",
"/ 	c #8BAE5C",
"( 	c #9EBD61",
"_ 	c #A3C163",
": 	c #81A75A",
"< 	c #78A158",
"[ 	c #9CBC61",
"} 	c #A1BF62",
"| 	c #A0BF62",
"1 	c #A5C364",
"2 	c #A6C364",
"3 	c #A2C062",
"4 	c #7EA559",
"5 	c #9ABA60",
"6 	c #A3C263",
"7 	c #AFC968",
"8 	c #B2CB69",
"9 	c #A8C465",
"0 	c #B3CB6A",
"a 	c #ADC867",
"b 	c #ABC666",
"c 	c #B6CD6B",
"d 	c #B7CE6C",
"e 	c #AEC868",
"f 	c #9FBE62",
"g 	c #97B860",
"h 	c #96B75F",
"i 	c #88AC5C",
"j 	c #ACC767",
"k 	c #A6C464",
"l 	c #A8C565",
"m 	c #AEC968",
"n 	c #B9D06D",
"o 	c #BCD16E",
"p 	c #B0CA69",
"q 	c #A7C464",
"r 	c #AEC867",
"s 	c #A9C565",
"t 	c #AAC566",
"u 	c #BBD16E",
"v 	c #B8CF6C",
"w 	c #AAC666",
"x 	c #B5CD6B",
"y 	c #BFD470",
"z 	c #C1D470",
"A 	c #C0D470",
"B 	c #7AA258",
"C 	c #98B960",
"D 	c #B1CA69",
"E 	c #BAD06D",
"F 	c #BDD26F",
"G 	c #BCD26E",
"H 	c #BED36F",
"I 	c #BDD26E",
"J 	c #B3CC6A",
"K 	c #B9CF6D",
"L 	c #ABC766",
"M 	c #B4CC6A",
"N 	c #ADC767",
"O 	c #B2CB6A",
"P 	c #93B45E",
"Q 	c #BFD370",
"R 	c #BBD06D",
"S 	c #BFD36F",
"T 	c #B9CF6C",
"U 	c #ACC766",
"V 	c #B6CE6B",
"W 	c #7FA65A",
"X 	c #95B65F",
"Y 	c #B0C968",
"Z 	c #82A85A",
"` 	c #80A75A",
" .	c #83A95A",
"..	c #7CA459",
"+.	c #B2CA69",
"@.	c #8FB25D",
"#.	c #8BAF5C",
"$.	c #C8A47D",
"%.	c #BED26F",
"&.	c #C1D570",
"*.	c #8FB15D",
"=.	c #90B25E",
"-.	c #C1D571",
";.	c #B4CC6B",
">.	c #D4B48D",
",.	c #D5B58E",
"'.	c #D4B58D",
").	c #A1C062",
"!.	c #DFC39B",
"~.	c #E0C49C",
"{.	c #DFC49C",
"].	c #DFC49B",
"^.	c #E0C59C",
"/.	c #9EBD62",
"(.	c #D7B890",
"_.	c #E5CBA3",
":.	c #E7CEA5",
"<.	c #E7CDA4",
"[.	c #E6CDA4",
"}.	c #DBBE96",
"|.	c #84A95B",
"1.	c #CCA982",
"2.	c #D8BA92",
"3.	c #E3C8A0",
"4.	c #E8CFA6",
"5.	c #EAD1A8",
"6.	c #E9D1A8",
"7.	c #E9D0A7",
"8.	c #E5CCA3",
"9.	c #DDC098",
"0.	c #D1B088",
"a.	c #C49F77",
"b.	c #A2C063",
"c.	c #B5CC6B",
"d.	c #EAD2A8",
"e.	c #E6CCA3",
"f.	c #C59F77",
"g.	c #8FB25E",
"h.	c #CBA780",
"i.	c #E1C69D",
"j.	c #E8D0A7",
"k.	c #E8CEA5",
"l.	c #E4C9A1",
"m.	c #CFAE87",
"n.	c #C8A37C",
"o.	c #D3B38B",
"p.	c #E3C89F",
"q.	c #E6CDA3",
"r.	c #E4CAA1",
"s.	c #E0C49B",
"t.	c #D7B991",
"u.	c #CCAA82",
"v.	c #C39C75",
"w.	c #CDAA82",
"x.	c #D6B78E",
"y.	c #DDC096",
"z.	c #E1C69C",
"A.	c #E5CAA1",
"B.	c #E3C89E",
"C.	c #DFC299",
"D.	c #D9BB91",
"E.	c #D1AF87",
"F.	c #C7A17A",
"G.	c #BD936D",
"H.	c #CEAB81",
"I.	c #D6B58B",
"J.	c #DCBE95",
"K.	c #E2C69D",
"L.	c #E4C9A0",
"M.	c #DFC298",
"N.	c #D8B98F",
"O.	c #D1AF85",
"P.	c #C9A47B",
"Q.	c #C09871",
"R.	c #B78B65",
"S.	c #BF956C",
"T.	c #C7A075",
"U.	c #CFAB80",
"V.	c #D7B78C",
"W.	c #DEC197",
"X.	c #E3C99F",
"Y.	c #E5CBA2",
"Z.	c #DABB91",
"`.	c #D2B085",
" +	c #CAA479",
".+	c #C2996F",
"++	c #BA8F67",
"@+	c #B48660",
"#+	c #BB8F66",
"$+	c #C3996D",
"%+	c #CAA478",
"&+	c #D2AF84",
"*+	c #D9BA90",
"=+	c #E2C79E",
"-+	c #DCBE94",
";+	c #D5B489",
">+	c #CDA87D",
",+	c #C59D71",
"'+	c #BE9368",
")+	c #B78A62",
"!+	c #B3855F",
"~+	c #BA8D64",
"{+	c #C1966A",
"]+	c #C79F73",
"^+	c #CDA97D",
"/+	c #D3B186",
"(+	c #D7B88D",
"_+	c #DBBC93",
":+	c #DABC92",
"<+	c #D0AC81",
"[+	c #CAA376",
"}+	c #C39A6D",
"|+	c #BD9166",
"1+	c #B68861",
"2+	c #BA8E64",
"3+	c #C0966A",
"4+	c #C59C6F",
"5+	c #C9A376",
"6+	c #CDA87C",
"7+	c #D1AE83",
"8+	c #D1AE84",
"9+	c #CEA97E",
"0+	c #CBA578",
"a+	c #C79F72",
"b+	c #C3996C",
"c+	c #B68961",
"d+	c #BB8F65",
"e+	c #C49B6D",
"f+	c #C69E70",
"g+	c #C8A072",
"h+	c #C8A174",
"i+	c #C9A275",
"j+	c #C8A073",
"k+	c #C79F71",
"l+	c #C59C6E",
"m+	c #C2986B",
"n+	c #BD9267",
"o+	c #B48761",
"p+	c #C49A6C",
"q+	c #C59B6D",
"r+	c #8CAF5D",
"s+	c #C09669",
"t+	c #C3996B",
"u+	c #C49A6B",
"v+	c #C3996A",
"w+	c #C4996B",
"x+	c #C2976A",
"y+	c #B78A63",
"z+	c #C2986A",
"A+	c #C49B6C",
"B+	c #81A85A",
"C+	c #C4996C",
"D+	c #C59B6C",
"E+	c #98B860",
"F+	c #87AB5B",
"G+	c #8EB15D",
"H+	c #C2976B",
"I+	c #BA8E65",
"J+	c #BF9469",
"K+	c #BC9166",
"L+	c #B68962",
"M+	c #B3845F",
"N+	c #B88C63",
"O+	c #C3986B",
"P+	c #C1976A",
"Q+	c #BF9468",
"R+	c #B58761",
"S+	c #83A85A",
"T+	c #B1835E",
"U+	c #BE9367",
"V+	c #BC9066",
"W+	c #B88B63",
"X+	c #B38560",
"Y+	c #B0815D",
"Z+	c #B98D64",
"`+	c #AF805D",
" @	c #C09569",
".@	c #BE9267",
"+@	c #B88B62",
"@@	c #AF7F5C",
"#@	c #B2845F",
"$@	c #B58861",
"%@	c #B78962",
"&@	c #AD7D5B",
"*@	c #A2C163",
"=@	c #91B35E",
"-@	c #AF805C",
";@	c #B98C63",
">@	c #97B85F",
",@	c #B78B62",
"'@	c #79A158",
")@	c #85AA5B",
"!@	c #87AC5B",
"~@	c #99B960",
"{@	c #7FA659",
"]@	c #99BA60",
"^@	c #7AA359",
"/@	c #B0CA68",
"(@	c #9BBB61",
"_@	c #9EBE61",
":@	c #A2C162",
"<@	c #9CBB61",
"[@	c #9FBE61",
"}@	c #8BAF5D",
"|@	c #80A65A",
"                                                                                                                                ",
"                    . + @ # $ % % % % % % % % $ & * . + @ # $ % % % = - ; + * & $ % % % % % % % % $ # @ + .                     ",
"          @ > , , , , , & ' ) ! ! ! ! ! ! ! ! ~ { ] , ^ / ( ) ! ! ! ! _ % ^ ] { ! ! ! ! ! ! ! ! ! ) ' & , , , , : < .           ",
"          , [ } | | | | } _ ! ! ! ! ! ! 1 1 ! ! _ | | | } _ ! ! 2 ) ! ! 3 | | _ ~ 2 2 2 2 2 ) ! ! ! _ } | | | | $ 4 @           ",
"        ] 5 _ ) ~ ~ ~ ! ! ! ! ! ! ! 6 ! 7 8 2 6 ! ! ! ! ! ! 6 9 0 a ! ! ! ! ! ! b c d d d d e ! ! ! ! ~ ~ ~ ~ ) f g h &         ",
"      i 5 ! ! ! ! ! ! 9 j k l e 7 m e 7 n o p e 7 a q 9 r e s t u v j 1 w e e e x y z A A A 0 2 j s ! ! ! ! ! ! ! ! ! % B       ",
"      C 3 ! ! ! ! ! 2 D E r D F G F H H y A H I I o e p F H J j o A K L x H H G F A A A A A M N E O q q ) ) k ) ! ! ! P B       ",
"      , C ! ! ! ! 2 8 o Q R o F D d A A A A Q M M H u u A A I E S z S E F z Q M M S A A A A o E S o T d U b x b ! ! ! - *       ",
"      < - ! ! 6 q p o z A A z F J v A A A A Q x x S z A A A A A A E v S A A S x x Q A A A A A A A A z A V x H c b ! ! 5 &       ",
"    * W X ! ! 2 Y F A A A A A A Q y A A A A A y y A A A A A A A A M 7 F A A A y y A A A A A A A A A A A y y A y d s ) ! [ Z     ",
"  . ` h } ! 1 8 o A A A A A A A A A A A A A A A A A A A A A A A A I u Q A A A A A A A A A A A A A A A A A A A A H v w ! (  ..   ",
"  + Z ( ) ! ! a v Q A A A A A A A A A A A A A A A A A A A A A A A A A A A A A A A A A A A A E c H A A A A A A A z F j ! } %  .  ",
"  ..] f ! 1 s w +.H A A A A A A A A A A A A A A A A A A A A A A A A A A A A A A A A A A A A x 7 I A A A A H o H z F U 6 ! _ @.  ",
"  #.( _ ! w K o I A A A A A A A A A A A A A A A A A A $.$.$.$.$.$.$.$.$.$.A A A A A A A A A %.G Q A A A A K e K &.F j ! ! _ *.  ",
"  =.! ! 6 j F -.z A A A A A A %.;.T A A A A A A A A >.,.,.'.'.'.'.'.'.,.'.A A A A A A A A A A A A A A A A o x o A S d a ).P  .  ",
"  @.6 ! 6 U I G o y A A A A A I p c A A A A A A A A !.~.~.{.].].].].~.^.{.A A A A A A A A A A A A A A A A A A A A Q u D /.Z .   ",
"  @.6 ! ! a o 0 D H A A A A A y F H A A A A A A (.A _.:.<.[.[.[.[.[.[.:.[.A }.A A A A A A A A A A A A A A A A A A F Y q ( |.<   ",
"  @._ ~ r v H n v Q A A A A A A A A A A A A A 1.2.3.4.5.6.7.7.7.7.7.7.5.7.8.9.0.a.A A A A A A A A A A A A A A A A S v r b.g ,   ",
"  @._ ) c.A A A A A A A A A A A A A A A A A A 1.2.3.4.d.5.7.7.7.7.7.6.d.6.e.9.0.f.A A A A A A A A A A A A A A A A A A ;.) 6 g.  ",
"  @._ ) 0 S A A A A A A A A A A A A A A A A A h.(.i.[.4.j.4.4.4.4.4.4.7.k.l.}.m.A A A A A A A A A A A A A A A A A A A M ) _ @.  ",
"  @._ ! s 0 H A A A A A A A A A A A A A A A A n.o.9.p.e.<.k.4.4.4.4.:.q.r.s.t.u.A A A A A A A A A A A A A A A A A A A M ) _ @.  ",
"  @._ ! s J F E K Q A A A A A A A A A A A A A v.w.x.y.z.A.:.7.6.7.4.e.B.C.D.E.F.A A A A A A A A A A A A A A A A A A A c.) _ @.  ",
"  @._ ) J Q S 8 D H A A A A A A A A A A A A A G.f.H.I.J.K.e.4.6.7.:.L.M.N.O.P.Q.A A A A A A A A A A y %.S A A A A A H O ) _ @.  ",
"  @._ ) ;.A A u u y A A A A A A A A A A A A A R.S.T.U.V.W.X.<.4.:.Y.s.Z.`. +.+++A A A A A A A A A A u Y v A A A A H 8 l ! 6 @.  ",
"  , h b.r v Q z A A A A S d n A A A A A A A A @+#+$+%+&+*+M.K.p.=+s.-+;+>+,+'+)+A A A A A A A A A A o 0 E A A A o 0 9 ! ).h ,   ",
"  < |.( ) L E S A A A A F Y M y A A A A A A A !+~+{+]+^+/+(+Z._+:+N.;+<+[+}+|+1+A A A A A A A A A A A y A A A A v w 1 ~ ( |.<   ",
"  . Z ( ! 1 L v A A A A y o I A A A A A A A A @+2+3+4+5+6+U.7+8+7+<+9+0+a+b+|+c+A A A A A A A A A A A A A A A A H v w ! ( Z .   ",
"  + Z ( ! 9 D u A A A A A A A A A A A A A A A @+d+{+e+f+g+h+i+i+i+h+j+k+l+m+n+)+A A A A A A A A A A A A A A A A o O 9 ! ( Z +   ",
"  ..& f ! L I A H u H A A A A A A A A A A A A o+d+3+p+q+q+e+e+q+q+e+q+q+p+m+n+)+A A A A A A A A A A A A A A A A c 2 ! ~ f & ..  ",
"  r+f _ ! j F &.K r K A A A A A A A A A A A A o+d+s+t+p+u+t+v+v+v+t+w+p+p+x+n+y+A A A A A A A A A A A A A A A A V 2 ! ! _ f r+  ",
"  =.! ) a d S A o c o A A A A A A A A A A A A o+d+s+t+p+p+w+t+t+t+w+u+p+p+z+n+y+A A A A A A A A A A A A A A A A o J l ! ! ! =.  ",
"  @._ ) ;.A A A A A A A A A A A A A A A A A A o+d+s+b+A+p+p+p+p+p+p+p+A+p+m+n+y+A A A A A A A A A A A A A %.E %.z F j 6 ! 6 @.  ",
"  @._ ) J Q A A A A A A A A A A A A A A A A A o+d+s+b+A+p+p+p+p+p+p+p+A+p+m+n+y+A A A A A A A A A A A A A K a K &.F j 6 ! 6 @.  ",
"  =.! ~ w M H A A A A A A A A A A A A A A A A o+d+s+b+A+p+p+p+p+p+p+p+A+p+m+n+y+A A A A A A A A A A A A A I d I z F j 6 ! 6 @.  ",
"  i 5 3 6 L F A A A A A A A A A A A A A A A A o+d+s+b+A+p+p+p+p+p+p+p+A+p+m+n+y+A A A A A A A A A A A A A A A A z F j 6 ! 6 @.  ",
"  * ^ ( ! j F A A A A A A A A A A A A A A A A o+d+s+b+A+p+p+p+p+p+p+p+A+p+m+n+y+A A A A A A A A A S H A A A A A A u b 6 ! 6 @.  ",
"  + B+( ! j F z A A A A A A A A A A A A A A A o+d+{+C+D+p+p+p+p+p+p+p+D+p+m+n+y+A A A A A A A A y x O H A A A A n a 2 ! ! ! g.  ",
"  : =.| ! s M G A Q K n y A A A A A A A A A A o+#+{+p+D+A+p+p+p+p+p+p+D+p+m+n+y+A A A A A A A A A V M H A A A A E 7 2 ! 3 E+F+  ",
"  G+3 ! ! ) w v A H D 8 S A A A A A A A A A A o+d+s+b+p+p+p+p+p+p+p+p+A+p+H+n+)+A A A A A A A A A Q Q A A Q F Q A o e k ( > <   ",
"  g.! ! ! w d H A y u o A A A A A A A A A A A @+I+J+m+p+p+p+p+p+p+p+p+p+t+{+K+L+A A A A A A A A A A A A A E 7 E z y u D /.Z .   ",
"  @._ ~ U c S A A A A A A A A A A A A A A A A M+N+n+s+m+t+p+p+p+p+p+b+O+P+Q+I+R+A A A A A A A A A A A A A u J u A A A x 3 - S+  ",
"  @._ ) D o y A A A A A A A A A A A A A A A A T+L+d+U+s+m+b+p+D+p+p+O+P+Q+V+W+X+A A A A A A A A A A A A A A y A A A A M ) _ *.  ",
"  @._ ! q p %.A A A A A A A A A A A A A A A A Y+@+W+d+'+{+O+p+p+p+t+x+Q+|+Z+1+T+A A A A A A A A A A A A A A A A A A A M ) _ @.  ",
"  @._ ~ j d S A A A A A A A A A A A A A A A A `+M+L+Z+K+Q+P+m+t+O+x+ @.@d++@@+Y+A A A A A A A A A A A A A A A A A H c j ).= ;   ",
"  g.6 ) D o y A A A A A A A A A A A A A A A A @@#@$@N+d+n+Q+ @ @ @Q+.@V+Z+%@!+Y+&@A A A A A A A A A A A A A A A z F j ! ( Z .   ",
"  G+*@! 2 7 I A A A A A A A A A A A A A A A A @@#@$@+@Z+d+V+K+|+|+V+d+2+N+c+!+Y+&@A A A A A A A A A A Q A A A A A o L ! ( |.<   ",
"  Z =@| ! q 7 E A A A A A A A A A A A A A A A -@#@$@)+N+;@Z+Z+~+Z+Z+;@N++@A @+Y+A A A A A A A A A A o 0 E A A A E 7 q ! 3 >@,   ",
"  + Z ( ~ 2 N K A A A F E H A A A A A A A A A A A A )+,@,@,@+@+@+@,@,@,@)+A A A A A A A A A A A A A u Y T A A A K N 2 ! ! ! @.  ",
"  '@)@( ! w K S A A A d a E A A A A A A A A A A A A )+)+)+)+)+)+)+)+)+)+)+A A A A A A A A A A A A A y H S A A A S K w 6 ! 6 @.  ",
"  !@~@3 ! q e E A A A o v F A A A A A A A A A A A A )+)+)+)+)+)+)+)+)+)+)+A A A A A A A A A A A A A A A A A A A E e q ! ! ! =.  ",
"  =.! ! ! 2 r E A A A A A A A H K u A A A A A A A A A A A A A A A A A A A A A A A A A A A A A A A A A A A A A A E r 2 ! 3 ~@i   ",
"  # } ! 6 b u A A A A A A A A G m x A A A A A H H A A A A A A A A A A A A Q H Q A A A A A A A A A A A A A A A A A u b ! ( )@*   ",
"  {@# | ! j F z A A A A A A A S E o A A A A S M J S A A A A A A A A A A A E p n A A A A A A A A A A A A A A A A z F j ! ( Z .   ",
"  + Z ( ! s J x v Q A A A A A A A A A A A A Q x x S A A A A A A A A A A A u O E A A A A A A A H d u A y K v Q A G M s ) ( S+.   ",
"      ( ) ! 1 9 D H A A A F H A A A A A A A A y y A A A A F H A A A A A A A Q A A A A A A A A o e c A S 8 D H z d q ! *@]@      ",
"      ' ) ! ) 8 o y A A F D ;.y A A A A A A A A A A A A F D x A A A A A A A A A A A A A A A A S u F A A o o y A c 1 ! >@;       ",
"      G+[ ! ) e v A &.o M O T A A A A A A A A z o c I &.S x v A A z F c u &.A v v A A A A A A z z A A A &.-.A v r ) ! - '@      ",
"      ^@% ! ! ! j n o 0 s x u o Q %.G y A A A F M s x u o S A A A H c s O o E j N E Q A A A %.G y A S o u u n j ! ! ! P B       ",
"      * - _ ! ! 2 s t q ) l s a u c.7 G A A H 8 q ) 9 s N R A y S M l ) q t s 2 1 U E A y Q x 7 o A E j s t s 2 ! ! _ - B       ",
"        > X *@) ~ ! ! ! ~ ! 6 q 7 b q Y 8 8 D s ! ) ! ! 1 m 8 8 D w ! ~ ! ! ! ! ! ) e 8 8 +.b q /@0 e 1 ! ! ! ~ ) *@X >         ",
"          Z >@(@{ { { { [ 3 | (@(@| ! ! ! ~ ! _@{ { { f ! ~ ! ! ! ~ :@[ { { <@).! ! ! ! ! ! | (@(@| ~ ! [@{ { { (@>@Z           ",
"                    W 4 |.5 X ` W - 3 *@*@_ | # 4 W {@G+)._ *@*@*@_ { > 4 4 Z E+_ *@*@*@*@3 - W ` $ _ } G+{@                    ",
"                    . . B , ; < . Z #.#.#.}@& {@. . . |@& }@#.#.#.r+!@B . . '@)@r+#.#.#.#.#.Z . <  .}@& W .                     ",
"                                                                                                                                "};
