/* XPM */
static char * wallup_xpm[] = {
"64 64 192 2",
"  	c None",
". 	c #AA7959",
"+ 	c #77A058",
"@ 	c #76A058",
"# 	c #7BA359",
"$ 	c #8DB05D",
"% 	c #94B55F",
"& 	c #93B55E",
"* 	c #8AAE5C",
"= 	c #79A258",
"- 	c #9E8759",
"; 	c #AA7B59",
"> 	c #92B45E",
", 	c #83A95B",
"' 	c #84AA5B",
") 	c #86AB5B",
"! 	c #9DBD61",
"~ 	c #A5C363",
"{ 	c #A4C263",
"] 	c #A5C263",
"^ 	c #9BBB60",
"/ 	c #89AD5C",
"( 	c #85AB5B",
"_ 	c #A78159",
": 	c #A3C163",
"< 	c #81A75A",
"[ 	c #78A158",
"} 	c #9CBC61",
"| 	c #A1BF62",
"1 	c #A0BF62",
"2 	c #A5C364",
"3 	c #A9815A",
"4 	c #A2C062",
"5 	c #A6C364",
"6 	c #7EA559",
"7 	c #9ABA60",
"8 	c #A3C263",
"9 	c #AFC968",
"0 	c #B2CB69",
"a 	c #A9825A",
"b 	c #ABC666",
"c 	c #B6CD6B",
"d 	c #B7CE6C",
"e 	c #AEC868",
"f 	c #9FBE62",
"g 	c #97B860",
"h 	c #96B75F",
"i 	c #88AC5C",
"j 	c #A8C465",
"k 	c #ACC767",
"l 	c #A6C464",
"m 	c #A8C565",
"n 	c #AEC968",
"o 	c #B9D06D",
"p 	c #BCD16E",
"q 	c #B0CA69",
"r 	c #ADC867",
"s 	c #A7C464",
"t 	c #AA835A",
"u 	c #AAC666",
"v 	c #B5CD6B",
"w 	c #BFD470",
"x 	c #C1D470",
"y 	c #C0D470",
"z 	c #B3CB6A",
"A 	c #A9C565",
"B 	c #7AA258",
"C 	c #98B960",
"D 	c #B1CA69",
"E 	c #BAD06D",
"F 	c #AEC867",
"G 	c #BDD26F",
"H 	c #BCD26E",
"I 	c #BED36F",
"J 	c #BDD26E",
"K 	c #AC845B",
"L 	c #ABC766",
"M 	c #B4CC6A",
"N 	c #ADC767",
"O 	c #B2CB6A",
"P 	c #93B45E",
"Q 	c #BFD370",
"R 	c #BBD06D",
"S 	c #BBD16E",
"T 	c #AC855B",
"U 	c #AA7C59",
"V 	c #BFD36F",
"W 	c #B9CF6C",
"X 	c #ACC766",
"Y 	c #B3CC6A",
"Z 	c #B8CF6C",
"` 	c #B6CE6B",
" .	c #7FA65A",
"..	c #95B65F",
"+.	c #B0C968",
"@.	c #BDC56D",
"#.	c #B9A166",
"$.	c #B48960",
"%.	c #B48660",
"&.	c #B9A065",
"*.	c #BDC16C",
"=.	c #82A85A",
"-.	c #80A75A",
";.	c #BDBF6C",
">.	c #B78A62",
",.	c #BCBB6B",
"'.	c #9EBD61",
").	c #83A95A",
"!.	c #7CA459",
"~.	c #B2CA69",
"{.	c #BEC66D",
"].	c #C1B872",
"^.	c #C8A37C",
"/.	c #C2B673",
"(.	c #BEC56D",
"_.	c #8FB25D",
":.	c #8BAF5C",
"<.	c #B9CF6D",
"[.	c #B9A066",
"}.	c #C9A57E",
"|.	c #E8CFA6",
"1.	c #CDAA83",
"2.	c #B99A65",
"3.	c #BED26F",
"4.	c #C1D570",
"5.	c #8FB15D",
"6.	c #90B25E",
"7.	c #C1D571",
"8.	c #B4CC6B",
"9.	c #A1C062",
"0.	c #9EBD62",
"a.	c #84A95B",
"b.	c #A2C063",
"c.	c #B5CC6B",
"d.	c #8FB25E",
"e.	c #B59C63",
"f.	c #B1835E",
"g.	c #C09872",
"h.	c #D9B98F",
"i.	c #E7CDA4",
"j.	c #C29C75",
"k.	c #B49561",
"l.	c #B0965F",
"m.	c #B38560",
"n.	c #C49A6C",
"o.	c #E5CBA2",
"p.	c #E7CEA5",
"q.	c #B58861",
"r.	c #AE8E5D",
"s.	c #8CAF5D",
"t.	c #C1966A",
"u.	c #AD7C5B",
"v.	c #AB7A59",
"w.	c #81A85A",
"x.	c #B2845F",
"y.	c #AC7C5B",
"z.	c #AF7F5C",
"A.	c #AB7B5A",
"B.	c #AF805D",
"C.	c #98B860",
"D.	c #87AB5B",
"E.	c #8EB15D",
"F.	c #83A85A",
"G.	c #B6B266",
"H.	c #B3A563",
"I.	c #B49D63",
"J.	c #B59B63",
"K.	c #B5AE65",
"L.	c #93B55F",
"M.	c #A2C163",
"N.	c #91B35E",
"O.	c #97B85F",
"P.	c #C0D370",
"Q.	c #AA7C5A",
"R.	c #79A158",
"S.	c #85AA5B",
"T.	c #87AC5B",
"U.	c #99B960",
"V.	c #7FA659",
"W.	c #99BA60",
"X.	c #7AA359",
"Y.	c #AAC566",
"Z.	c #AA825A",
"`.	c #B0CA68",
" +	c #9BBB61",
".+	c #9EBE61",
"++	c #9CBB61",
"@+	c #9FBE61",
"#+	c #8BAF5D",
"$+	c #80A65A",
"%+	c #A77F59",
"&+	c #A97A59",
"                                                          . . . . .                                                             ",
"                    + @ # $ % & & & & & & & & % * = + @ - . . . . . ; > , @ = * % & & & & & & & & % $ # @ +                     ",
"          # ' ) ) ) ) ) * ! ~ { { { { { { { { ] ^ / ) ( _ . . . . . ; : & ( / ^ { { { { { { { { { ~ ! * ) ) ) ) < [ +           ",
"          ) } | 1 1 1 1 | : { { { { { { 2 2 { { : 1 1 1 3 . . . . . ; { 4 1 1 : ] 5 5 5 5 5 ~ { { { : | 1 1 1 1 % 6 #           ",
"        / 7 : ~ ] ] ] { { { { { { { 8 { 9 0 5 8 { { { { a . . . . . ; { { { { { b c d d d d e { { { { ] ] ] ] ~ f g h *         ",
"      i 7 { { { { { { j k l m e 9 n e 9 o p q e 9 r s j t . . . . . ; 2 u e e e v w x y y y z 5 k A { { { { { { { { { & B       ",
"      C 4 { { { { { 5 D E F D G H G I I w y I J J p e q K . . . . . ; L v I I H G y y y y y M N E O s s ~ ~ l ~ { { { P B       ",
"      ) C { { { { 5 0 p Q R p G D d y y y y Q M M I S S T . . . . . U E G x Q M M V y y y y p E V p W d X b v b { { { > =       ",
"      [ > { { 8 s q p x y y x G Y Z y y y y Q v v V x y T . . . . . ; V y y V v v Q y y y y y y y y x y ` v I c b { { 7 *       ",
"    =  ...{ { 5 +.G y y y y y y Q w y y y y y w @.#.#.#.$.%.%.%.%.%.%.&.#.#.*.w w y y y y y y y y y y y w w y w d A ~ { } =.    ",
"  + -.h | { 2 0 p y y y y y y y y y y y y y y y ;.>.>.>.>.>.>.>.>.>.>.>.>.>.,.y y y y y y y y y y y y y y y y y I Z u { '.).+   ",
"  @ =.'.~ { { r Z Q y y y y y y y y y y y y y y ;.>.>.>.>.>.>.>.>.>.>.>.>.>.,.y y y y y y y E c I y y y y y y y x G k { | & ).  ",
"  !./ f { 2 A u ~.I y y y y y y y y y y y {.*.*.].^.^.^.^.^.^.^.^.^.^.^.^.^./.*.*.(.y y y y v 9 J y y y y I p I x G X 8 { : _.  ",
"  :.'.: { u <.p J y y y y y y y y y y y y [.>.>.}.|.|.|.|.|.|.|.|.|.|.|.|.|.1.>.>.2.y y y y 3.H Q y y y y <.e <.4.G k { { : 5.  ",
"  6.{ { 8 k G 7.x y y y y y y 3.8.W y y y [.>.>.}.|.|.|.|.|.|.|.|.|.|.|.|.|.1.>.>.2.y y y y y y y y y y y p v p y V d r 9.P ).  ",
"  _.8 { 8 X J H p w y y y y y J q c y y y [.>.>.}.|.|.|.|.|.|.|.|.|.|.|.|.|.1.>.>.2.y y y y y y y y y y y y y y y Q S D 0.=.+   ",
"  _.8 { { r p z D I y y y y y w G I y y y [.>.>.}.|.|.|.|.|.|.|.|.|.|.|.|.|.1.>.>.2.y y y y y y y y y y y y y y y G +.s '.a.[   ",
"  _.: ] F Z I o Z Q y y y y y y y y y y y [.>.>.}.|.|.|.|.|.|.|.|.|.|.|.|.|.1.>.>.2.y y y y y y y y y y y y y y y V Z F b.g )   ",
"  _.: ~ c.y y y y y y y y y y y y y y y y [.>.>.}.|.|.|.|.|.|.|.|.|.|.|.|.|.1.>.>.2.y y y y y y y y y y y y y y y y y 8.~ 8 d.  ",
"  _.: ~ z V y y y y y y y y y y y y y y y e.f.f.g.h.h.h.i.|.|.|.|.|.|.h.h.h.j.f.f.k.y y y y y y y y y y y y y y y y y M ~ : _.  ",
"  _.: { A z I y y y y y y y y y y y y y y l.. . m.n.n.n.o.|.|.|.|.|.p.n.n.n.q.. . r.y y y y y y y y y y y y y y y y y M ~ : _.  ",
"  _.: { A Y G E <.Q y y y y y y y y y y y l.. . m.n.n.n.o.|.|.|.|.|.p.n.n.n.q.. . r.y y y y y y y y y y y y y y y y y c.~ : _.  ",
"  _.: ~ Y Q V 0 D I y y y y y y y y y y y l.. . m.n.n.n.o.|.|.|.|.|.p.n.n.n.q.. . r.y y y y y y y y w 3.V y y y y y I O ~ : _.  ",
"  _.: ~ 8.y y S S w y y y y y y y y y y y l.. . m.n.n.n.n.n.n.n.n.n.n.n.n.n.q.. . r.y y y y y y y y S +.Z y y y y I 0 m { 8 _.  ",
"  ) h b.F Z Q x y y y y V d o y y y y y y l.. . m.n.n.n.n.n.n.n.n.n.n.n.n.n.q.. . r.y y y y y y y y p z E y y y p z j { 9.h )   ",
"  [ a.'.~ L E V y y y y G +.M w y y y y y l.. . m.n.n.n.n.n.n.n.n.n.n.n.n.n.q.. . r.y y y y y y y y y w y y y y Z u 2 ] '.a.[   ",
"  + =.'.{ 2 L Z y y y y w p J y y y y y y l.. . m.n.n.n.n.n.n.n.n.n.n.n.n.n.q.. . r.y y y y y y y y y y y y y y I Z u { '.=.+   ",
"  @ =.'.{ j D S y y y y y y y y y y y y y l.. . m.n.n.n.n.n.n.n.n.n.n.n.n.n.q.. . r.y y y y y y y y y y y y y y p O j { '.=.@   ",
"  !.* f { L J y I S I y y y y y y y y y y l.. . m.n.n.n.n.n.n.n.n.n.n.n.n.n.q.. . r.y y y y y y y y y y y y y y c 5 { ] f * !.  ",
"  s.f : { k G 4.<.F <.y y y y y y y y y y l.. . m.n.n.n.t.t.t.t.t.t.t.n.n.n.q.. . r.y y y y y y y y y y y y y y ` 5 { { : f s.  ",
"  6.{ ~ r d V y p c p y y y y y y y y y y l.. . m.n.n.n.u.. . . . . v.n.n.n.q.. . r.y y y y y y y y y y y y y y p Y m { { { 6.  ",
"  _.: ~ 8.y y y y y y y y y y y y y y y y l.. . m.n.n.n.u.. . . . . v.n.n.n.q.. . r.y y y y y y y y y y y 3.E 3.x G k 8 { 8 _.  ",
"  _.: ~ Y Q y y y y y y y y y y y y y y y l.. . m.n.n.n.u.. . . . . v.n.n.n.q.. . r.y y y y y y y y y y y <.r <.4.G k 8 { 8 _.  ",
"  6.{ ] u M I y y y y y y y y y y y y y y l.. . m.n.n.n.u.. . . . . v.n.n.n.q.. . r.y y y y y y y y y y y J d J x G k 8 { 8 _.  ",
"  i 7 4 8 L G y y y y y y y y y y y y y y l.. . m.n.n.n.u.. . . . . v.n.n.n.q.. . r.y y y y y y y y y y y y y y x G k 8 { 8 _.  ",
"  = ( '.{ k G y y y y y y y y y y y y y y l.. . m.n.n.n.u.. . . . . v.n.n.n.q.. . r.y y y y y y y V I y y y y y y S b 8 { 8 _.  ",
"  @ w.'.{ k G x y y y y y y y y y y y y y l.. . x.t.t.t.y.. . . . . v.t.t.t.%.. . r.y y y y y y w v O I y y y y o r 5 { { { d.  ",
"  < 6.1 { A M H y Q <.o w y y y y y y y y l.. . z.>.>.>.A.. . . . . . >.>.>.B.. . r.y y y y y y y ` M I y y y y E 9 5 { 4 C.D.  ",
"  E.4 { { ~ u Z y I D 0 V y y y y y y y y l.. . z.>.>.>.A.. . . . . . >.>.>.B.. . r.y y y y y y y Q Q y y Q G Q y p e l '.' [   ",
"  d.{ { { u d I y w S p y y y y y y y y y l.. . z.>.>.>.A.. . . . . . >.>.>.B.. . r.y y y y y y y y y y y E 9 E x w S D 0.=.+   ",
"  _.: ] X c V y y y y y y y y y y y y y y l.. . z.>.>.>.A.. . . . . . >.>.>.B.. . r.y y y y y y y y y y y S Y S y y y v 4 > F.  ",
"  _.: ~ D p w y y y y y y y y y y y y y y l.. . z.>.>.>.A.. . . . . . >.>.>.B.. . r.y y y y y y y y y y y y w y y y y M ~ : 5.  ",
"  _.: { s q 3.y y y y y y y y y y y y y y l.. . z.>.>.>.A.. . . . . . >.>.>.B.. . r.y y y y y y y y y y y y y y y y y M ~ : _.  ",
"  _.: ] k d V y y y y y y y y y y y y y y G.H.H.I.>.>.>.A.. . . . . . >.>.>.J.H.H.K.y y y y y y y y y y y y y y y I c k 9.L.,   ",
"  d.8 ~ D p w y y y y y y y y y y y y y y y y y ;.>.>.>.A.. . . . . . >.>.>.,.y y y y y y y y y y y y y y y y y x G k { '.=.+   ",
"  E.M.{ 5 9 J y y y y y y y y y y y y y y y y y ;.>.>.>.A.. . . . . . >.>.>.,.y y y y y y y y y y y y Q y y y y y p L { '.a.[   ",
"  =.N.1 { s 9 E y y y y y y y y y y y y y y y y ;.>.>.>.A.. . . . . . >.>.>.,.y y y y y y y y y y y p z E y y y E 9 s { 4 O.)   ",
"  @ =.'.] 5 N <.y y y G E I y y y y y y y y y y y P.P.P.K . . . . . Q.P.P.P.y y y y y y y y y y y y S +.W y y y <.N 5 { { { _.  ",
"  R.S.'.{ u <.V y y y d r E y y y y y y y y y y y y y y T . . . . . Q.y y y y y y y y y y y y y y y w I V y y y V <.u 8 { 8 _.  ",
"  T.U.4 { s e E y y y p Z G y y y y y y y y y y y y y y T . . . . . Q.y y y y y y y y y y y y y y y y y y y y y E e s { { { 6.  ",
"  6.{ { { 5 F E y y y y y y y I <.S y y y y y y y y y y T . . . . . Q.y y y y y y y y y y y y y y y y y y y y y E F 5 { 4 U.i   ",
"  $ | { 8 b S y y y y y y y y H n v y y y y y I I y y y T . . . . . Q.y y Q I Q y y y y y y y y y y y y y y y y y S b { '.S.=   ",
"  V.$ 1 { k G x y y y y y y y V E p y y y y V M Y V y y T . . . . . Q.y y E q o y y y y y y y y y y y y y y y y x G k { '.=.+   ",
"  @ =.'.{ A Y v Z Q y y y y y y y y y y y y Q v v V y y T . . . . . Q.y y S O E y y y y y y y I d S y w <.Z Q y H M A ~ '.F.+   ",
"      '.~ { 2 j D I y y y G I y y y y y y y y w w y y y T . . . . . Q.y y y Q y y y y y y y y p e c y V 0 D I x d s { M.W.      ",
"      ! ~ { ~ 0 p w y y G D 8.w y y y y y y y y y y y y K . . . . . Q.y y y y y y y y y y y y V S G y y p p w y c 2 { O.,       ",
"      E.} { ~ e Z y 4.p M O W y y y y y y y y x p c J 4.T . . . . . U c S 4.y Z Z y y y y y y x x y y y 4.7.y Z F ~ { > R.      ",
"      X.& { { { k o p z A v S p Q 3.H w y y y G M A v S K . . . . . ; A O p E k N E Q y y y 3.H w y V p S S o k { { { P B       ",
"      = > : { { 5 A Y.s ~ m A r S c.9 H y y I 0 s ~ j A t . . . . . ; ~ s Y.A 5 2 X E y w Q v 9 p y E k A Y.A 5 { { : > B       ",
"        ' ..M.~ ] { { { ] { 8 s 9 b s +.0 0 D A { ~ { { Z.. . . . . ; ] { { { { { ~ e 0 0 ~.b s `.z e 2 { { { ] ~ M...'         ",
"          =.O. +^ ^ ^ ^ } 4 1  + +1 { { { ] { .+^ ^ ^ f a . . . . . ; } ^ ^ ++9.{ { { { { { 1  + +1 ] { @+^ ^ ^  +O.=.          ",
"                     .6 a.7 ..-. .> 4 M.M.: 1 $ 6  .V.E.a . . . . . ; ' 6 6 =.C.: M.M.M.M.4 >  .-.% : | E.V.                    ",
"                    + + B ) , [ + =.:.:.:.#+* V.+ + + $+%+. . . . . &+B + + R.S.s.:.:.:.:.:.=.+ [ ).#+*  .+                     ",
"                                                          . . . . .                                                             "};
