/* XPM */
static char * wall_xpm[] = {
"64 64 173 2",
"  	c None",
". 	c #C8A47D",
"+ 	c #D4B48D",
"@ 	c #D5B58E",
"# 	c #D4B58D",
"$ 	c #DFC39B",
"% 	c #E0C49C",
"& 	c #DFC49C",
"* 	c #DFC49B",
"= 	c #E0C59C",
"- 	c #D7B890",
"; 	c #E5CBA3",
"> 	c #E7CEA5",
", 	c #E7CDA4",
"' 	c #E6CDA4",
") 	c #DBBE96",
"! 	c #CCA982",
"~ 	c #D8BA92",
"{ 	c #E3C8A0",
"] 	c #E8CFA6",
"^ 	c #EAD1A8",
"/ 	c #E9D1A8",
"( 	c #E9D0A7",
"_ 	c #E5CCA3",
": 	c #DDC098",
"< 	c #D1B088",
"[ 	c #C49F77",
"} 	c #EAD2A8",
"| 	c #E6CCA3",
"1 	c #C59F77",
"2 	c #CBA780",
"3 	c #E1C69D",
"4 	c #E8D0A7",
"5 	c #E8CEA5",
"6 	c #E4C9A1",
"7 	c #CFAE87",
"8 	c #C8A37C",
"9 	c #D3B38B",
"0 	c #E3C89F",
"a 	c #E6CDA3",
"b 	c #E4CAA1",
"c 	c #E0C49B",
"d 	c #D7B991",
"e 	c #CCAA82",
"f 	c #C39C75",
"g 	c #CDAA82",
"h 	c #D6B78E",
"i 	c #DDC096",
"j 	c #E1C69C",
"k 	c #E5CAA1",
"l 	c #E3C89E",
"m 	c #DFC299",
"n 	c #D9BB91",
"o 	c #D1AF87",
"p 	c #C7A17A",
"q 	c #BD936D",
"r 	c #CEAB81",
"s 	c #D6B58B",
"t 	c #DCBE95",
"u 	c #E2C69D",
"v 	c #E4C9A0",
"w 	c #DFC298",
"x 	c #D8B98F",
"y 	c #D1AF85",
"z 	c #C9A47B",
"A 	c #C09871",
"B 	c #B78B65",
"C 	c #BF956C",
"D 	c #C7A075",
"E 	c #CFAB80",
"F 	c #D7B78C",
"G 	c #DEC197",
"H 	c #E3C99F",
"I 	c #E5CBA2",
"J 	c #DABB91",
"K 	c #D2B085",
"L 	c #CAA479",
"M 	c #C2996F",
"N 	c #BA8F67",
"O 	c #B48660",
"P 	c #BB8F66",
"Q 	c #C3996D",
"R 	c #CAA478",
"S 	c #D2AF84",
"T 	c #D9BA90",
"U 	c #E2C79E",
"V 	c #DCBE94",
"W 	c #D5B489",
"X 	c #CDA87D",
"Y 	c #C59D71",
"Z 	c #BE9368",
"` 	c #B78A62",
" .	c #B3855F",
"..	c #BA8D64",
"+.	c #C1966A",
"@.	c #C79F73",
"#.	c #CDA97D",
"$.	c #D3B186",
"%.	c #D7B88D",
"&.	c #DBBC93",
"*.	c #DABC92",
"=.	c #D0AC81",
"-.	c #CAA376",
";.	c #C39A6D",
">.	c #BD9166",
",.	c #B68861",
"'.	c #BA8E64",
").	c #C0966A",
"!.	c #C59C6F",
"~.	c #C9A376",
"{.	c #CDA87C",
"].	c #D1AE83",
"^.	c #D1AE84",
"/.	c #CEA97E",
"(.	c #CBA578",
"_.	c #C79F72",
":.	c #C3996C",
"<.	c #B68961",
"[.	c #BB8F65",
"}.	c #C49B6D",
"|.	c #C69E70",
"1.	c #C8A072",
"2.	c #C8A174",
"3.	c #C9A275",
"4.	c #C8A073",
"5.	c #C79F71",
"6.	c #C59C6E",
"7.	c #C2986B",
"8.	c #BD9267",
"9.	c #B48761",
"0.	c #C49A6C",
"a.	c #C59B6D",
"b.	c #C09669",
"c.	c #C3996B",
"d.	c #C49A6B",
"e.	c #C3996A",
"f.	c #C4996B",
"g.	c #C2976A",
"h.	c #B78A63",
"i.	c #C2986A",
"j.	c #C49B6C",
"k.	c #C4996C",
"l.	c #C59B6C",
"m.	c #C2976B",
"n.	c #BA8E65",
"o.	c #BF9469",
"p.	c #BC9166",
"q.	c #B68962",
"r.	c #B3845F",
"s.	c #B88C63",
"t.	c #C3986B",
"u.	c #C1976A",
"v.	c #BF9468",
"w.	c #B58761",
"x.	c #B1835E",
"y.	c #BE9367",
"z.	c #BC9066",
"A.	c #B88B63",
"B.	c #B38560",
"C.	c #B0815D",
"D.	c #B98D64",
"E.	c #AF805D",
"F.	c #C09569",
"G.	c #BE9267",
"H.	c #B88B62",
"I.	c #AF7F5C",
"J.	c #B2845F",
"K.	c #B58861",
"L.	c #B78962",
"M.	c #AD7D5B",
"N.	c #AF805C",
"O.	c #B98C63",
"P.	c #B78B62",
"                                                                                                                                ",
"                                                                                                                                ",
"                                                                                                                                ",
"                                                                                                                                ",
"                                                                                                                                ",
"                                                                                                                                ",
"                                                                                                                                ",
"                                                                                                                                ",
"                                                                                                                                ",
"                                                                                                                                ",
"                                                                                                                                ",
"                                                                                                                                ",
"                                                                                                                                ",
"                                                      . . . . . . . . . .                                                       ",
"                                                    + @ @ # # # # # # @ #                                                       ",
"                                                    $ % % & * * * * % = &                                                       ",
"                                                -   ; > , ' ' ' ' ' ' > '   )                                                   ",
"                                              ! ~ { ] ^ / ( ( ( ( ( ( ^ ( _ : < [                                               ",
"                                              ! ~ { ] } ^ ( ( ( ( ( / } / | : < 1                                               ",
"                                              2 - 3 ' ] 4 ] ] ] ] ] ] ( 5 6 ) 7                                                 ",
"                                              8 9 : 0 | , 5 ] ] ] ] > a b c d e                                                 ",
"                                              f g h i j k > ( / ( ] | l m n o p                                                 ",
"                                              q 1 r s t u | ] / ( > v w x y z A                                                 ",
"                                              B C D E F G H , ] > I c J K L M N                                                 ",
"                                              O P Q R S T w u 0 U c V W X Y Z `                                                 ",
"                                               ...+.@.#.$.%.J &.*.x W =.-.;.>.,.                                                ",
"                                              O '.).!.~.{.E ].^.].=./.(._.:.>.<.                                                ",
"                                              O [.+.}.|.1.2.3.3.3.2.4.5.6.7.8.`                                                 ",
"                                              9.[.).0.a.a.}.}.a.a.}.a.a.0.7.8.`                                                 ",
"                                              9.[.b.c.0.d.c.e.e.e.c.f.0.0.g.8.h.                                                ",
"                                              9.[.b.c.0.0.f.c.c.c.f.d.0.0.i.8.h.                                                ",
"                                              9.[.b.:.j.0.0.0.0.0.0.0.j.0.7.8.h.                                                ",
"                                              9.[.b.:.j.0.0.0.0.0.0.0.j.0.7.8.h.                                                ",
"                                              9.[.b.:.j.0.0.0.0.0.0.0.j.0.7.8.h.                                                ",
"                                              9.[.b.:.j.0.0.0.0.0.0.0.j.0.7.8.h.                                                ",
"                                              9.[.b.:.j.0.0.0.0.0.0.0.j.0.7.8.h.                                                ",
"                                              9.[.+.k.l.0.0.0.0.0.0.0.l.0.7.8.h.                                                ",
"                                              9.P +.0.l.j.0.0.0.0.0.0.l.0.7.8.h.                                                ",
"                                              9.[.b.:.0.0.0.0.0.0.0.0.j.0.m.8.`                                                 ",
"                                              O n.o.7.0.0.0.0.0.0.0.0.0.c.+.p.q.                                                ",
"                                              r.s.8.b.7.c.0.0.0.0.0.:.t.u.v.n.w.                                                ",
"                                              x.q.[.y.b.7.:.0.l.0.0.t.u.v.z.A.B.                                                ",
"                                              C.O A.[.Z +.t.0.0.0.c.g.v.>.D.,.x.                                                ",
"                                              E.r.q.D.p.v.u.7.c.t.g.F.G.[.H.O C.                                                ",
"                                              I.J.K.s.[.8.v.F.F.F.v.G.z.D.L. .C.M.                                              ",
"                                              I.J.K.H.D.[.z.p.>.>.z.[.'.s.<. .C.M.                                              ",
"                                              N.J.K.` s.O.D.D...D.D.O.s.H.  O C.                                                ",
"                                                    ` P.P.P.H.H.H.P.P.P.`                                                       ",
"                                                    ` ` ` ` ` ` ` ` ` ` `                                                       ",
"                                                    ` ` ` ` ` ` ` ` ` ` `                                                       ",
"                                                                                                                                ",
"                                                                                                                                ",
"                                                                                                                                ",
"                                                                                                                                ",
"                                                                                                                                ",
"                                                                                                                                ",
"                                                                                                                                ",
"                                                                                                                                ",
"                                                                                                                                ",
"                                                                                                                                ",
"                                                                                                                                ",
"                                                                                                                                ",
"                                                                                                                                ",
"                                                                                                                                "};
